# This file uses centimeters as units for non-parametric coordinates.

mtllib atm.mtl
g default
v -1.430866 0.107424 1.260004
v 1.430866 0.107424 1.260004
v 1.430866 6.396636 1.260004
v -1.430866 6.396636 1.260004
v 1.430866 6.396636 -1.241980
v 1.167750 6.396636 -1.241980
v -1.167750 6.396636 -1.241980
v -1.430866 6.396636 -1.241980
v -1.167750 6.193141 -1.241980
v -1.430866 6.193141 -1.241980
v -1.430866 0.107438 -1.268247
v -1.167757 0.107438 -1.268247
v 1.167742 0.107438 -1.268247
v 1.430866 0.107438 -1.268247
v 1.430866 4.130141 -1.268247
v 1.430866 5.915107 -0.692519
v 1.430866 6.193141 -1.241980
v -1.430866 4.130141 -1.268247
v -1.430866 5.915107 -0.692519
v 1.167742 0.094421 -2.858930
v 1.167742 4.151660 -2.880505
v 1.430866 4.151660 -2.880505
v 1.430866 0.094421 -2.858930
v 1.167750 6.193141 -1.241980
v 1.430866 4.159359 -1.432653
v 1.167742 4.159359 -1.432653
v 1.167750 5.970227 -0.824759
v 1.430866 5.970227 -0.824759
v -1.167757 0.107438 -2.268247
v -1.167757 4.130141 -2.268247
v 1.167742 4.130141 -2.268247
v 1.167742 0.107438 -2.268247
v 1.167742 4.130141 -1.268247
v -1.167757 4.130141 -1.268247
v -1.167750 5.915107 -0.692519
v 1.167750 5.915107 -0.692519
v -1.430866 4.151659 -2.880506
v -1.167757 4.151659 -2.880506
v -1.167757 0.094420 -2.858930
v -1.430866 0.094420 -2.858930
v -1.430866 5.970227 -0.824759
v -1.167750 5.970227 -0.824759
v -1.167757 4.159358 -1.432654
v -1.430866 4.159358 -1.432654
v 1.167742 0.102120 -1.411078
v 1.430866 0.102120 -1.411078
v -1.167757 0.102120 -1.411078
v -1.430866 0.102120 -1.411078
vt 0.289909 0.155582
vt 0.304729 0.155582
vt 0.145220 0.031787
vt 0.111094 0.031787
vt 0.145220 0.031787
vt 0.142082 0.031787
vt 0.114232 0.031787
vt 0.111094 0.031787
vt 0.926125 0.977436
vt 0.847323 0.977436
vt 0.847323 0.890134
vt 0.926125 0.890134
vt 0.436287 0.155582
vt 0.451108 0.155582
vt 0.451108 0.155481
vt 0.289909 0.155481
vt 0.527124 0.055601
vt 0.700825 0.055601
vt 0.700825 0.175452
vt 0.527124 0.175452
vt 0.700825 0.055602
vt 0.700825 0.132260
vt 0.700825 0.166276
vt 0.700825 0.175452
vt 0.700825 0.171574
vt 0.436287 0.117179
vt 0.527124 0.055602
vt 0.527124 0.132260
vt 0.451108 0.117179
vt 0.069043 0.890134
vt 0.147846 0.890134
vt 0.147846 0.977436
vt 0.069043 0.977436
vt 0.527124 0.175452
vt 0.896376 0.149416
vt 0.884158 0.149416
vt 0.527124 0.171574
vt 0.289909 0.117179
vt 0.527124 0.166276
vt 0.684854 0.055353
vt 0.304729 0.117179
vt 0.543095 0.055500
vt 0.684854 0.055500
vt 0.527124 0.055500
vt 0.700825 0.055500
vt 0.107433 0.468782
vt 0.878646 0.468782
vt 0.878643 0.838353
vt 0.107431 0.838353
vt 0.684854 0.132671
vt 0.700825 0.132671
vt 0.304729 0.155582
vt 0.436287 0.155582
vt 0.700825 0.055353
vt 0.884158 0.164319
vt 0.896376 0.164319
vt 0.700825 0.132817
vt 0.775711 0.149416
vt 0.775711 0.164319
vt 0.763493 0.164319
vt 0.763493 0.149416
vt 0.884158 0.053739
vt 0.884158 0.152370
vt 0.884158 0.055305
vt 0.775710 0.053739
vt 0.123044 0.177991
vt 0.123044 0.134512
vt 0.123044 0.156252
vt 0.065073 0.134512
vt 0.436287 0.061583
vt 0.451108 0.061583
vt 0.775710 0.055305
vt 0.094058 0.156252
vt 0.145220 0.014813
vt 0.152029 0.177991
vt 0.152029 0.156252
vt 0.152029 0.134512
vt 0.094058 0.177991
vt 0.065073 0.156252
vt 0.145220 0.014754
vt 0.289909 0.061576
vt 0.304729 0.061576
vt 0.142082 0.014813
vt 0.094058 0.177991
vt 0.123044 0.134512
vt 0.094058 0.134512
vt 0.775711 0.152370
vt 0.123044 0.114952
vt 0.152029 0.114952
vt 0.883095 0.466733
vt 0.104409 0.470810
vt 0.104435 0.210301
vt 0.883000 0.210678
vt 0.123044 0.156252
vt 0.152029 0.156252
vt 0.684854 0.132817
vt 0.684855 0.167326
vt 0.700825 0.167326
vt 0.543095 0.055602
vt 0.543095 0.132260
vt 0.684854 0.132260
vt 0.684854 0.055602
vt 0.527124 0.132671
vt 0.543095 0.132671
vt 0.543095 0.055353
vt 0.527124 0.055353
vt 0.527124 0.167326
vt 0.543095 0.167326
vt 0.543095 0.132817
vt 0.527124 0.132817
vt 0.847323 0.977436
vt 0.847323 0.890134
vt 0.147846 0.890134
vt 0.147846 0.977436
vn 0.000000 0.000000 1.000000
vn 0.000000 0.000000 1.000000
vn 0.000000 0.000000 1.000000
vn 0.000000 0.000000 1.000000
vn 0.000000 1.000000 0.000000
vn 0.000000 1.000000 0.000000
vn 0.000000 1.000000 0.000000
vn 0.000000 1.000000 0.000000
vn 0.000000 1.000000 0.000000
vn 0.000000 1.000000 0.000000
vn 0.000000 0.000000 -1.000000
vn 0.000000 0.000000 -1.000000
vn 0.000000 -0.752067 -0.659087
vn 0.000000 -0.752067 -0.659087
vn 0.000000 -1.000000 0.000187
vn 0.000000 -1.000000 0.000091
vn 0.000000 -1.000000 0.000091
vn 0.000000 -1.000000 0.000187
vn 0.000000 -1.000000 -0.000006
vn 0.000000 -1.000000 -0.000006
vn 1.000000 0.000000 0.000000
vn 1.000000 0.000000 0.000000
vn 1.000000 0.000000 0.000000
vn 1.000000 0.000000 0.000000
vn 1.000000 0.000000 0.000000
vn 1.000000 0.000000 0.000000
vn 1.000000 0.000000 0.000000
vn 1.000000 0.000000 0.000000
vn 1.000000 0.000000 0.000000
vn 1.000000 0.000000 0.000000
vn 1.000000 0.000000 0.000000
vn 1.000000 0.000000 0.000000
vn 1.000000 0.000000 0.000000
vn 1.000000 0.000000 0.000000
vn 1.000000 0.000000 0.000000
vn -1.000000 0.000000 0.000000
vn -1.000000 0.000000 0.000000
vn -1.000000 0.000000 0.000000
vn -1.000000 0.000000 0.000000
vn -1.000000 0.000000 0.000000
vn -1.000000 0.000000 0.000000
vn -1.000000 0.000000 0.000000
vn -1.000000 0.000000 0.000000
vn -1.000000 0.000000 0.000000
vn -1.000000 0.000000 0.000000
vn -1.000000 0.000000 0.000000
vn -1.000000 0.000000 0.000000
vn -1.000000 0.000000 0.000000
vn -1.000000 0.000000 0.000000
vn -1.000000 0.000000 0.000000
vn 0.000000 -0.005318 -0.999986
vn 0.000000 0.099420 -0.995046
vn 0.000000 0.099420 -0.995046
vn 0.000000 -0.005318 -0.999986
vn 0.000000 -0.752067 -0.659087
vn 0.000000 -0.752067 -0.659087
vn 0.000000 0.000000 -1.000000
vn 0.000000 0.000000 -1.000000
vn 0.000000 0.099420 -0.995046
vn 0.000000 0.099420 -0.995046
vn 0.000000 0.318240 -0.948010
vn 0.000000 0.318240 -0.948010
vn 0.000000 0.000000 -1.000000
vn 0.000000 0.098649 -0.995122
vn 0.000000 0.098649 -0.995122
vn 0.000000 0.000000 -1.000000
vn 0.000000 -0.752067 -0.659087
vn 0.000000 -0.752067 -0.659087
vn 0.000000 0.000000 -1.000000
vn 0.000000 0.000000 -1.000000
vn 0.000000 0.098649 -0.995122
vn 0.000000 0.098649 -0.995122
vn 0.000000 -0.017012 -0.999855
vn 0.000000 -0.017014 -0.999855
vn 0.000000 0.099422 -0.995045
vn 0.000000 0.099422 -0.995045
vn 0.000000 -0.005318 -0.999986
vn 0.000000 -0.005318 -0.999986
vn 0.000000 0.318240 -0.948010
vn 0.000000 0.318240 -0.948010
vn 0.000000 0.099422 -0.995045
vn 0.000000 0.099422 -0.995045
vn 0.000000 -0.892271 -0.451500
vn 0.000000 -0.017014 -0.999855
vn 0.000000 -0.752067 -0.659087
vn 0.000000 -0.752067 -0.659087
vn 0.000000 -0.017014 -0.999855
vn 0.000000 -0.017012 -0.999855
vn 0.000000 -0.752067 -0.659087
vn 0.000000 -0.752067 -0.659087
vn 0.000000 -0.752067 -0.659087
vn 0.000000 -0.752067 -0.659087
vn 0.000000 -0.017012 -0.999855
vn 0.000000 -0.892272 -0.451499
vn -1.000000 0.000000 0.000000
vn -1.000000 0.000002 0.000000
vn -1.000000 0.000001 0.000000
vn -1.000000 0.000000 0.000000
vn 1.000000 0.000000 0.000000
vn 1.000000 0.000000 0.000000
vn 1.000000 0.000000 0.000000
vn 1.000000 0.000000 0.000000
vn 0.000000 -1.000000 0.000187
vn 0.000000 -1.000000 0.000091
vn 0.000000 -0.999308 0.037202
vn 0.000000 -0.999308 0.037202
vn -1.000000 0.000002 0.000000
vn -1.000000 0.000004 0.000001
vn -1.000000 0.000004 0.000001
vn -1.000000 0.000001 0.000000
vn 0.000000 0.923030 0.384728
vn 0.000000 0.923030 0.384728
vn 0.000000 0.923030 0.384728
vn 0.000000 0.923030 0.384728
vn 1.000000 0.000000 0.000000
vn 1.000000 0.000000 0.000000
vn 1.000000 0.000000 0.000000
vn 1.000000 0.000000 0.000000
vn 1.000000 -0.000001 0.000000
vn 1.000000 0.000000 0.000000
vn 1.000000 0.000000 0.000000
vn 1.000000 -0.000001 0.000000
vn 0.000000 -1.000000 0.000091
vn 0.000000 -1.000000 0.000187
vn 0.000000 -0.999308 0.037204
vn 0.000000 -0.999308 0.037204
vn -1.000000 0.000000 0.000000
vn -1.000000 0.000000 0.000000
vn -1.000000 0.000000 0.000000
vn -1.000000 0.000000 0.000000
vn 0.000000 0.923030 0.384729
vn 0.000000 0.923030 0.384729
vn 0.000000 0.923030 0.384729
vn 0.000000 0.923030 0.384729
vn 1.000000 -0.000003 -0.000001
vn 1.000000 -0.000001 0.000000
vn 1.000000 -0.000001 0.000000
vn 1.000000 -0.000003 -0.000001
vn -1.000000 0.000000 0.000000
vn -1.000000 0.000000 0.000000
vn -1.000000 0.000000 0.000000
vn -1.000000 0.000000 0.000000
vn -1.000000 0.000000 0.000000
vn -1.000000 0.000000 0.000000
vn 0.000000 0.098649 -0.995122
vn 0.000000 0.000000 -1.000000
vn 0.000000 1.000000 0.000000
vn 0.000000 1.000000 0.000000
vn 0.000000 0.098649 -0.995122
vn 0.000000 0.098649 -0.995122
vn 1.000000 0.000000 0.000000
vn 1.000000 0.000000 0.000000
vn 0.000000 0.000000 -1.000000
vn 0.000000 0.098649 -0.995122
vn 0.000000 -1.000000 0.000091
vn 0.000000 -1.000000 0.000091
vn 0.000000 0.000000 -1.000000
vn 0.000000 0.000000 -1.000000
vn -1.000000 0.000000 0.000000
vn -1.000000 0.000001 0.000000
vn 0.000000 0.099420 -0.995046
vn 0.000000 -0.005318 -0.999986
vn 0.000000 0.999986 -0.005317
vn 0.000000 0.999986 -0.005317
vn 0.000000 0.099420 -0.995046
vn 0.000000 0.099420 -0.995046
vn 1.000000 0.000000 0.000000
vn 1.000000 0.000000 0.000000
vn 0.000000 -0.005318 -0.999986
vn 0.000000 0.099420 -0.995046
vn 0.000000 -0.999308 0.037202
vn 0.000000 -0.999308 0.037202
vn 0.000000 -0.005318 -0.999986
vn 0.000000 -0.005318 -0.999986
vn 0.000000 0.999986 -0.005318
vn 0.000000 0.999986 -0.005318
vn 0.000000 0.099422 -0.995045
vn 0.000000 0.099422 -0.995045
vn 1.000000 -0.000001 0.000000
vn 1.000000 0.000000 0.000000
vn 0.000000 -0.005318 -0.999986
vn 0.000000 0.099422 -0.995045
vn 0.000000 -0.999308 0.037204
vn 0.000000 -0.999308 0.037204
vn 0.000000 -0.005318 -0.999986
vn 0.000000 -0.005318 -0.999986
vn -1.000000 0.000000 0.000000
vn -1.000000 0.000000 0.000000
vn 0.000000 0.099422 -0.995045
vn 0.000000 -0.005318 -0.999986
s off
g atm:pCube2
usemtl initialShadingGroup
f 1/17/1 2/18/2 3/19/3 4/20/4
f 4/4/5 3/3/6 5/5/7 6/6/8 7/7/9 8/8/10
f 8/9/11 7/111/12 9/112/13 10/12/14
f 11/1/15 12/2/16 13/13/17 14/14/18 2/15/19 1/16/20
f 2/18/21 14/21/22 3/19/23
f 14/21/24 15/22/25 3/19/26
f 15/22/27 16/23/28 3/19/29
f 5/24/30 3/19/31 17/25/32
f 16/23/33 17/25/34 3/19/35
f 11/27/36 1/17/37 18/28/38
f 8/34/39 10/37/40 4/20/41
f 10/37/42 19/39/43 4/20/44
f 4/20/45 19/39/46 1/17/47
f 1/17/48 19/39/49 18/28/50
f 20/40/51 21/50/52 22/51/53 23/54/54
f 17/30/55 24/113/56 6/114/57 5/33/58
f 25/57/59 26/96/60 27/97/61 28/98/62
f 29/99/63 30/100/64 31/101/65 32/102/66
f 24/31/67 9/11/68 7/10/69 6/32/70
f 33/46/71 34/47/72 35/48/73 36/49/74
f 37/103/75 38/104/76 39/105/77 40/106/78
f 41/107/79 42/108/80 43/109/81 44/110/82
f 16/35/83 36/36/84 24/55/85 17/56/86
f 36/36/87 35/58/88 9/59/89 24/55/90
f 10/60/91 9/59/92 35/58/93 19/61/94
f 13/66/95 33/67/96 26/68/97 45/69/98
f 15/22/99 14/21/100 46/45/101 25/57/102
f 14/14/103 13/13/104 45/26/105 46/29/106
f 33/62/107 36/36/108 27/63/109 26/64/110
f 36/73/111 16/74/112 28/75/113 27/76/114
f 16/23/115 15/22/116 25/57/117 28/98/118
f 34/77/119 12/78/120 47/79/121 43/80/122
f 12/2/123 11/1/124 48/38/125 47/41/126
f 11/27/127 18/28/128 44/110/129 48/44/130
f 19/83/131 35/84/132 42/85/133 41/86/134
f 35/58/135 34/65/136 43/72/137 42/87/138
f 18/28/139 19/39/140 41/107/141 44/110/142
f 12/78/143 34/77/144 30/88/145 29/89/146
f 34/90/147 33/91/148 31/92/149 30/93/150
f 33/67/151 13/66/152 32/94/153 31/95/154
f 13/13/155 12/2/156 29/52/157 32/53/158
f 45/43/159 26/96/160 21/50/161 20/40/162
f 26/96/163 25/57/164 22/51/165 21/50/166
f 25/57/167 46/45/168 23/54/169 22/51/170
f 46/29/171 45/26/172 20/70/173 23/71/174
f 44/110/175 43/109/176 38/104/177 37/103/178
f 43/109/179 47/42/180 39/105/181 38/104/182
f 47/41/183 48/38/184 40/81/185 39/82/186
f 48/44/187 44/110/188 37/103/189 40/106/190
