# This file uses centimeters as units for non-parametric coordinates.

mtllib atm.mtl
g default
v -1.430866 0.107424 1.260004
v 1.430866 0.107424 1.260004
v -1.430866 6.396636 1.260004
v 1.430866 6.396636 1.260004
v -1.430866 6.396636 -1.241980
v 1.430866 6.396636 -1.241980
v -1.430866 0.107438 -1.268247
v 1.430866 0.107438 -1.268247
v 1.430866 5.915107 -0.692519
v 1.430866 4.130141 -1.268247
v -1.430866 5.915107 -0.692519
v -1.430866 4.130141 -1.268247
v -1.167757 0.107438 -1.268247
v 1.167742 0.107438 -1.268247
v -1.167750 6.396636 -1.241980
v 1.167750 6.396636 -1.241980
v 1.167750 5.915107 -0.692519
v 1.167742 4.130141 -1.268247
v -1.167750 5.915107 -0.692519
v -1.167757 4.130141 -1.268247
v 1.430866 6.193141 -1.241980
v 1.167750 6.193141 -1.241980
v -1.167750 6.193141 -1.241980
v -1.430866 6.193141 -1.241980
v 1.167742 4.159359 -1.432653
v 1.167742 0.102120 -1.411078
v 1.430866 4.159359 -1.432653
v 1.430866 0.102120 -1.411078
v 1.167750 5.970227 -0.824759
v 1.430866 5.970227 -0.824759
v -1.167757 4.159358 -1.432654
v -1.430866 4.159358 -1.432654
v -1.167757 0.102120 -1.411078
v -1.430866 0.102120 -1.411078
v -1.167750 5.970227 -0.824759
v -1.430866 5.970227 -0.824759
v -1.167757 0.107438 -2.268247
v -1.167757 4.130141 -2.268247
v 1.167742 4.130141 -2.268247
v 1.167742 0.107438 -2.268247
v 1.167742 0.094421 -2.858930
v 1.167742 4.151660 -2.880505
v 1.430866 4.151660 -2.880505
v 1.430866 0.094421 -2.858930
v -1.430866 4.151659 -2.880506
v -1.167757 4.151659 -2.880506
v -1.167757 0.094420 -2.858930
v -1.430866 0.094420 -2.858930
vt 0.375000 0.000000
vt 0.625000 0.000000
vt 0.625000 0.250000
vt 0.375000 0.250000
vt 0.625000 0.500000
vt 0.541667 0.500000
vt 0.458333 0.500000
vt 0.375000 0.500000
vt 0.458333 0.508353
vt 0.375000 0.508353
vt 0.375000 0.750000
vt 0.458333 0.750000
vt 0.541667 0.750000
vt 0.625000 0.750000
vt 0.625000 1.000000
vt 0.375000 1.000000
vt 0.875000 0.000000
vt 0.875000 0.083333
vt 0.875000 0.166667
vt 0.875000 0.241647
vt 0.875000 0.250000
vt 0.125000 0.000000
vt 0.125000 0.250000
vt 0.125000 0.241647
vt 0.125000 0.166667
vt 0.125000 0.083333
vt 0.541667 0.750000
vt 0.541667 0.666667
vt 0.625000 0.666667
vt 0.625000 0.750000
vt 0.625000 0.508353
vt 0.541667 0.508353
vt 0.541667 0.583333
vt 0.625000 0.583333
vt 0.458333 0.666667
vt 0.541667 0.666667
vt 0.458333 0.583333
vt 0.541667 0.583333
vt 0.375000 0.666667
vt 0.458333 0.666667
vt 0.458333 0.750000
vt 0.375000 0.750000
vt 0.375000 0.583333
vt 0.458333 0.583333
vt 0.625000 0.583333
vt 0.375000 0.583333
vt 0.625000 0.666667
vt 0.375000 0.666667
vt 0.458333 0.750000
vt 0.458333 0.666667
vt 0.541667 0.666667
vt 0.541667 0.750000
vt 0.541667 0.750000
vt 0.541667 0.666667
vt 0.625000 0.666667
vt 0.625000 0.750000
vt 0.375000 0.666667
vt 0.458333 0.666667
vt 0.458333 0.750000
vt 0.375000 0.750000
vn 0.000000 0.000000 1.000000
vn 0.000000 0.000000 1.000000
vn 0.000000 0.000000 1.000000
vn 0.000000 0.000000 1.000000
vn 0.000000 1.000000 0.000000
vn 0.000000 1.000000 0.000000
vn 0.000000 1.000000 0.000000
vn 0.000000 1.000000 0.000000
vn 0.000000 1.000000 0.000000
vn 0.000000 1.000000 0.000000
vn 0.000000 0.000000 -1.000000
vn 0.000000 0.000000 -1.000000
vn 0.000000 -0.752067 -0.659087
vn 0.000000 -0.752067 -0.659087
vn 0.000000 -1.000000 0.000187
vn 0.000000 -1.000000 0.000091
vn 0.000000 -1.000000 0.000091
vn 0.000000 -1.000000 0.000187
vn 0.000000 -1.000000 -0.000006
vn 0.000000 -1.000000 -0.000006
vn 1.000000 0.000000 0.000000
vn 1.000000 0.000000 0.000000
vn 1.000000 0.000000 0.000000
vn 1.000000 0.000000 0.000000
vn 1.000000 0.000000 0.000000
vn 1.000000 0.000000 0.000000
vn 1.000000 0.000000 0.000000
vn -1.000000 0.000000 0.000000
vn -1.000000 0.000000 0.000000
vn -1.000000 0.000000 0.000000
vn -1.000000 0.000000 0.000000
vn -1.000000 0.000000 0.000000
vn -1.000000 0.000000 0.000000
vn -1.000000 0.000000 0.000000
vn 0.000000 -0.005318 -0.999986
vn 0.000000 0.099420 -0.995046
vn 0.000000 0.099420 -0.995046
vn 0.000000 -0.005318 -0.999986
vn 0.000000 -0.752067 -0.659087
vn 0.000000 -0.752067 -0.659087
vn 0.000000 0.000000 -1.000000
vn 0.000000 0.000000 -1.000000
vn 0.000000 0.099420 -0.995046
vn 0.000000 0.099420 -0.995046
vn 0.000000 0.318240 -0.948010
vn 0.000000 0.318240 -0.948010
vn 0.000000 0.000000 -1.000000
vn 0.000000 0.098649 -0.995122
vn 0.000000 0.098649 -0.995122
vn 0.000000 0.000000 -1.000000
vn 0.000000 -0.752067 -0.659087
vn 0.000000 -0.752067 -0.659087
vn 0.000000 0.000000 -1.000000
vn 0.000000 0.000000 -1.000000
vn 0.000000 0.098649 -0.995122
vn 0.000000 0.098649 -0.995122
vn 0.000000 -0.017012 -0.999855
vn 0.000000 -0.017014 -0.999855
vn 0.000000 0.099422 -0.995045
vn 0.000000 0.099422 -0.995045
vn 0.000000 -0.005318 -0.999986
vn 0.000000 -0.005318 -0.999986
vn 0.000000 0.318240 -0.948010
vn 0.000000 0.318240 -0.948010
vn 0.000000 0.099422 -0.995045
vn 0.000000 0.099422 -0.995045
vn 0.000000 -0.892271 -0.451500
vn 0.000000 -0.017014 -0.999855
vn 0.000000 -0.752067 -0.659087
vn 0.000000 -0.752067 -0.659087
vn 0.000000 -0.017014 -0.999855
vn 0.000000 -0.017012 -0.999855
vn 0.000000 -0.752067 -0.659087
vn 0.000000 -0.752067 -0.659087
vn 0.000000 -0.752067 -0.659087
vn 0.000000 -0.752067 -0.659087
vn 0.000000 -0.017012 -0.999855
vn 0.000000 -0.892272 -0.451499
vn -1.000000 0.000000 0.000000
vn -1.000000 0.000002 0.000000
vn -1.000000 0.000001 0.000000
vn -1.000000 0.000000 0.000000
vn 1.000000 0.000000 0.000000
vn 1.000000 0.000000 0.000000
vn 1.000000 0.000000 0.000000
vn 1.000000 0.000000 0.000000
vn 0.000000 -1.000000 0.000187
vn 0.000000 -1.000000 0.000091
vn 0.000000 -0.999308 0.037202
vn 0.000000 -0.999308 0.037202
vn -1.000000 0.000002 0.000000
vn -1.000000 0.000004 0.000001
vn -1.000000 0.000004 0.000001
vn -1.000000 0.000001 0.000000
vn 0.000000 0.923030 0.384728
vn 0.000000 0.923030 0.384728
vn 0.000000 0.923030 0.384728
vn 0.000000 0.923030 0.384728
vn 1.000000 0.000000 0.000000
vn 1.000000 0.000000 0.000000
vn 1.000000 0.000000 0.000000
vn 1.000000 0.000000 0.000000
vn 1.000000 -0.000001 0.000000
vn 1.000000 0.000000 0.000000
vn 1.000000 0.000000 0.000000
vn 1.000000 -0.000001 0.000000
vn 0.000000 -1.000000 0.000091
vn 0.000000 -1.000000 0.000187
vn 0.000000 -0.999308 0.037204
vn 0.000000 -0.999308 0.037204
vn -1.000000 0.000000 0.000000
vn -1.000000 0.000000 0.000000
vn -1.000000 0.000000 0.000000
vn -1.000000 0.000000 0.000000
vn 0.000000 0.923030 0.384729
vn 0.000000 0.923030 0.384729
vn 0.000000 0.923030 0.384729
vn 0.000000 0.923030 0.384729
vn 1.000000 -0.000003 -0.000001
vn 1.000000 -0.000001 0.000000
vn 1.000000 -0.000001 0.000000
vn 1.000000 -0.000003 -0.000001
vn -1.000000 0.000000 0.000000
vn -1.000000 0.000000 0.000000
vn -1.000000 0.000000 0.000000
vn -1.000000 0.000000 0.000000
vn -1.000000 0.000000 0.000000
vn -1.000000 0.000000 0.000000
vn 0.000000 0.098649 -0.995122
vn 0.000000 0.000000 -1.000000
vn 0.000000 1.000000 0.000000
vn 0.000000 1.000000 0.000000
vn 0.000000 0.098649 -0.995122
vn 0.000000 0.098649 -0.995122
vn 1.000000 0.000000 0.000000
vn 1.000000 0.000000 0.000000
vn 0.000000 0.000000 -1.000000
vn 0.000000 0.098649 -0.995122
vn 0.000000 0.000000 -1.000000
vn 0.000000 0.000000 -1.000000
vn 0.000000 0.099420 -0.995046
vn 0.000000 -0.005318 -0.999986
vn 0.000000 0.999986 -0.005317
vn 0.000000 0.999986 -0.005317
vn 0.000000 0.099420 -0.995046
vn 0.000000 0.099420 -0.995046
vn 0.000000 -0.005318 -0.999986
vn 0.000000 0.099420 -0.995046
vn 0.000000 -0.005318 -0.999986
vn 0.000000 -0.005318 -0.999986
vn 0.000000 0.999986 -0.005318
vn 0.000000 0.999986 -0.005318
vn 0.000000 0.099422 -0.995045
vn 0.000000 0.099422 -0.995045
vn 0.000000 -0.005318 -0.999986
vn 0.000000 0.099422 -0.995045
vn 0.000000 -0.005318 -0.999986
vn 0.000000 -0.005318 -0.999986
vn 0.000000 0.099422 -0.995045
vn 0.000000 -0.005318 -0.999986
s off
g atm:pCube1
usemtl atm:initialShadingGroup
f 1/1/1 2/2/2 4/3/3 3/4/4
f 3/4/5 4/3/6 6/5/7 16/6/8 15/7/9 5/8/10
f 5/8/11 15/7/12 23/9/13 24/10/14
s 1
f 7/11/15 13/12/16 14/13/17 8/14/18 2/15/19 1/16/20
s off
f 2/2/21 8/17/22 10/18/23 9/19/24 21/20/25 6/21/26 4/3/27
f 7/22/28 1/1/29 3/4/30 5/23/31 24/24/32 11/25/33 12/26/34
f 41/53/35 42/54/36 43/55/37 44/56/38
f 21/31/39 22/32/40 16/6/41 6/5/42
f 27/29/43 25/28/44 29/33/45 30/34/46
f 37/49/47 38/50/48 39/51/49 40/52/50
f 22/32/51 23/9/52 15/7/53 16/6/54
f 18/36/55 20/35/56 19/37/57 17/38/58
f 45/57/59 46/58/60 47/59/61 48/60/62
f 36/43/63 35/44/64 31/40/65 32/39/66
f 9/45/67 17/38/68 22/32/69 21/31/70
f 17/38/71 19/37/72 23/9/73 22/32/74
f 24/10/75 23/9/76 19/37/77 11/46/78
s 2
f 14/13/79 18/36/80 25/28/81 26/27/82
s 3
f 10/47/83 8/14/84 28/30/85 27/29/86
s 4
f 8/14/87 14/13/88 26/27/89 28/30/90
s off
f 18/36/91 17/38/92 29/33/93 25/28/94
f 17/38/95 9/45/96 30/34/97 29/33/98
f 9/45/99 10/47/100 27/29/101 30/34/102
s 5
f 20/35/103 13/12/104 33/41/105 31/40/106
s 6
f 13/12/107 7/11/108 34/42/109 33/41/110
s 7
f 7/11/111 12/48/112 32/39/113 34/42/114
s off
f 11/46/115 19/37/116 35/44/117 36/43/118
f 19/37/119 20/35/120 31/40/121 35/44/122
f 12/48/123 11/46/124 36/43/125 32/39/126
f 13/12/127 20/35/128 38/50/129 37/49/130
f 20/35/131 18/36/132 39/51/133 38/50/134
f 18/36/135 14/13/136 40/52/137 39/51/138
s 1
f 14/13/17 13/12/16 37/49/139 40/52/140
s 2
f 26/27/82 25/28/81 42/54/141 41/53/142
s off
f 25/28/143 27/29/144 43/55/145 42/54/146
s 3
f 27/29/86 28/30/85 44/56/147 43/55/148
s 4
f 28/30/90 26/27/89 41/53/149 44/56/150
s off
f 32/39/151 31/40/152 46/58/153 45/57/154
s 5
f 31/40/106 33/41/105 47/59/155 46/58/156
s 6
f 33/41/110 34/42/109 48/60/157 47/59/158
s 7
f 34/42/114 32/39/113 45/57/159 48/60/160
