# This file uses centimeters as units for non-parametric coordinates.

mtllib box.mtl
g default
v -2.002546 -0.052178 1.946552
v 2.002546 -0.052178 1.946552
v -2.002546 3.550549 1.946552
v 2.002546 3.550549 1.946552
v -2.002546 3.550549 -1.946552
v 2.002546 3.550549 -1.946552
v -2.002546 -0.052178 -1.946552
v 2.002546 -0.052178 -1.946552
vt -0.000622 0.075086
vt 1.000622 0.075086
vt 1.000622 0.998102
vt -0.000622 0.998102
vt -0.001811 0.098084
vt 0.995117 0.098084
vt 0.025033 0.346207
vt 0.983802 0.346207
vt 0.983802 0.346207
vt 0.025033 0.346207
vt 0.997911 0.999788
vt -0.001811 0.999517
vt 1.000622 0.998102
vt -0.000622 0.998102
vt -0.000622 0.075086
vt 1.000622 0.075086
vt 0.025033 0.159031
vt 0.983802 0.159031
vt 0.983802 0.159031
vt 0.025033 0.159031
vt -0.002686 0.099109
vt 0.994591 0.099109
vt 0.999024 0.997166
vt -0.002686 0.997165
vn 0.000000 0.000000 1.000000
vn 0.000000 0.000000 1.000000
vn 0.000000 0.000000 1.000000
vn 0.000000 0.000000 1.000000
vn 0.000000 1.000000 0.000000
vn 0.000000 1.000000 0.000000
vn 0.000000 1.000000 0.000000
vn 0.000000 1.000000 0.000000
vn 0.000000 0.000000 -1.000000
vn 0.000000 0.000000 -1.000000
vn 0.000000 0.000000 -1.000000
vn 0.000000 0.000000 -1.000000
vn 0.000000 -1.000000 0.000000
vn 0.000000 -1.000000 0.000000
vn 0.000000 -1.000000 0.000000
vn 0.000000 -1.000000 0.000000
vn 1.000000 0.000000 0.000000
vn 1.000000 0.000000 0.000000
vn 1.000000 0.000000 0.000000
vn 1.000000 0.000000 0.000000
vn -1.000000 0.000000 0.000000
vn -1.000000 0.000000 0.000000
vn -1.000000 0.000000 0.000000
vn -1.000000 0.000000 0.000000
s off
g box:pCube2
usemtl initialShadingGroup
f 1/1/1 2/2/2 4/3/3 3/4/4
f 3/7/5 4/8/6 6/9/7 5/10/8
f 5/13/9 6/14/10 8/15/11 7/16/12
f 7/17/13 8/18/14 2/19/15 1/20/16
f 2/5/17 8/6/18 6/11/19 4/12/20
f 7/21/21 1/22/22 3/23/23 5/24/24
