# This file uses centimeters as units for non-parametric coordinates.

mtllib Building.mtl
g default
v -29.987499 0.000000 30.000000
v -29.987499 100.000000 30.000000
v -30.012501 0.000000 30.000000
v -30.012501 100.000000 30.000000
v -30.012501 0.000000 -30.000000
v -30.012501 100.000000 -30.000000
v -29.987499 0.000000 -30.000000
v -29.987499 100.000000 -30.000000
v -30.000000 0.000000 -30.012501
v 30.000000 0.000000 -30.012501
v -30.000000 0.000000 -29.987499
v 30.000000 0.000000 -29.987499
v -30.000000 100.000000 -29.987499
v 30.000000 100.000000 -29.987499
v -30.000000 100.000000 -30.012501
v 30.000000 100.000000 -30.012501
v -30.000000 0.000000 29.971382
v 30.000000 0.000000 29.971382
v -30.000000 0.000000 29.996384
v 30.000000 0.000000 29.996384
v -30.000000 100.000000 29.996384
v 30.000000 100.000000 29.996384
v -30.000000 100.000000 29.971382
v 30.000000 100.000000 29.971382
v 30.000000 23.192179 29.971382
v 30.000000 0.321667 29.971382
v -30.000000 23.192179 29.971382
v -30.000000 0.321667 29.971382
v 30.000000 0.321667 29.996384
v 30.000000 23.192184 29.996384
v -30.000000 0.321667 29.996384
v -30.000000 23.192184 29.996384
v -9.999998 100.000000 29.971382
v 10.000001 100.000000 29.971382
v -9.999998 100.000000 29.996384
v 10.000001 100.000000 29.996384
v -9.999998 0.000000 29.996384
v 10.000001 0.000000 29.996384
v -9.999998 0.000000 29.971382
v 10.000001 0.000000 29.971382
v 10.000001 15.188693 29.971382
v 10.000001 0.321667 29.971382
v -9.999998 15.188693 29.971382
v -9.999998 0.321667 29.971382
v 10.000001 0.321667 29.996384
v 10.000001 15.188699 29.996384
v -9.999998 0.321667 29.996384
v -9.999998 15.188699 29.996384
v 30.012501 0.000000 30.000000
v 30.012501 100.000000 30.000000
v 29.987499 0.000000 30.000000
v 29.987499 100.000000 30.000000
v 29.987499 0.000000 -30.000000
v 29.987499 100.000000 -30.000000
v 30.012501 0.000000 -30.000000
v 30.012501 100.000000 -30.000000
v -29.750000 99.987503 29.750000
v 29.750000 99.987503 29.750000
v -29.750000 100.012497 29.750000
v 29.750000 100.012497 29.750000
v -29.750000 100.012497 -29.750000
v 29.750000 100.012497 -29.750000
v -29.750000 99.987503 -29.750000
v 29.750000 99.987503 -29.750000
v -30.000000 -0.012500 30.000000
v 30.000000 -0.012500 30.000000
v -30.000000 0.012500 30.000000
v 30.000000 0.012500 30.000000
v -30.000000 0.012500 -30.000000
v 30.000000 0.012500 -30.000000
v -30.000000 -0.012500 -30.000000
v 30.000000 -0.012500 -30.000000
v -29.750000 29.987499 29.750000
v 29.750000 29.987499 29.750000
v -29.750000 30.012501 29.750000
v 29.750000 30.012501 29.750000
v -29.750000 30.012501 -29.750000
v 29.750000 30.012501 -29.750000
v -29.750000 29.987499 -29.750000
v 29.750000 29.987499 -29.750000
vt 0.375000 0.000000
vt 0.625000 0.000000
vt 0.625000 0.250000
vt 0.375000 0.250000
vt 1.005279 0.000013
vt 1.005395 1.000108
vt 0.005279 1.000015
vt 0.005316 -0.000007
vt 0.375000 0.500000
vt 0.625000 0.500000
vt 0.625000 0.750000
vt 0.375000 0.750000
vt 0.088183 0.319938
vt 0.088183 0.336934
vt 0.088183 0.336934
vt 0.088183 0.319938
vt 0.875000 0.000000
vt 0.875000 0.250000
vt 0.125000 0.000000
vt 0.125000 0.250000
vt 0.375000 0.000000
vt 0.625000 0.000000
vt 0.625000 0.250000
vt 0.375000 0.250000
vt 0.088183 0.319938
vt 0.090623 0.319938
vt 0.090623 0.336934
vt 0.088183 0.336934
vt 0.375000 0.500000
vt 0.625000 0.500000
vt 0.625000 0.750000
vt 0.375000 0.750000
vt 0.000000 1.000000
vt 1.000000 1.000000
vt 1.000000 0.000000
vt 0.000000 0.000000
vt 0.875000 0.000000
vt 0.875000 0.250000
vt 0.125000 0.000000
vt 0.125000 0.250000
vt 0.375000 0.000000
vt 0.458333 0.000000
vt 0.541667 0.000000
vt 0.625000 0.000000
vt 0.625000 0.250000
vt 0.541667 0.250000
vt 0.458333 0.250000
vt 0.375000 0.250000
vt 0.458333 0.333333
vt 0.375000 0.333333
vt 0.375000 0.500000
vt 0.458333 0.500000
vt 0.541667 0.500000
vt 0.625000 0.500000
vt 0.625000 0.750000
vt 0.541667 0.750000
vt 0.458333 0.750000
vt 0.375000 0.750000
vt 0.088183 0.336934
vt 0.088996 0.336934
vt 0.088996 0.323880
vt 0.088183 0.323880
vt 0.708333 0.000000
vt 0.791667 0.000000
vt 0.875000 0.000000
vt 0.875000 0.250000
vt 0.791667 0.250000
vt 0.708333 0.250000
vt 0.125000 0.000000
vt 0.208333 0.000000
vt 0.291667 0.000000
vt 0.291667 0.250000
vt 0.208333 0.250000
vt 0.125000 0.250000
vt 0.541667 1.000000
vt 0.541667 0.916667
vt 0.625000 0.916667
vt 0.625000 1.000000
vt 0.090623 0.323880
vt 0.089809 0.323880
vt 0.089809 0.336934
vt 0.090623 0.336934
vt 0.090623 0.319993
vt 0.089809 0.319993
vt 0.458333 1.000000
vt 0.458333 0.916667
vt 0.375000 0.916667
vt 0.375000 1.000000
vt 0.088996 0.319993
vt 0.088183 0.319993
vt 0.666667 1.000000
vt 0.666667 0.149150
vt 1.000000 0.229443
vt 1.000000 1.000000
vt 0.625000 0.333333
vt 0.541667 0.333333
vt 0.666667 -0.000000
vt 1.000000 -0.000000
vt 0.333333 1.000000
vt 0.333333 0.149150
vt 0.000000 0.229443
vt 0.000000 1.000000
vt 0.000000 -0.000000
vt 0.333333 -0.000000
vt 0.541667 0.833333
vt 0.541667 0.416667
vt 0.458333 0.833333
vt 0.458333 0.416667
vt 0.090623 0.319938
vt 0.090623 0.336934
vt 0.090622 0.336934
vt 0.090622 0.319938
vt 0.090622 0.336934
vt 0.090622 0.319938
vt 0.090623 0.336934
vt 0.090623 0.319938
vt 0.005568 0.000056
vt 0.005521 1.000009
vt 1.005547 1.000002
vt 1.005541 -0.000003
vt 0.375000 0.000000
vt 0.625000 0.000000
vt 0.625000 0.250000
vt 0.375000 0.250000
vt 0.088193 0.336936
vt 0.090613 0.336936
vt 0.090613 0.336936
vt 0.088193 0.336936
vt 0.375000 0.500000
vt 0.625000 0.500000
vt 0.625000 0.750000
vt 0.375000 0.750000
vt 0.625000 1.000000
vt 0.375000 1.000000
vt 0.875000 0.000000
vt 0.875000 0.250000
vt 0.125000 0.000000
vt 0.125000 0.250000
vt 0.375000 0.000000
vt 0.625000 0.000000
vt 0.625000 0.250000
vt 0.375000 0.250000
vt 0.088183 0.319940
vt 0.090623 0.319940
vt 0.090623 0.319940
vt 0.088183 0.319940
vt 0.375000 0.500000
vt 0.625000 0.500000
vt 0.625000 0.750000
vt 0.375000 0.750000
vt 0.088183 0.319936
vt 0.090623 0.319936
vt 0.090623 0.319936
vt 0.088183 0.319936
vt 0.875000 0.000000
vt 0.875000 0.250000
vt 0.125000 0.000000
vt 0.125000 0.250000
vt 0.375000 0.000000
vt 0.625000 0.000000
vt 0.625000 0.250000
vt 0.375000 0.250000
vt 0.088193 0.325039
vt 0.090613 0.325039
vt 0.090613 0.325039
vt 0.088193 0.325039
vt 0.375000 0.500000
vt 0.625000 0.500000
vt 0.625000 0.750000
vt 0.375000 0.750000
vt 0.088193 0.325035
vt 0.090613 0.325035
vt 0.090613 0.325035
vt 0.088193 0.325035
vt 0.875000 0.000000
vt 0.875000 0.250000
vt 0.125000 0.000000
vt 0.125000 0.250000
vn 0.000000 0.000000 1.000000
vn 0.000000 0.000000 1.000000
vn 0.000000 0.000000 1.000000
vn 0.000000 0.000000 1.000000
vn -1.000000 0.000000 0.000000
vn -1.000000 0.000000 0.000000
vn -1.000000 0.000000 0.000000
vn -1.000000 0.000000 0.000000
vn 0.000000 0.000000 -1.000000
vn 0.000000 0.000000 -1.000000
vn 0.000000 0.000000 -1.000000
vn 0.000000 0.000000 -1.000000
vn 1.000000 0.000000 0.000000
vn 1.000000 0.000000 0.000000
vn 1.000000 0.000000 0.000000
vn 1.000000 0.000000 0.000000
vn 0.000000 1.000000 0.000000
vn 0.000000 1.000000 0.000000
vn 0.000000 1.000000 0.000000
vn 0.000000 1.000000 0.000000
vn 0.000000 -1.000000 0.000000
vn 0.000000 -1.000000 0.000000
vn 0.000000 -1.000000 0.000000
vn 0.000000 -1.000000 0.000000
vn 0.000000 -1.000000 0.000000
vn 0.000000 -1.000000 0.000000
vn 0.000000 -1.000000 0.000000
vn 0.000000 -1.000000 0.000000
vn 0.000000 0.000000 1.000000
vn 0.000000 0.000000 1.000000
vn 0.000000 0.000000 1.000000
vn 0.000000 0.000000 1.000000
vn 0.000000 1.000000 0.000000
vn 0.000000 1.000000 0.000000
vn 0.000000 1.000000 0.000000
vn 0.000000 1.000000 0.000000
vn 0.000000 0.000000 -1.000000
vn 0.000000 0.000000 -1.000000
vn 0.000000 0.000000 -1.000000
vn 0.000000 0.000000 -1.000000
vn 1.000000 0.000000 0.000000
vn 1.000000 0.000000 0.000000
vn 1.000000 0.000000 0.000000
vn 1.000000 0.000000 0.000000
vn -1.000000 0.000000 0.000000
vn -1.000000 0.000000 0.000000
vn -1.000000 0.000000 0.000000
vn -1.000000 0.000000 0.000000
vn 0.000000 -1.000000 0.000000
vn 0.000000 -1.000000 0.000000
vn 0.000000 -1.000000 0.000000
vn 0.000000 -1.000000 0.000000
vn 0.000000 -1.000000 0.000000
vn 0.000000 -1.000000 0.000000
vn 0.000000 -1.000000 0.000000
vn 0.000000 -1.000000 0.000000
vn 0.000000 0.000000 1.000000
vn 0.000000 0.000000 1.000000
vn 0.000000 0.000000 1.000000
vn 0.000000 0.000000 1.000000
vn 0.000000 1.000000 0.000163
vn 0.000000 1.000000 0.000163
vn 0.000000 1.000000 0.000163
vn 0.000000 1.000000 0.000163
vn 0.000000 1.000000 0.000163
vn 0.000000 1.000000 0.000163
vn 0.000000 1.000000 0.000163
vn 0.000000 1.000000 0.000163
vn 0.000000 0.000000 -1.000000
vn 0.000000 0.000000 -1.000000
vn 0.000000 0.000000 -1.000000
vn 0.000000 0.000000 -1.000000
vn 1.000000 0.000000 0.000000
vn 1.000000 0.000000 0.000000
vn 1.000000 0.000000 0.000000
vn 1.000000 0.000000 0.000000
vn 1.000000 0.000000 0.000000
vn 1.000000 0.000000 0.000000
vn 1.000000 0.000000 0.000000
vn 1.000000 0.000000 0.000000
vn -1.000000 0.000000 0.000000
vn -1.000000 0.000000 0.000000
vn -1.000000 0.000000 0.000000
vn -1.000000 0.000000 0.000000
vn -1.000000 0.000000 0.000000
vn -1.000000 0.000000 0.000000
vn -1.000000 0.000000 0.000000
vn -1.000000 0.000000 0.000000
vn 0.000000 0.000000 -1.000000
vn 0.000000 0.000000 -1.000000
vn 0.000000 0.000000 -1.000000
vn 0.000000 0.000000 -1.000000
vn 0.000000 0.000000 -1.000000
vn 0.000000 0.000000 -1.000000
vn 0.000000 0.000000 -1.000000
vn 0.000000 0.000000 -1.000000
vn 0.000000 0.000000 -1.000000
vn 0.000000 0.000000 -1.000000
vn 0.000000 0.000000 -1.000000
vn 0.000000 0.000000 -1.000000
vn 0.000000 0.000000 -1.000000
vn 0.000000 0.000000 -1.000000
vn 0.000000 0.000000 -1.000000
vn 0.000000 0.000000 -1.000000
vn 0.000000 0.000000 -1.000000
vn 0.000000 0.000000 -1.000000
vn 0.000000 0.000000 -1.000000
vn 0.000000 0.000000 -1.000000
vn 0.000000 0.000000 -1.000000
vn 0.000000 0.000000 -1.000000
vn 0.000000 0.000000 -1.000000
vn 0.000000 0.000000 -1.000000
vn 0.000000 0.000000 -1.000000
vn 0.000000 0.000000 -1.000000
vn 0.000000 0.000000 -1.000000
vn 0.000000 0.000000 -1.000000
vn 0.000000 0.000000 1.000000
vn 0.000000 0.000000 1.000000
vn 0.000000 0.000000 1.000000
vn 0.000000 0.000000 1.000000
vn 0.000000 0.000000 1.000000
vn 0.000000 0.000000 1.000000
vn 0.000000 0.000000 1.000000
vn 0.000000 0.000000 1.000000
vn 0.000000 0.000000 1.000000
vn 0.000000 0.000000 1.000000
vn 0.000000 0.000000 1.000000
vn 0.000000 0.000000 1.000000
vn 0.000000 0.000000 1.000000
vn 0.000000 0.000000 1.000000
vn 0.000000 0.000000 1.000000
vn 0.000000 0.000000 1.000000
vn 0.000000 0.000000 1.000000
vn 0.000000 0.000000 1.000000
vn 0.000000 0.000000 1.000000
vn 0.000000 0.000000 1.000000
vn 0.000000 0.000000 1.000000
vn 0.000000 0.000000 1.000000
vn 0.000000 0.000000 1.000000
vn 0.000000 0.000000 1.000000
vn 0.000000 0.000000 1.000000
vn 0.000000 0.000000 1.000000
vn 0.000000 0.000000 1.000000
vn 0.000000 0.000000 1.000000
vn -1.000000 0.000000 0.000000
vn -1.000000 0.000000 0.000000
vn -1.000000 0.000000 0.000000
vn -1.000000 0.000000 0.000000
vn 1.000000 0.000000 0.000000
vn 1.000000 0.000000 0.000000
vn 1.000000 0.000000 0.000000
vn 1.000000 0.000000 0.000000
vn 0.000000 1.000000 0.000000
vn 0.000000 1.000000 0.000000
vn 0.000000 1.000000 0.000000
vn 0.000000 1.000000 0.000000
vn 0.000000 -1.000000 0.000244
vn 0.000000 -1.000000 0.000244
vn 0.000000 -1.000000 0.000244
vn 0.000000 -1.000000 0.000244
vn 0.000000 0.000000 1.000000
vn 0.000000 0.000000 1.000000
vn 0.000000 0.000000 1.000000
vn 0.000000 0.000000 1.000000
vn -1.000000 0.000000 0.000000
vn -1.000000 0.000000 0.000000
vn -1.000000 0.000000 0.000000
vn -1.000000 0.000000 0.000000
vn 0.000000 0.000000 -1.000000
vn 0.000000 0.000000 -1.000000
vn 0.000000 0.000000 -1.000000
vn 0.000000 0.000000 -1.000000
vn 1.000000 0.000000 0.000000
vn 1.000000 0.000000 0.000000
vn 1.000000 0.000000 0.000000
vn 1.000000 0.000000 0.000000
vn 0.000000 1.000000 0.000000
vn 0.000000 1.000000 0.000000
vn 0.000000 1.000000 0.000000
vn 0.000000 1.000000 0.000000
vn 0.000000 -1.000000 0.000000
vn 0.000000 -1.000000 0.000000
vn 0.000000 -1.000000 0.000000
vn 0.000000 -1.000000 0.000000
vn 0.000000 0.000000 1.000000
vn 0.000000 0.000000 1.000000
vn 0.000000 0.000000 1.000000
vn 0.000000 0.000000 1.000000
vn 0.000000 1.000000 0.000000
vn 0.000000 1.000000 0.000000
vn 0.000000 1.000000 0.000000
vn 0.000000 1.000000 0.000000
vn 0.000000 0.000000 -1.000000
vn 0.000000 0.000000 -1.000000
vn 0.000000 0.000000 -1.000000
vn 0.000000 0.000000 -1.000000
vn 0.000000 -1.000000 0.000000
vn 0.000000 -1.000000 0.000000
vn 0.000000 -1.000000 0.000000
vn 0.000000 -1.000000 0.000000
vn 1.000000 0.000000 0.000000
vn 1.000000 0.000000 0.000000
vn 1.000000 0.000000 0.000000
vn 1.000000 0.000000 0.000000
vn -1.000000 0.000000 0.000000
vn -1.000000 0.000000 0.000000
vn -1.000000 0.000000 0.000000
vn -1.000000 0.000000 0.000000
vn 0.000000 0.000000 1.000000
vn 0.000000 0.000000 1.000000
vn 0.000000 0.000000 1.000000
vn 0.000000 0.000000 1.000000
vn 0.000000 1.000000 0.000000
vn 0.000000 1.000000 0.000000
vn 0.000000 1.000000 0.000000
vn 0.000000 1.000000 0.000000
vn 0.000000 0.000000 -1.000000
vn 0.000000 0.000000 -1.000000
vn 0.000000 0.000000 -1.000000
vn 0.000000 0.000000 -1.000000
vn 0.000000 -1.000000 0.000000
vn 0.000000 -1.000000 0.000000
vn 0.000000 -1.000000 0.000000
vn 0.000000 -1.000000 0.000000
vn 1.000000 0.000000 0.000000
vn 1.000000 0.000000 0.000000
vn 1.000000 0.000000 0.000000
vn 1.000000 0.000000 0.000000
vn -1.000000 0.000000 0.000000
vn -1.000000 0.000000 0.000000
vn -1.000000 0.000000 0.000000
vn -1.000000 0.000000 0.000000
vn 0.000000 0.000000 1.000000
vn 0.000000 0.000000 1.000000
vn 0.000000 0.000000 1.000000
vn 0.000000 0.000000 1.000000
vn 0.000000 1.000000 0.000000
vn 0.000000 1.000000 0.000000
vn 0.000000 1.000000 0.000000
vn 0.000000 1.000000 0.000000
vn 0.000000 0.000000 -1.000000
vn 0.000000 0.000000 -1.000000
vn 0.000000 0.000000 -1.000000
vn 0.000000 0.000000 -1.000000
vn 0.000000 -1.000000 0.000000
vn 0.000000 -1.000000 0.000000
vn 0.000000 -1.000000 0.000000
vn 0.000000 -1.000000 0.000000
vn 1.000000 0.000000 0.000000
vn 1.000000 0.000000 0.000000
vn 1.000000 0.000000 0.000000
vn 1.000000 0.000000 0.000000
vn -1.000000 0.000000 0.000000
vn -1.000000 0.000000 0.000000
vn -1.000000 0.000000 0.000000
vn -1.000000 0.000000 0.000000
s off
g Building:pCube2
usemtl initialShadingGroup
f 1/1/1 2/2/2 4/3/3 3/4/4
f 3/5/5 4/6/6 6/7/7 5/8/8
f 5/9/9 6/10/10 8/11/11 7/12/12
f 7/13/13 8/14/14 2/15/15 1/16/16
f 2/2/17 8/17/18 6/18/19 4/3/20
f 7/19/21 1/1/22 3/4/23 5/20/24
f 9/21/25 10/22/26 12/23/27 11/24/28
f 11/25/29 12/26/30 14/27/31 13/28/32
f 13/29/33 14/30/34 16/31/35 15/32/36
f 15/33/37 16/34/38 10/35/39 9/36/40
f 10/22/41 16/37/42 14/38/43 12/23/44
f 15/39/45 9/21/46 11/24/47 13/40/48
f 17/41/49 39/42/50 40/43/51 18/44/52 20/45/53 38/46/54 37/47/55 19/48/56
f 19/48/57 37/47/58 47/49/59 31/50/60
f 21/51/61 35/52/62 36/53/63 22/54/64 24/55/65 34/56/66 33/57/67 23/58/68
f 23/59/69 33/60/70 43/61/71 27/62/72
f 18/44/73 26/63/74 25/64/75 24/65/76 22/66/77 30/67/78 29/68/79 20/45/80
f 23/69/81 27/70/82 28/71/83 17/41/84 19/48/85 31/72/86 32/73/87 21/74/88
f 40/75/89 42/76/90 26/77/91 18/78/92
f 25/79/93 41/80/94 34/81/95 24/82/96
f 26/83/97 42/84/98 41/80/99 25/79/100
f 39/85/101 44/86/102 42/76/103 40/75/104
f 41/80/105 43/61/106 33/60/107 34/81/108
f 28/87/109 44/86/110 39/85/111 17/88/112
f 27/62/113 43/61/114 44/89/115 28/90/116
f 36/91/117 46/92/118 30/93/119 22/94/120
f 29/95/121 45/96/122 38/46/123 20/45/124
f 30/93/125 46/92/126 45/97/127 29/98/128
f 35/99/129 48/100/130 46/92/131 36/91/132
f 45/96/133 47/49/134 37/47/135 38/46/136
f 32/101/137 48/100/138 35/99/139 21/102/140
f 31/103/141 47/104/142 48/100/143 32/101/144
f 41/105/145 42/76/146 45/96/147 46/106/148
f 44/86/149 43/107/150 48/108/151 47/49/152
f 42/76/153 44/86/154 47/49/155 45/96/156
f 43/107/157 41/105/158 46/106/159 48/108/160
f 49/109/161 50/110/162 52/111/163 51/112/164
f 51/112/165 52/111/166 54/113/167 53/114/168
f 53/114/169 54/113/170 56/115/171 55/116/172
f 55/117/173 56/118/174 50/119/175 49/120/176
f 50/110/177 56/115/178 54/113/179 52/111/180
f 55/116/181 49/109/182 51/112/183 53/114/184
f 57/121/185 58/122/186 60/123/187 59/124/188
f 59/125/189 60/126/190 62/127/191 61/128/192
f 61/129/193 62/130/194 64/131/195 63/132/196
f 63/132/197 64/131/198 58/133/199 57/134/200
f 58/122/201 64/135/202 62/136/203 60/123/204
f 63/137/205 57/121/206 59/124/207 61/138/208
f 65/139/209 66/140/210 68/141/211 67/142/212
f 67/143/213 68/144/214 70/145/215 69/146/216
f 69/147/217 70/148/218 72/149/219 71/150/220
f 71/151/221 72/152/222 66/153/223 65/154/224
f 66/140/225 72/155/226 70/156/227 68/141/228
f 71/157/229 65/139/230 67/142/231 69/158/232
f 73/159/233 74/160/234 76/161/235 75/162/236
f 75/163/237 76/164/238 78/165/239 77/166/240
f 77/167/241 78/168/242 80/169/243 79/170/244
f 79/171/245 80/172/246 74/173/247 73/174/248
f 74/160/249 80/175/250 78/176/251 76/161/252
f 79/177/253 73/159/254 75/162/255 77/178/256
