# This file uses centimeters as units for non-parametric coordinates.

mtllib Building.mtl
g Building:default1
v -53.437500 -0.000012 54.000000
v -53.437500 248.869797 54.000000
v -54.562508 -0.000012 54.000000
v -54.562508 248.869797 54.000000
v -54.562508 -0.000012 -54.000000
v -54.562508 248.869781 -54.000000
v -53.437500 -0.000012 -54.000000
v -53.437500 248.869766 -54.000000
v 54.562508 -0.000012 54.000000
v 54.562508 248.869797 54.000000
v 53.437500 -0.000012 54.000000
v 53.437500 248.869797 54.000000
v 53.437500 -0.000012 -54.000000
v 53.437500 248.869766 -54.000000
v 54.562508 -0.000012 -54.000000
v 54.562508 248.869766 -54.000000
v -54.000000 53.596958 54.000000
v 54.000000 53.596958 54.000000
v -54.000000 54.846954 54.000000
v 54.000000 54.846954 54.000000
v -54.000000 54.846954 -54.000000
v 54.000000 54.846954 -54.000000
v -54.000000 53.596958 -54.000000
v 54.000000 53.596958 -54.000000
v -54.562508 -0.000012 53.437500
v 54.562508 -0.000012 53.437500
v -54.562508 -0.000012 54.562500
v 54.562508 -0.000012 54.562500
v -54.562508 248.869781 54.562500
v 54.562508 248.869781 54.562500
v -54.562508 248.869781 53.437500
v 54.562508 248.869781 53.437500
v -54.000000 247.619766 54.000000
v 54.000000 247.619766 54.000000
v -54.000000 248.869766 54.000000
v 54.000000 248.869766 54.000000
v -54.000000 248.869766 -54.000000
v 54.000000 248.869766 -54.000000
v -54.000000 247.619766 -54.000000
v 54.000000 247.619766 -54.000000
v -54.000000 -0.000012 54.000000
v 54.000000 -0.000012 54.000000
v -54.000000 0.118520 54.000000
v 54.000000 0.118520 54.000000
v -54.000000 0.118520 -54.000000
v 54.000000 0.118520 -54.000000
v -54.000000 -0.000012 -54.000000
v 54.000000 -0.000012 -54.000000
v -54.562496 -0.000012 -54.562500
v 54.562496 -0.000012 -54.562500
v -54.562496 -0.000012 -53.437500
v 54.562496 -0.000012 -53.437500
v -54.562496 248.869766 -53.437500
v 54.562496 248.869766 -53.437500
v -54.562496 248.869766 -54.562500
v 54.562496 248.869766 -54.562500
v 54.562496 45.455471 -54.562500
v 54.562496 0.293794 -54.562500
v -54.562496 45.455471 -54.562500
v -54.562496 0.293794 -54.562500
v 54.562496 1.275631 -53.437500
v 54.562496 45.455482 -53.437500
v -54.562496 1.275631 -53.437500
v -54.562496 45.455482 -53.437500
v -17.630276 248.869766 -54.562500
v 17.630280 248.869766 -54.562500
v -17.630276 248.869766 -53.437500
v 17.630280 248.869766 -53.437500
v -17.630276 -0.000012 -53.437500
v 17.630280 -0.000012 -53.437500
v -17.630276 0.204827 -54.562500
v 17.630280 0.204827 -54.562500
v 8.924101 10.202608 -54.562500
v 8.924101 0.299239 -54.562500
v -8.924097 10.202608 -54.562500
v -8.924097 0.299239 -54.562500
v 8.924101 0.316224 -53.437500
v 8.924101 10.202618 -53.437500
v -8.924097 0.316224 -53.437500
v -8.924097 10.202618 -53.437500
vt 0.375000 0.000000
vt 0.625000 0.000000
vt 0.375000 0.250000
vt 0.625000 0.250000
vt 0.375000 0.500000
vt 0.625000 0.500000
vt 0.375000 0.750000
vt 0.625000 0.750000
vt 0.486390 0.509021
vt 0.486568 0.521572
vt 0.875000 0.000000
vt 0.875000 0.250000
vt 0.125000 0.000000
vt 0.125000 0.250000
vt 0.375000 0.000000
vt 0.625000 0.000000
vt 0.375000 0.250000
vt 0.625000 0.250000
vt 0.375000 0.500000
vt 0.625000 0.500000
vt 0.375000 0.750000
vt 0.625000 0.750000
vt -0.000233 0.001261
vt 0.001220 1.000241
vt 0.875000 0.000000
vt 0.875000 0.250000
vt 0.125000 0.000000
vt 0.125000 0.250000
vt 0.375000 0.000000
vt 0.625000 0.000000
vt 0.375000 0.250000
vt 0.625000 0.250000
vt 0.375000 0.500000
vt 0.625000 0.500000
vt 0.375000 0.750000
vt 0.625000 0.750000
vt 0.486568 0.521572
vt 0.486390 0.509021
vt 0.875000 0.000000
vt 0.875000 0.250000
vt 0.125000 0.000000
vt 0.125000 0.250000
vt 0.375000 0.000000
vt 0.625000 0.000000
vt 0.375000 0.250000
vt 0.625000 0.250000
vt 0.375000 0.500000
vt 0.625000 0.500000
vt 0.375000 0.750000
vt 0.625000 0.750000
vt 0.487335 0.509021
vt 0.487157 0.521572
vt 0.875000 0.000000
vt 0.875000 0.250000
vt 0.125000 0.000000
vt 0.125000 0.250000
vt 0.375000 0.000000
vt 0.625000 0.000000
vt 0.375000 0.250000
vt 0.625000 0.250000
vt 0.375000 0.500000
vt 0.625000 0.500000
vt 0.375000 0.750000
vt 0.625000 0.750000
vt 0.375000 1.000000
vt 0.625000 1.000000
vt 0.875000 0.000000
vt 0.875000 0.250000
vt 0.125000 0.000000
vt 0.125000 0.250000
vt 0.375000 0.000000
vt 0.625000 0.000000
vt 0.375000 0.250000
vt 0.625000 0.250000
vt 0.375000 0.500000
vt 0.625000 0.500000
vt 0.375000 0.750000
vt 0.625000 0.750000
vt 0.487157 0.521572
vt 0.487335 0.509021
vt 0.875000 0.000000
vt 0.875000 0.250000
vt 0.125000 0.000000
vt 0.125000 0.250000
vt 0.375000 0.000000
vt 0.625000 0.000000
vt 0.375000 0.250000
vt 0.625000 0.250000
vt 0.375000 0.500000
vt 0.625000 0.500000
vt 0.375000 0.750000
vt 0.625000 0.750000
vt 0.375000 1.000000
vt 0.625000 1.000000
vt 0.875000 0.000000
vt 0.875000 0.250000
vt 0.125000 0.000000
vt 0.125000 0.250000
vt 0.000000 1.000000
vt 0.791667 0.000000
vt 0.625000 0.916667
vt 0.708333 0.000000
vt 0.208333 0.000000
vt 0.338440 1.000000
vt 0.291667 0.000000
vt 0.375000 0.916667
vt 0.486565 0.511724
vt 0.708333 0.250000
vt 0.487160 0.511724
vt 0.791667 0.250000
vt 0.291667 0.250000
vt 0.487160 0.511724
vt 0.208333 0.250000
vt 0.486565 0.511724
vt 0.458333 0.750000
vt 0.541667 0.750000
vt 0.458333 0.500000
vt 0.541667 0.500000
vt 0.458333 0.250000
vt 0.541667 0.250000
vt 0.458333 0.000000
vt 0.458333 1.000000
vt 0.541667 0.000000
vt 0.541667 1.000000
vt 0.486806 0.521572
vt 0.541667 0.916667
vt 0.486920 0.521572
vt 0.458333 0.916667
vt 0.486954 0.509021
vt 0.486772 0.509021
vt 0.486565 0.521572
vt 0.487160 0.521572
vt 0.433097 0.001992
vt 0.433097 0.998008
vt 0.000864 0.998008
vt 0.000864 0.001992
vt 0.418221 0.039862
vt 0.000000 0.181682
vt 1.000000 0.181682
vt 0.581779 0.039862
vt 0.661560 1.000000
vt 1.000000 1.000000
vt 1.000000 0.000000
vt 0.581779 0.000022
vt 0.418221 0.000022
vt 0.000000 0.000000
vt 0.000000 0.000000
vt 1.000000 0.000000
vt 1.000000 1.000000
vt 0.000000 1.000000
vt 1.002734 1.000056
vt 1.000325 0.001509
vt 0.487160 0.521572
vt 0.486565 0.521572
vt 0.486385 0.509027
vt 0.487340 0.509027
vt 0.487340 0.509027
vt 0.486385 0.509027
vt 0.486385 0.509021
vt 0.487340 0.509021
vt 0.487340 0.509021
vt 0.486385 0.509021
vt 0.486380 0.509021
vt 0.486707 0.509021
vt 0.486784 0.509036
vt 0.486380 0.509085
vt 0.486960 0.521572
vt 0.486942 0.509535
vt 0.487163 0.511313
vt 0.487163 0.521572
vt 0.487345 0.509085
vt 0.486942 0.509036
vt 0.487019 0.509021
vt 0.487345 0.509021
vt 0.486766 0.521572
vt 0.486784 0.509535
vt 0.486562 0.511313
vt 0.486562 0.521572
vt 0.486942 0.509535
vt 0.486942 0.509036
vt 0.486784 0.509036
vt 0.486784 0.509535
vn 0.000000 0.000000 1.000000
vn 0.000000 0.000000 1.000000
vn 0.000000 0.000000 1.000000
vn 0.000000 0.000000 1.000000
vn -1.000000 0.000000 0.000000
vn -1.000000 0.000000 0.000000
vn -1.000000 0.000000 0.000000
vn -1.000000 0.000000 0.000000
vn 0.000000 0.000000 -1.000000
vn 0.000000 0.000000 -1.000000
vn 0.000000 0.000000 -1.000000
vn 0.000000 0.000000 -1.000000
vn 1.000000 -0.000000 0.000000
vn 1.000000 -0.000000 0.000000
vn 1.000000 -0.000000 0.000000
vn 1.000000 -0.000000 0.000000
vn 0.000000 1.000000 0.000000
vn 0.000000 1.000000 0.000000
vn 0.000000 1.000000 0.000000
vn 0.000000 1.000000 0.000000
vn 0.000000 -1.000000 0.000000
vn 0.000000 -1.000000 0.000000
vn 0.000000 -1.000000 0.000000
vn 0.000000 -1.000000 0.000000
vn 0.000000 0.000000 1.000000
vn 0.000000 0.000000 1.000000
vn 0.000000 0.000000 1.000000
vn 0.000000 0.000000 1.000000
vn -1.000000 0.000000 0.000000
vn -1.000000 0.000000 0.000000
vn -1.000000 0.000000 0.000000
vn -1.000000 0.000000 0.000000
vn 0.000000 0.000000 -1.000000
vn 0.000000 0.000000 -1.000000
vn 0.000000 0.000000 -1.000000
vn 0.000000 0.000000 -1.000000
vn 1.000000 -0.000000 0.000000
vn 1.000000 -0.000000 0.000000
vn 1.000000 -0.000000 0.000000
vn 1.000000 -0.000000 0.000000
vn 0.000000 1.000000 0.000000
vn 0.000000 1.000000 0.000000
vn 0.000000 1.000000 0.000000
vn 0.000000 1.000000 0.000000
vn 0.000000 -1.000000 0.000000
vn 0.000000 -1.000000 0.000000
vn 0.000000 -1.000000 0.000000
vn 0.000000 -1.000000 0.000000
vn 0.000000 0.000000 1.000000
vn 0.000000 0.000000 1.000000
vn 0.000000 0.000000 1.000000
vn 0.000000 0.000000 1.000000
vn 0.000000 1.000000 0.000000
vn 0.000000 1.000000 0.000000
vn 0.000000 1.000000 0.000000
vn 0.000000 1.000000 0.000000
vn 0.000000 0.000000 -1.000000
vn 0.000000 0.000000 -1.000000
vn 0.000000 0.000000 -1.000000
vn 0.000000 0.000000 -1.000000
vn 0.000000 -1.000000 0.000000
vn 0.000000 -1.000000 0.000000
vn 0.000000 -1.000000 0.000000
vn 0.000000 -1.000000 0.000000
vn 1.000000 0.000000 0.000000
vn 1.000000 0.000000 0.000000
vn 1.000000 0.000000 0.000000
vn 1.000000 0.000000 0.000000
vn -1.000000 0.000000 0.000000
vn -1.000000 0.000000 0.000000
vn -1.000000 0.000000 0.000000
vn -1.000000 0.000000 0.000000
vn 0.000000 -1.000000 0.000000
vn 0.000000 -1.000000 0.000000
vn 0.000000 -1.000000 0.000000
vn 0.000000 -1.000000 0.000000
vn 0.000000 0.000000 1.000000
vn 0.000000 0.000000 1.000000
vn 0.000000 0.000000 1.000000
vn 0.000000 0.000000 1.000000
vn 0.000000 1.000000 0.000000
vn 0.000000 1.000000 0.000000
vn 0.000000 1.000000 0.000000
vn 0.000000 1.000000 0.000000
vn 0.000000 0.000000 -1.000000
vn 0.000000 0.000000 -1.000000
vn 0.000000 0.000000 -1.000000
vn 0.000000 0.000000 -1.000000
vn 1.000000 0.000000 0.000000
vn 1.000000 0.000000 0.000000
vn 1.000000 0.000000 0.000000
vn 1.000000 0.000000 0.000000
vn -1.000000 0.000000 0.000000
vn -1.000000 0.000000 0.000000
vn -1.000000 0.000000 0.000000
vn -1.000000 0.000000 0.000000
vn 0.000000 0.000000 1.000000
vn 0.000000 0.000000 1.000000
vn 0.000000 0.000000 1.000000
vn 0.000000 0.000000 1.000000
vn 0.000000 1.000000 0.000000
vn 0.000000 1.000000 0.000000
vn 0.000000 1.000000 0.000000
vn 0.000000 1.000000 0.000000
vn 0.000000 0.000000 -1.000000
vn 0.000000 0.000000 -1.000000
vn 0.000000 0.000000 -1.000000
vn 0.000000 0.000000 -1.000000
vn 0.000000 -1.000000 0.000000
vn 0.000000 -1.000000 0.000000
vn 0.000000 -1.000000 0.000000
vn 0.000000 -1.000000 0.000000
vn 1.000000 0.000000 0.000000
vn 1.000000 0.000000 0.000000
vn 1.000000 0.000000 0.000000
vn 1.000000 0.000000 0.000000
vn -1.000000 0.000000 0.000000
vn -1.000000 0.000000 0.000000
vn -1.000000 0.000000 0.000000
vn -1.000000 0.000000 0.000000
vn 0.000000 0.000000 1.000000
vn 0.000000 0.000000 1.000000
vn 0.000000 0.000000 1.000000
vn 0.000000 0.000000 1.000000
vn 0.000000 1.000000 0.000000
vn 0.000000 1.000000 0.000000
vn 0.000000 1.000000 0.000000
vn 0.000000 1.000000 0.000000
vn 0.000000 0.000000 -1.000000
vn 0.000000 0.000000 -1.000000
vn 0.000000 0.000000 -1.000000
vn 0.000000 0.000000 -1.000000
vn 0.000000 -1.000000 0.000000
vn 0.000000 -1.000000 0.000000
vn 0.000000 -1.000000 0.000000
vn 0.000000 -1.000000 0.000000
vn 1.000000 0.000000 0.000000
vn 1.000000 0.000000 0.000000
vn 1.000000 0.000000 0.000000
vn 1.000000 0.000000 0.000000
vn -1.000000 0.000000 0.000000
vn -1.000000 0.000000 0.000000
vn -1.000000 0.000000 0.000000
vn -1.000000 0.000000 0.000000
vn 0.000000 -1.000000 0.000000
vn 0.000000 -1.000000 0.000000
vn 0.000000 -1.000000 0.000000
vn 0.000000 -1.000000 0.000000
vn 0.000000 -1.000000 0.000000
vn 0.000000 -1.000000 0.000000
vn 0.000000 -1.000000 0.000000
vn 0.000000 -1.000000 0.000000
vn 0.000000 0.000000 1.000000
vn 0.000000 0.000000 1.000000
vn 0.000000 0.000000 1.000000
vn 0.000000 0.000000 1.000000
vn 0.000000 1.000000 0.000000
vn 0.000000 1.000000 0.000000
vn 0.000000 1.000000 0.000000
vn 0.000000 1.000000 0.000000
vn 0.000000 1.000000 0.000000
vn 0.000000 1.000000 0.000000
vn 0.000000 1.000000 0.000000
vn 0.000000 1.000000 0.000000
vn 0.000000 0.000000 -1.000000
vn 0.000000 0.000000 -1.000000
vn 0.000000 0.000000 -1.000000
vn 0.000000 0.000000 -1.000000
vn 1.000000 0.000000 0.000000
vn 1.000000 0.000000 0.000000
vn 1.000000 0.000000 0.000000
vn 1.000000 0.000000 0.000000
vn 1.000000 0.000000 0.000000
vn 1.000000 0.000000 0.000000
vn 1.000000 0.000000 0.000000
vn 1.000000 0.000000 0.000000
vn -1.000000 0.000000 -0.000003
vn -1.000000 0.000000 -0.000003
vn -1.000000 0.000000 -0.000003
vn -1.000000 0.000000 -0.000003
vn -1.000000 0.000000 -0.000003
vn -1.000000 0.000000 -0.000003
vn -1.000000 0.000000 -0.000003
vn -1.000000 0.000000 -0.000003
vn 0.000000 0.000000 -1.000000
vn 0.000000 0.000000 -1.000000
vn 0.000000 0.000000 -1.000000
vn 0.000000 0.000000 -1.000000
vn 0.000000 0.000000 -1.000000
vn 0.000000 0.000000 -1.000000
vn 0.000000 0.000000 -1.000000
vn 0.000000 0.000000 -1.000000
vn 0.000000 0.000000 -1.000000
vn 0.000000 0.000000 -1.000000
vn 0.000000 0.000000 -1.000000
vn 0.000000 0.000000 -1.000000
vn 0.000000 0.000000 -1.000000
vn 0.000000 0.000000 -1.000000
vn 0.000000 0.000000 -1.000000
vn 0.000000 0.000000 -1.000000
vn 0.000000 0.000000 -1.000000
vn 0.000000 0.000000 -1.000000
vn 0.000000 0.000000 -1.000000
vn 0.000000 0.000000 -1.000000
vn 0.000000 0.000000 -1.000000
vn 0.000000 0.000000 -1.000000
vn 0.000000 0.000000 -1.000000
vn 0.000000 0.000000 -1.000000
vn 0.000000 0.000000 -1.000000
vn 0.000000 0.000000 -1.000000
vn 0.000000 0.000000 -1.000000
vn 0.000000 0.000000 -1.000000
vn 0.000000 0.000000 1.000000
vn 0.000000 0.000000 1.000000
vn 0.000000 0.000000 1.000000
vn 0.000000 0.000000 1.000000
vn 0.000000 0.000000 1.000000
vn 0.000000 0.000000 1.000000
vn 0.000000 0.000000 1.000000
vn 0.000000 0.000000 1.000000
vn 0.000000 0.000000 1.000000
vn 0.000000 0.000000 1.000000
vn 0.000000 0.000000 1.000000
vn 0.000000 0.000000 1.000000
vn 0.000000 0.000000 1.000000
vn 0.000000 0.000000 1.000000
vn 0.000000 0.000000 1.000000
vn 0.000000 0.000000 1.000000
vn 0.000000 0.000000 1.000000
vn 0.000000 0.000000 1.000000
vn 0.000000 0.000000 1.000000
vn 0.000000 0.000000 1.000000
vn 0.000000 0.000000 1.000000
vn 0.000000 0.000000 1.000000
vn 0.000000 0.000000 1.000000
vn 0.000000 0.000000 1.000000
vn 0.000000 0.000000 1.000000
vn 0.000000 0.000000 1.000000
vn 0.000000 0.000000 1.000000
vn 0.000000 0.000000 1.000000
vn -1.000000 0.000000 -0.000001
vn -1.000000 0.000000 -0.000001
vn -1.000000 0.000000 -0.000001
vn -1.000000 0.000000 -0.000001
vn 0.000000 1.000000 0.000000
vn 0.000000 1.000000 0.000000
vn 0.000000 1.000000 0.000000
vn 0.000000 1.000000 0.000000
vn 1.000000 0.000000 -0.000001
vn 1.000000 0.000000 -0.000001
vn 1.000000 0.000000 -0.000001
vn 1.000000 0.000000 -0.000001
vn 0.000000 -1.000000 0.000007
vn 0.000000 -1.000000 0.000007
vn 0.000000 -1.000000 0.000007
vn 0.000000 -1.000000 0.000007
s off
g Building:group2 Building:pasted__pCube1 Building:polySurface2 Building:polySurface1
usemtl initialShadingGroup
f 1/1/1 2/2/2 4/4/3 3/3/4
f 3/133/5 4/134/6 6/135/7 5/136/8
f 5/5/9 6/6/10 8/8/11 7/7/12
f 7/9/13 8/10/14 2/37/15 1/38/16
f 2/2/17 8/11/18 6/12/19 4/4/20
f 7/13/21 1/1/22 3/3/23 5/14/24
g Building:group6 Building:pasted__group2 Building:pasted__pasted__pCube1 Building:polySurface2 Building:polySurface1
f 9/15/25 10/16/26 12/18/27 11/17/28
f 11/51/29 12/52/30 14/79/31 13/80/32
f 13/19/33 14/20/34 16/22/35 15/21/36
f 15/23/37 16/24/38 10/151/39 9/152/40
f 10/16/41 16/25/42 14/26/43 12/18/44
f 15/27/45 9/15/46 11/17/47 13/28/48
g Building:group8 Building:pasted__group2 Building:pasted__pasted__pCube1 Building:polySurface2 Building:polySurface1
f 17/29/49 18/30/50 20/32/51 19/31/52
f 19/31/53 20/32/54 22/34/55 21/33/56
f 21/33/57 22/34/58 24/36/59 23/35/60
f 23/107/61 24/109/62 18/112/63 17/114/64
f 18/30/65 24/39/66 22/40/67 20/32/68
f 23/41/69 17/29/70 19/31/71 21/42/72
g Building:group9 Building:pasted__group7 Building:pasted__pasted__group2 Building:pasted__pasted__pasted__pCube1 Building:polySurface2 Building:polySurface1
f 25/43/73 26/44/74 28/46/75 27/45/76
f 27/147/77 28/148/78 30/149/79 29/150/80
f 29/47/81 30/48/82 32/50/83 31/49/84
f 31/125/85 32/127/86 26/129/87 25/130/88
f 26/44/89 32/53/90 30/54/91 28/46/92
f 31/55/93 25/43/94 27/45/95 29/56/96
g Building:group10 Building:pasted__group8 Building:pasted__pasted__group2 Building:pasted__pasted__pasted__pCube1 Building:polySurface2 Building:polySurface1
f 33/57/97 34/58/98 36/60/99 35/59/100
f 35/131/101 36/132/102 38/153/103 37/154/104
f 37/61/105 38/62/106 40/64/107 39/63/108
f 39/63/109 40/64/110 34/66/111 33/65/112
f 34/58/113 40/67/114 38/68/115 36/60/116
f 39/69/117 33/57/118 35/59/119 37/70/120
g Building:group11 Building:pasted__group10 Building:pasted__pasted__group8 Building:pasted__pasted__pasted__group2 Building:pasted__pasted__pasted__pasted__pCube1 Building:polySurface2 Building:polySurface1
f 41/71/121 42/72/122 44/74/123 43/73/124
f 43/155/125 44/156/126 46/157/127 45/158/128
f 45/75/129 46/76/130 48/78/131 47/77/132
f 47/159/133 48/160/134 42/161/135 41/162/136
f 42/72/137 48/81/138 46/82/139 44/74/140
f 47/83/141 41/71/142 43/73/143 45/84/144
g Building:group12 Building:pasted__group12 Building:pasted__pasted__group9 Building:pasted__pasted__pasted__group7 Building:pasted__pasted__pasted__pasted__group2 Building:pasted__pasted__pasted__pasted__pasted__pCube1 Building:polySurface2 Building:polySurface1
f 49/85/145 71/121/146 72/123/147 50/86/148 52/88/149 70/120/150 69/119/151 51/87/152
f 51/163/153 69/164/154 79/165/155 63/166/156
f 53/89/157 67/117/158 68/118/159 54/90/160 56/92/161 66/116/162 65/115/163 55/91/164
f 55/99/165 65/104/166 75/137/167 59/138/168
f 50/86/169 58/102/170 57/100/171 56/95/172 54/96/173 62/110/174 61/108/175 52/88/176
f 55/97/177 59/103/178 60/105/179 49/85/180 51/87/181 63/111/182 64/113/183 53/98/184
f 72/124/185 74/126/186 58/101/187 50/94/188
f 57/139/189 73/140/190 66/141/191 56/142/192
f 58/143/193 74/144/194 73/140/195 57/139/196
f 71/122/197 76/128/198 74/126/199 72/124/200
f 73/140/201 75/137/202 65/104/203 66/141/204
f 60/106/205 76/128/206 71/122/207 49/93/208
f 59/138/209 75/137/210 76/145/211 60/146/212
f 68/167/213 78/168/214 62/169/215 54/170/216
f 61/171/217 77/172/218 70/173/219 52/174/220
f 62/169/221 78/168/222 77/172/223 61/171/224
f 67/175/225 80/176/226 78/168/227 68/167/228
f 77/172/229 79/165/230 69/164/231 70/173/232
f 64/177/233 80/176/234 67/175/235 53/178/236
f 63/166/237 79/165/238 80/176/239 64/177/240
f 73/179/241 74/180/242 77/172/243 78/168/244
f 74/180/245 76/181/246 79/165/247 77/172/248
f 76/181/249 75/182/250 80/176/251 79/165/252
f 75/182/253 73/179/254 78/168/255 80/176/256
