# This file uses centimeters as units for non-parametric coordinates.

mtllib canned_food_14.mtl
g default
v -0.025835 0.027631 -0.247696
v -0.059419 0.027631 -0.238861
v -0.091209 0.027631 -0.224881
v -0.120420 0.027631 -0.206101
v -0.146333 0.027631 -0.182983
v -0.168310 0.027631 -0.156096
v -0.185811 0.027631 -0.126102
v -0.198405 0.027631 -0.093738
v -0.205779 0.027631 -0.059802
v -0.207756 0.027631 -0.025132
v -0.204283 0.027631 0.009421
v -0.195450 0.027631 0.043005
v -0.181470 0.027631 0.074795
v -0.162690 0.027631 0.104006
v -0.139572 0.027631 0.129919
v -0.112684 0.027631 0.151896
v -0.082689 0.027631 0.169397
v -0.050324 0.027631 0.181991
v -0.016391 0.027631 0.189367
v 0.018280 0.027631 0.191342
v 0.052833 0.027631 0.187871
v 0.086418 0.027631 0.179036
v 0.118208 0.027631 0.165056
v 0.147418 0.027631 0.146276
v 0.173331 0.027631 0.123158
v 0.195309 0.027631 0.096270
v 0.212809 0.027631 0.066275
v 0.225404 0.027631 0.033911
v 0.232778 0.027631 -0.000023
v 0.234754 0.027631 -0.034694
v 0.231282 0.027631 -0.069247
v 0.222449 0.027631 -0.102832
v 0.208469 0.027631 -0.134620
v 0.189689 0.027631 -0.163832
v 0.166569 0.027631 -0.189745
v 0.139682 0.027631 -0.211722
v 0.109688 0.027631 -0.229223
v 0.077324 0.027631 -0.241816
v 0.043388 0.027631 -0.249192
v 0.008718 0.027631 -0.251168
v -0.025835 0.824914 -0.247696
v -0.059419 0.824914 -0.238861
v -0.091209 0.824914 -0.224881
v -0.120420 0.824914 -0.206101
v -0.146333 0.824914 -0.182983
v -0.168310 0.824914 -0.156096
v -0.185811 0.824914 -0.126102
v -0.198405 0.824914 -0.093738
v -0.205779 0.824914 -0.059802
v -0.207756 0.824914 -0.025132
v -0.204283 0.824914 0.009421
v -0.195450 0.824914 0.043005
v -0.181470 0.824914 0.074795
v -0.162690 0.824914 0.104006
v -0.139572 0.824914 0.129919
v -0.112684 0.824914 0.151896
v -0.082689 0.824914 0.169397
v -0.050324 0.824914 0.181991
v -0.016391 0.824914 0.189367
v 0.018280 0.824914 0.191342
v 0.052833 0.824914 0.187871
v 0.086418 0.824914 0.179036
v 0.118208 0.824914 0.165056
v 0.147418 0.824914 0.146276
v 0.173331 0.824914 0.123158
v 0.195309 0.824914 0.096270
v 0.212809 0.824914 0.066275
v 0.225404 0.824914 0.033911
v 0.232778 0.824914 -0.000023
v 0.234754 0.824914 -0.034694
v 0.231282 0.824914 -0.069247
v 0.222449 0.824914 -0.102832
v 0.208469 0.824914 -0.134620
v 0.189689 0.824914 -0.163832
v 0.166569 0.824914 -0.189745
v 0.139682 0.824914 -0.211722
v 0.109688 0.824914 -0.229223
v 0.077324 0.824914 -0.241816
v 0.043388 0.824914 -0.249192
v 0.008718 0.824914 -0.251168
v 0.013499 0.027631 -0.029913
v 0.013499 0.824914 -0.029913
vt 0.007877 0.561484
vt 0.032483 0.561484
vt 0.032483 0.991108
vt 0.007877 0.991108
vt 0.057089 0.561484
vt 0.057089 0.991108
vt 0.081695 0.561484
vt 0.081695 0.991108
vt 0.106301 0.561484
vt 0.106301 0.991108
vt 0.130908 0.561484
vt 0.130908 0.991108
vt 0.155514 0.561484
vt 0.155514 0.991108
vt 0.180120 0.561484
vt 0.180120 0.991108
vt 0.204726 0.561484
vt 0.204726 0.991108
vt 0.229332 0.561484
vt 0.229332 0.991108
vt 0.253938 0.561484
vt 0.253938 0.991108
vt 0.278544 0.561484
vt 0.278544 0.991108
vt 0.303150 0.561484
vt 0.303150 0.991108
vt 0.327756 0.561484
vt 0.327756 0.991108
vt 0.352362 0.561484
vt 0.352362 0.991108
vt 0.376969 0.561484
vt 0.376969 0.991108
vt 0.401575 0.561484
vt 0.401575 0.991108
vt 0.426181 0.561484
vt 0.426181 0.991108
vt 0.450787 0.561484
vt 0.450787 0.991108
vt 0.475393 0.561484
vt 0.475393 0.991108
vt 0.499999 0.561484
vt 0.499999 0.991108
vt 0.524605 0.561484
vt 0.524605 0.991108
vt 0.549211 0.561484
vt 0.549211 0.991108
vt 0.573818 0.561484
vt 0.573818 0.991108
vt 0.598424 0.561484
vt 0.598424 0.991108
vt 0.623030 0.561484
vt 0.623030 0.991108
vt 0.647636 0.561484
vt 0.647636 0.991108
vt 0.672242 0.561484
vt 0.672242 0.991108
vt 0.696849 0.561484
vt 0.696849 0.991108
vt 0.721455 0.561484
vt 0.721455 0.991108
vt 0.746061 0.561484
vt 0.746061 0.991108
vt 0.770667 0.561484
vt 0.770667 0.991108
vt 0.795273 0.561484
vt 0.795273 0.991108
vt 0.819880 0.561484
vt 0.819880 0.991108
vt 0.844486 0.561484
vt 0.844486 0.991108
vt 0.869092 0.561484
vt 0.869092 0.991108
vt 0.893698 0.561484
vt 0.893698 0.991108
vt 0.918305 0.561484
vt 0.918305 0.991108
vt 0.942911 0.561484
vt 0.942911 0.991108
vt 0.967517 0.561484
vt 0.967517 0.991108
vt 0.992123 0.561484
vt 0.992123 0.991108
vt 0.961184 0.122036
vt 0.966042 0.142272
vt 0.835053 0.157714
vt 0.953220 0.102810
vt 0.942347 0.085065
vt 0.928831 0.069241
vt 0.913006 0.055725
vt 0.895262 0.044851
vt 0.876035 0.036887
vt 0.855800 0.032029
vt 0.835053 0.030396
vt 0.814306 0.032029
vt 0.794070 0.036887
vt 0.774844 0.044851
vt 0.757099 0.055725
vt 0.741275 0.069241
vt 0.727759 0.085065
vt 0.716886 0.102809
vt 0.708922 0.122036
vt 0.704063 0.142272
vt 0.702431 0.163019
vt 0.704063 0.183765
vt 0.708922 0.204001
vt 0.716886 0.223228
vt 0.727759 0.240972
vt 0.741275 0.256797
vt 0.757099 0.270312
vt 0.774844 0.281186
vt 0.794070 0.289150
vt 0.814306 0.294008
vt 0.835053 0.295641
vt 0.855800 0.294008
vt 0.876035 0.289150
vt 0.895262 0.281186
vt 0.913006 0.270312
vt 0.928831 0.256797
vt 0.942347 0.240972
vt 0.953220 0.223228
vt 0.961184 0.204001
vt 0.966042 0.183765
vt 0.967675 0.163019
vt 0.322885 0.185264
vt 0.317027 0.209801
vt 0.164947 0.153674
vt 0.307425 0.233115
vt 0.294314 0.254631
vt 0.278018 0.273820
vt 0.258938 0.290209
vt 0.237543 0.303394
vt 0.214361 0.313051
vt 0.189962 0.318942
vt 0.164947 0.320922
vt 0.139932 0.318942
vt 0.115533 0.313051
vt 0.092351 0.303394
vt 0.070957 0.290209
vt 0.051876 0.273820
vt 0.035580 0.254631
vt 0.022470 0.233115
vt 0.012867 0.209801
vt 0.007010 0.185264
vt 0.005041 0.160107
vt 0.007010 0.134950
vt 0.012867 0.110412
vt 0.022470 0.087098
vt 0.035580 0.065582
vt 0.051876 0.046393
vt 0.070957 0.030005
vt 0.092351 0.016819
vt 0.115533 0.007163
vt 0.139932 0.001272
vt 0.164947 -0.000708
vt 0.189962 0.001272
vt 0.214361 0.007163
vt 0.237543 0.016820
vt 0.258938 0.030005
vt 0.278018 0.046393
vt 0.294314 0.065582
vt 0.307425 0.087098
vt 0.317027 0.110412
vt 0.322885 0.134950
vt 0.324853 0.160107
vn -0.177733 0.000000 -0.984079
vn -0.329491 0.000000 -0.944159
vn -0.329491 0.000000 -0.944159
vn -0.177733 0.000000 -0.984079
vn -0.329491 0.000000 -0.944159
vn -0.473133 0.000000 -0.880991
vn -0.473133 0.000000 -0.880991
vn -0.329491 0.000000 -0.944159
vn -0.473133 0.000000 -0.880991
vn -0.605126 0.000000 -0.796130
vn -0.605126 0.000000 -0.796130
vn -0.473133 0.000000 -0.880991
vn -0.605126 0.000000 -0.796130
vn -0.722218 0.000000 -0.691665
vn -0.722218 0.000000 -0.691665
vn -0.605126 0.000000 -0.796130
vn -0.722218 0.000000 -0.691665
vn -0.821527 0.000000 -0.570170
vn -0.821527 0.000000 -0.570170
vn -0.722218 0.000000 -0.691665
vn -0.821527 0.000000 -0.570170
vn -0.900606 0.000000 -0.434636
vn -0.900606 0.000000 -0.434636
vn -0.821527 0.000000 -0.570170
vn -0.900606 0.000000 -0.434636
vn -0.957510 0.000000 -0.288398
vn -0.957510 0.000000 -0.288398
vn -0.900606 0.000000 -0.434636
vn -0.957510 0.000000 -0.288398
vn -0.990837 0.000000 -0.135061
vn -0.990837 0.000000 -0.135061
vn -0.957510 0.000000 -0.288398
vn -0.990837 0.000000 -0.135061
vn -0.999767 0.000000 0.021604
vn -0.999767 0.000000 0.021604
vn -0.990837 0.000000 -0.135061
vn -0.999767 0.000000 0.021604
vn -0.984078 0.000000 0.177737
vn -0.984078 0.000000 0.177737
vn -0.999767 0.000000 0.021604
vn -0.984078 0.000000 0.177737
vn -0.944159 0.000000 0.329491
vn -0.944159 0.000000 0.329491
vn -0.984078 0.000000 0.177737
vn -0.944159 0.000000 0.329491
vn -0.880991 0.000000 0.473133
vn -0.880991 0.000000 0.473133
vn -0.944159 0.000000 0.329491
vn -0.880991 0.000000 0.473133
vn -0.796130 0.000000 0.605126
vn -0.796130 0.000000 0.605126
vn -0.880991 0.000000 0.473133
vn -0.796130 0.000000 0.605126
vn -0.691665 0.000000 0.722218
vn -0.691665 0.000000 0.722218
vn -0.796130 0.000000 0.605126
vn -0.691665 0.000000 0.722218
vn -0.570170 0.000000 0.821527
vn -0.570170 0.000000 0.821527
vn -0.691665 0.000000 0.722218
vn -0.570170 0.000000 0.821527
vn -0.434636 0.000000 0.900606
vn -0.434636 0.000000 0.900606
vn -0.570170 0.000000 0.821527
vn -0.434636 0.000000 0.900606
vn -0.288398 0.000000 0.957510
vn -0.288398 0.000000 0.957510
vn -0.434636 0.000000 0.900606
vn -0.288398 0.000000 0.957510
vn -0.135060 0.000000 0.990838
vn -0.135060 0.000000 0.990838
vn -0.288398 0.000000 0.957510
vn -0.135060 0.000000 0.990838
vn 0.021604 0.000000 0.999767
vn 0.021604 0.000000 0.999767
vn -0.135060 0.000000 0.990838
vn 0.021604 0.000000 0.999767
vn 0.177736 0.000000 0.984078
vn 0.177736 0.000000 0.984078
vn 0.021604 0.000000 0.999767
vn 0.177736 0.000000 0.984078
vn 0.329491 0.000000 0.944159
vn 0.329491 0.000000 0.944159
vn 0.177736 0.000000 0.984078
vn 0.329491 0.000000 0.944159
vn 0.473133 0.000000 0.880991
vn 0.473133 0.000000 0.880991
vn 0.329491 0.000000 0.944159
vn 0.473133 0.000000 0.880991
vn 0.605126 0.000000 0.796130
vn 0.605126 0.000000 0.796130
vn 0.473133 0.000000 0.880991
vn 0.605126 0.000000 0.796130
vn 0.722218 0.000000 0.691665
vn 0.722218 0.000000 0.691665
vn 0.605126 0.000000 0.796130
vn 0.722218 0.000000 0.691665
vn 0.821526 0.000000 0.570171
vn 0.821526 0.000000 0.570171
vn 0.722218 0.000000 0.691665
vn 0.821526 0.000000 0.570171
vn 0.900606 0.000000 0.434636
vn 0.900606 0.000000 0.434636
vn 0.821526 0.000000 0.570171
vn 0.900606 0.000000 0.434636
vn 0.957511 0.000000 0.288398
vn 0.957511 0.000000 0.288398
vn 0.900606 0.000000 0.434636
vn 0.957511 0.000000 0.288398
vn 0.990838 0.000000 0.135060
vn 0.990838 0.000000 0.135060
vn 0.957511 0.000000 0.288398
vn 0.990838 0.000000 0.135060
vn 0.999767 0.000000 -0.021604
vn 0.999767 0.000000 -0.021604
vn 0.990838 0.000000 0.135060
vn 0.999767 0.000000 -0.021604
vn 0.984078 0.000000 -0.177736
vn 0.984078 0.000000 -0.177736
vn 0.999767 0.000000 -0.021604
vn 0.984078 0.000000 -0.177736
vn 0.944159 0.000000 -0.329491
vn 0.944159 0.000000 -0.329491
vn 0.984078 0.000000 -0.177736
vn 0.944159 0.000000 -0.329491
vn 0.880991 0.000000 -0.473133
vn 0.880991 0.000000 -0.473133
vn 0.944159 0.000000 -0.329491
vn 0.880991 0.000000 -0.473133
vn 0.796130 0.000000 -0.605126
vn 0.796130 0.000000 -0.605126
vn 0.880991 0.000000 -0.473133
vn 0.796130 0.000000 -0.605126
vn 0.691665 0.000000 -0.722218
vn 0.691665 0.000000 -0.722218
vn 0.796130 0.000000 -0.605126
vn 0.691665 0.000000 -0.722218
vn 0.570170 0.000000 -0.821527
vn 0.570170 0.000000 -0.821527
vn 0.691665 0.000000 -0.722218
vn 0.570170 0.000000 -0.821527
vn 0.434635 0.000000 -0.900607
vn 0.434635 0.000000 -0.900607
vn 0.570170 0.000000 -0.821527
vn 0.434635 0.000000 -0.900607
vn 0.288398 0.000000 -0.957511
vn 0.288398 0.000000 -0.957511
vn 0.434635 0.000000 -0.900607
vn 0.288398 0.000000 -0.957511
vn 0.135060 0.000000 -0.990838
vn 0.135060 0.000000 -0.990838
vn 0.288398 0.000000 -0.957511
vn 0.135060 0.000000 -0.990838
vn -0.021602 0.000000 -0.999767
vn -0.021602 0.000000 -0.999767
vn 0.135060 0.000000 -0.990838
vn -0.021602 0.000000 -0.999767
vn -0.177733 0.000000 -0.984079
vn -0.177733 0.000000 -0.984079
vn -0.021602 0.000000 -0.999767
vn 0.000000 -1.000000 0.000000
vn -0.000001 -1.000000 0.000000
vn 0.000000 -1.000000 0.000000
vn 0.000000 -1.000000 0.000000
vn 0.000000 -1.000000 0.000000
vn 0.000000 -1.000000 0.000000
vn 0.000000 -1.000000 0.000000
vn 0.000000 -1.000000 0.000000
vn 0.000000 -1.000000 0.000000
vn 0.000000 -1.000000 0.000000
vn 0.000000 -1.000000 0.000000
vn 0.000000 -1.000000 0.000000
vn 0.000000 -1.000000 0.000000
vn 0.000000 -1.000000 0.000000
vn 0.000000 -1.000000 0.000000
vn 0.000000 -1.000000 0.000000
vn 0.000000 -1.000000 0.000000
vn 0.000000 -1.000000 0.000000
vn 0.000000 -1.000000 0.000000
vn 0.000000 -1.000000 0.000000
vn 0.000000 -1.000000 0.000000
vn 0.000000 -1.000000 0.000000
vn 0.000000 -1.000000 0.000000
vn 0.000000 -1.000000 0.000000
vn 0.000000 -1.000000 0.000000
vn 0.000000 -1.000000 0.000000
vn 0.000000 -1.000000 0.000000
vn 0.000000 -1.000000 0.000000
vn 0.000000 -1.000000 0.000000
vn 0.000000 -1.000000 0.000000
vn 0.000000 -1.000000 0.000000
vn 0.000000 -1.000000 0.000000
vn 0.000000 -1.000000 0.000000
vn 0.000000 -1.000000 0.000000
vn 0.000000 -1.000000 0.000000
vn 0.000000 -1.000000 0.000000
vn 0.000000 -1.000000 0.000000
vn 0.000000 -1.000000 0.000000
vn 0.000000 -1.000000 0.000000
vn 0.000000 -1.000000 0.000000
vn 0.000000 -1.000000 0.000000
vn 0.000000 -1.000000 0.000000
vn 0.000000 -1.000000 0.000000
vn 0.000000 -1.000000 0.000000
vn 0.000000 -1.000000 0.000000
vn 0.000000 -1.000000 0.000000
vn 0.000000 -1.000000 0.000000
vn 0.000000 -1.000000 0.000000
vn 0.000000 -1.000000 0.000000
vn 0.000000 -1.000000 0.000000
vn 0.000000 -1.000000 0.000000
vn 0.000000 -1.000000 0.000000
vn 0.000000 -1.000000 0.000000
vn 0.000000 -1.000000 0.000000
vn 0.000000 -1.000000 0.000000
vn 0.000000 -1.000000 0.000000
vn 0.000000 -1.000000 0.000000
vn 0.000000 -1.000000 0.000000
vn 0.000000 -1.000000 0.000000
vn 0.000000 -1.000000 0.000000
vn 0.000000 -1.000000 0.000000
vn 0.000000 -1.000000 0.000000
vn 0.000000 -1.000000 0.000000
vn 0.000000 -1.000000 0.000000
vn 0.000000 -1.000000 0.000000
vn 0.000000 -1.000000 0.000000
vn 0.000000 -1.000000 0.000000
vn 0.000000 -1.000000 0.000000
vn 0.000000 -1.000000 0.000000
vn 0.000000 -1.000000 0.000000
vn 0.000000 -1.000000 0.000000
vn 0.000000 -1.000000 0.000000
vn 0.000000 -1.000000 0.000000
vn 0.000000 -1.000000 0.000000
vn 0.000000 -1.000000 0.000000
vn 0.000000 -1.000000 0.000000
vn 0.000000 -1.000000 0.000000
vn 0.000000 -1.000000 0.000000
vn 0.000000 -1.000000 0.000000
vn 0.000000 -1.000000 0.000000
vn 0.000000 -1.000000 0.000000
vn 0.000000 -1.000000 0.000000
vn 0.000000 -1.000000 0.000000
vn 0.000000 -1.000000 0.000000
vn 0.000000 -1.000000 0.000000
vn 0.000000 -1.000000 0.000000
vn 0.000000 -1.000000 0.000000
vn 0.000000 -1.000000 0.000000
vn 0.000000 -1.000000 0.000000
vn 0.000000 -1.000000 0.000000
vn 0.000000 -1.000000 0.000000
vn 0.000000 -1.000000 0.000000
vn 0.000000 -1.000000 0.000000
vn 0.000000 -1.000000 0.000000
vn 0.000000 -1.000000 0.000000
vn 0.000000 -1.000000 0.000000
vn 0.000000 -1.000000 0.000000
vn 0.000000 -1.000000 0.000000
vn 0.000000 -1.000000 0.000000
vn 0.000000 -1.000000 0.000000
vn 0.000000 -1.000000 0.000000
vn 0.000000 -1.000000 0.000000
vn 0.000000 -1.000000 0.000000
vn 0.000000 -1.000000 0.000000
vn 0.000000 -1.000000 0.000000
vn 0.000001 -1.000000 -0.000000
vn 0.000000 -1.000000 0.000000
vn 0.000000 -1.000000 0.000000
vn 0.000001 -1.000000 -0.000000
vn 0.000001 -1.000000 -0.000000
vn 0.000000 -1.000000 0.000000
vn 0.000000 -1.000000 0.000000
vn 0.000001 -1.000000 -0.000000
vn 0.000000 -1.000000 0.000000
vn -0.000001 -1.000000 0.000000
vn 0.000000 -1.000000 0.000000
vn 0.000000 -1.000000 0.000000
vn -0.000001 -1.000000 0.000000
vn -0.000001 -1.000000 0.000000
vn 0.000000 -1.000000 0.000000
vn -0.000001 1.000000 0.000000
vn 0.000000 1.000000 -0.000000
vn 0.000000 1.000000 -0.000000
vn 0.000000 1.000000 -0.000000
vn 0.000000 1.000000 -0.000000
vn 0.000000 1.000000 -0.000000
vn 0.000000 1.000000 -0.000000
vn 0.000000 1.000000 -0.000000
vn 0.000000 1.000000 -0.000000
vn 0.000000 1.000000 -0.000000
vn 0.000000 1.000000 -0.000000
vn 0.000000 1.000000 -0.000000
vn 0.000000 1.000000 -0.000000
vn 0.000000 1.000000 -0.000000
vn 0.000000 1.000000 -0.000000
vn 0.000000 1.000000 -0.000000
vn 0.000000 1.000000 -0.000000
vn 0.000000 1.000000 -0.000000
vn 0.000000 1.000000 -0.000000
vn 0.000000 1.000000 -0.000000
vn 0.000000 1.000000 -0.000000
vn 0.000000 1.000000 -0.000000
vn 0.000000 1.000000 -0.000000
vn 0.000000 1.000000 -0.000000
vn 0.000000 1.000000 -0.000000
vn 0.000000 1.000000 -0.000000
vn 0.000000 1.000000 -0.000000
vn 0.000000 1.000000 -0.000000
vn 0.000000 1.000000 -0.000000
vn 0.000000 1.000000 -0.000000
vn 0.000000 1.000000 -0.000000
vn 0.000000 1.000000 -0.000000
vn 0.000000 1.000000 -0.000000
vn 0.000000 1.000000 -0.000000
vn 0.000000 1.000000 -0.000000
vn 0.000000 1.000000 -0.000000
vn 0.000000 1.000000 -0.000000
vn 0.000000 1.000000 -0.000000
vn 0.000000 1.000000 -0.000000
vn 0.000000 1.000000 -0.000000
vn 0.000000 1.000000 -0.000000
vn 0.000000 1.000000 -0.000000
vn 0.000000 1.000000 -0.000000
vn 0.000000 1.000000 -0.000000
vn 0.000000 1.000000 -0.000000
vn 0.000000 1.000000 -0.000000
vn 0.000000 1.000000 -0.000000
vn 0.000000 1.000000 -0.000000
vn 0.000000 1.000000 -0.000000
vn 0.000000 1.000000 -0.000000
vn 0.000000 1.000000 -0.000000
vn 0.000000 1.000000 -0.000000
vn 0.000000 1.000000 -0.000000
vn 0.000000 1.000000 -0.000000
vn 0.000000 1.000000 -0.000000
vn 0.000000 1.000000 -0.000000
vn 0.000000 1.000000 -0.000000
vn 0.000000 1.000000 -0.000000
vn 0.000000 1.000000 -0.000000
vn 0.000000 1.000000 -0.000000
vn 0.000000 1.000000 -0.000000
vn 0.000000 1.000000 -0.000000
vn 0.000000 1.000000 -0.000000
vn 0.000000 1.000000 -0.000000
vn 0.000000 1.000000 -0.000000
vn 0.000000 1.000000 -0.000000
vn 0.000000 1.000000 -0.000000
vn 0.000000 1.000000 -0.000000
vn 0.000000 1.000000 -0.000000
vn 0.000000 1.000000 -0.000000
vn 0.000000 1.000000 -0.000000
vn 0.000000 1.000000 -0.000000
vn 0.000000 1.000000 -0.000000
vn 0.000000 1.000000 -0.000000
vn 0.000000 1.000000 -0.000000
vn 0.000000 1.000000 -0.000000
vn 0.000000 1.000000 -0.000000
vn 0.000000 1.000000 -0.000000
vn 0.000000 1.000000 -0.000000
vn 0.000000 1.000000 -0.000000
vn 0.000000 1.000000 -0.000000
vn 0.000000 1.000000 -0.000000
vn 0.000000 1.000000 -0.000000
vn 0.000000 1.000000 -0.000000
vn 0.000000 1.000000 -0.000000
vn 0.000000 1.000000 -0.000000
vn 0.000000 1.000000 -0.000000
vn 0.000000 1.000000 -0.000000
vn 0.000000 1.000000 -0.000000
vn 0.000000 1.000000 -0.000000
vn 0.000000 1.000000 -0.000000
vn 0.000000 1.000000 -0.000000
vn 0.000000 1.000000 -0.000000
vn 0.000000 1.000000 -0.000000
vn 0.000000 1.000000 -0.000000
vn 0.000000 1.000000 -0.000000
vn 0.000000 1.000000 -0.000000
vn 0.000000 1.000000 -0.000000
vn 0.000000 1.000000 -0.000000
vn 0.000000 1.000000 -0.000000
vn 0.000000 1.000000 -0.000000
vn 0.000000 1.000000 -0.000000
vn 0.000000 1.000000 -0.000000
vn 0.000000 1.000000 -0.000000
vn 0.000000 1.000000 -0.000000
vn 0.000000 1.000000 -0.000000
vn 0.000000 1.000000 -0.000000
vn 0.000000 1.000000 -0.000000
vn 0.000000 1.000000 -0.000000
vn 0.000001 1.000000 -0.000000
vn 0.000000 1.000000 -0.000000
vn 0.000001 1.000000 -0.000000
vn 0.000000 1.000000 -0.000000
vn 0.000000 1.000000 -0.000000
vn 0.000000 1.000000 -0.000000
vn -0.000001 1.000000 0.000000
vn 0.000000 1.000000 -0.000000
vn -0.000001 1.000000 0.000000
vn -0.000001 1.000000 0.000000
vn 0.000000 1.000000 -0.000000
s off
g canned_food_17:pCylinder6
usemtl initialShadingGroup
f 1/1/1 2/2/2 42/3/3 41/4/4
f 2/2/5 3/5/6 43/6/7 42/3/8
f 3/5/9 4/7/10 44/8/11 43/6/12
f 4/7/13 5/9/14 45/10/15 44/8/16
f 5/9/17 6/11/18 46/12/19 45/10/20
f 6/11/21 7/13/22 47/14/23 46/12/24
f 7/13/25 8/15/26 48/16/27 47/14/28
f 8/15/29 9/17/30 49/18/31 48/16/32
f 9/17/33 10/19/34 50/20/35 49/18/36
f 10/19/37 11/21/38 51/22/39 50/20/40
f 11/21/41 12/23/42 52/24/43 51/22/44
f 12/23/45 13/25/46 53/26/47 52/24/48
f 13/25/49 14/27/50 54/28/51 53/26/52
f 14/27/53 15/29/54 55/30/55 54/28/56
f 15/29/57 16/31/58 56/32/59 55/30/60
f 16/31/61 17/33/62 57/34/63 56/32/64
f 17/33/65 18/35/66 58/36/67 57/34/68
f 18/35/69 19/37/70 59/38/71 58/36/72
f 19/37/73 20/39/74 60/40/75 59/38/76
f 20/39/77 21/41/78 61/42/79 60/40/80
f 21/41/81 22/43/82 62/44/83 61/42/84
f 22/43/85 23/45/86 63/46/87 62/44/88
f 23/45/89 24/47/90 64/48/91 63/46/92
f 24/47/93 25/49/94 65/50/95 64/48/96
f 25/49/97 26/51/98 66/52/99 65/50/100
f 26/51/101 27/53/102 67/54/103 66/52/104
f 27/53/105 28/55/106 68/56/107 67/54/108
f 28/55/109 29/57/110 69/58/111 68/56/112
f 29/57/113 30/59/114 70/60/115 69/58/116
f 30/59/117 31/61/118 71/62/119 70/60/120
f 31/61/121 32/63/122 72/64/123 71/62/124
f 32/63/125 33/65/126 73/66/127 72/64/128
f 33/65/129 34/67/130 74/68/131 73/66/132
f 34/67/133 35/69/134 75/70/135 74/68/136
f 35/69/137 36/71/138 76/72/139 75/70/140
f 36/71/141 37/73/142 77/74/143 76/72/144
f 37/73/145 38/75/146 78/76/147 77/74/148
f 38/75/149 39/77/150 79/78/151 78/76/152
f 39/77/153 40/79/154 80/80/155 79/78/156
f 40/79/157 1/81/158 41/82/159 80/80/160
f 2/83/161 1/84/162 81/85/163
f 3/86/164 2/83/165 81/85/166
f 4/87/167 3/86/168 81/85/169
f 5/88/170 4/87/171 81/85/172
f 6/89/173 5/88/174 81/85/175
f 7/90/176 6/89/177 81/85/178
f 8/91/179 7/90/180 81/85/181
f 9/92/182 8/91/183 81/85/184
f 10/93/185 9/92/186 81/85/187
f 11/94/188 10/93/189 81/85/190
f 12/95/191 11/94/192 81/85/193
f 13/96/194 12/95/195 81/85/196
f 14/97/197 13/96/198 81/85/199
f 15/98/200 14/97/201 81/85/202
f 16/99/203 15/98/204 81/85/205
f 17/100/206 16/99/207 81/85/208
f 18/101/209 17/100/210 81/85/211
f 19/102/212 18/101/213 81/85/214
f 20/103/215 19/102/216 81/85/217
f 21/104/218 20/103/219 81/85/220
f 22/105/221 21/104/222 81/85/223
f 23/106/224 22/105/225 81/85/226
f 24/107/227 23/106/228 81/85/229
f 25/108/230 24/107/231 81/85/232
f 26/109/233 25/108/234 81/85/235
f 27/110/236 26/109/237 81/85/238
f 28/111/239 27/110/240 81/85/241
f 29/112/242 28/111/243 81/85/244
f 30/113/245 29/112/246 81/85/247
f 31/114/248 30/113/249 81/85/250
f 32/115/251 31/114/252 81/85/253
f 33/116/254 32/115/255 81/85/256
f 34/117/257 33/116/258 81/85/259
f 35/118/260 34/117/261 81/85/262
f 36/119/263 35/118/264 81/85/265
f 37/120/266 36/119/267 81/85/268
f 38/121/269 37/120/270 81/85/271
f 39/122/272 38/121/273 81/85/274
f 40/123/275 39/122/276 81/85/277
f 1/84/278 40/123/279 81/85/280
f 41/124/281 42/125/282 82/126/283
f 42/125/284 43/127/285 82/126/286
f 43/127/287 44/128/288 82/126/289
f 44/128/290 45/129/291 82/126/292
f 45/129/293 46/130/294 82/126/295
f 46/130/296 47/131/297 82/126/298
f 47/131/299 48/132/300 82/126/301
f 48/132/302 49/133/303 82/126/304
f 49/133/305 50/134/306 82/126/307
f 50/134/308 51/135/309 82/126/310
f 51/135/311 52/136/312 82/126/313
f 52/136/314 53/137/315 82/126/316
f 53/137/317 54/138/318 82/126/319
f 54/138/320 55/139/321 82/126/322
f 55/139/323 56/140/324 82/126/325
f 56/140/326 57/141/327 82/126/328
f 57/141/329 58/142/330 82/126/331
f 58/142/332 59/143/333 82/126/334
f 59/143/335 60/144/336 82/126/337
f 60/144/338 61/145/339 82/126/340
f 61/145/341 62/146/342 82/126/343
f 62/146/344 63/147/345 82/126/346
f 63/147/347 64/148/348 82/126/349
f 64/148/350 65/149/351 82/126/352
f 65/149/353 66/150/354 82/126/355
f 66/150/356 67/151/357 82/126/358
f 67/151/359 68/152/360 82/126/361
f 68/152/362 69/153/363 82/126/364
f 69/153/365 70/154/366 82/126/367
f 70/154/368 71/155/369 82/126/370
f 71/155/371 72/156/372 82/126/373
f 72/156/374 73/157/375 82/126/376
f 73/157/377 74/158/378 82/126/379
f 74/158/380 75/159/381 82/126/382
f 75/159/383 76/160/384 82/126/385
f 76/160/386 77/161/387 82/126/388
f 77/161/389 78/162/390 82/126/391
f 78/162/392 79/163/393 82/126/394
f 79/163/395 80/164/396 82/126/397
f 80/164/398 41/124/399 82/126/400
