# This file uses centimeters as units for non-parametric coordinates.

mtllib Can 13.mtl
g default
v 0.899180 -0.005591 -0.292161
v 0.764889 -0.005591 -0.555724
v 0.555724 -0.005591 -0.764889
v 0.292161 -0.005591 -0.899180
v -0.000000 -0.005591 -0.945454
v -0.292161 -0.005591 -0.899180
v -0.555724 -0.005591 -0.764889
v -0.764888 -0.005591 -0.555724
v -0.899180 -0.005591 -0.292161
v -0.945454 -0.005591 -0.000000
v -0.899180 -0.005591 0.292161
v -0.764888 -0.005591 0.555724
v -0.555724 -0.005591 0.764888
v -0.292161 -0.005591 0.899180
v -0.000000 -0.005591 0.945454
v 0.292161 -0.005591 0.899180
v 0.555724 -0.005591 0.764888
v 0.764888 -0.005591 0.555724
v 0.899180 -0.005591 0.292161
v 0.945454 -0.005591 -0.000000
v 0.899180 2.959675 -0.292161
v 0.764889 2.959675 -0.555724
v 0.555724 2.959675 -0.764889
v 0.292161 2.959675 -0.899180
v -0.000000 2.959675 -0.945454
v -0.292161 2.959675 -0.899180
v -0.555724 2.959675 -0.764889
v -0.764889 2.959675 -0.555724
v -0.899180 2.959675 -0.292161
v -0.945454 2.959675 -0.000000
v -0.899180 2.959675 0.292161
v -0.764888 2.959675 0.555724
v -0.555724 2.959675 0.764888
v -0.292161 2.959675 0.899180
v -0.000000 2.959675 0.945454
v 0.292161 2.959675 0.899180
v 0.555724 2.959675 0.764888
v 0.764888 2.959675 0.555724
v 0.899180 2.959675 0.292161
v 0.945454 2.959675 -0.000000
v -0.000000 -0.005591 -0.000000
v -0.000000 2.959675 -0.000000
vt 0.298281 0.310644
vt 0.324846 0.310600
vt 0.325214 0.682071
vt 0.298650 0.682115
vt 0.268834 0.310694
vt 0.269202 0.682165
vt 0.239386 0.310743
vt 0.239755 0.682214
vt 0.212822 0.310787
vt 0.213191 0.682259
vt 0.332350 0.819698
vt 0.345927 0.310565
vt 0.346296 0.682036
vt 0.332416 0.868441
vt 0.372492 0.310519
vt 0.372861 0.681991
vt 0.401939 0.310470
vt 0.402308 0.681942
vt 0.431387 0.310421
vt 0.515663 0.997717
vt 0.467671 0.307891
vt 0.466553 0.996496
vt 0.347875 0.773323
vt 0.511213 0.309760
vt 0.423330 0.988547
vt 0.348064 0.914779
vt 0.506146 0.312767
vt 0.509292 0.684216
vt 0.535591 0.312346
vt 0.538737 0.683795
vt 0.565037 0.311925
vt 0.568183 0.683373
vt 0.591600 0.311545
vt 0.594746 0.682994
vt 0.418238 0.705152
vt 0.612680 0.311244
vt 0.615826 0.682692
vt 0.466188 0.690029
vt 0.639243 0.310864
vt 0.642390 0.682313
vt 0.668689 0.310443
vt 0.671835 0.681891
vt 0.698134 0.310021
vt 0.701281 0.681470
vt 0.724698 0.309641
vt 0.727844 0.681090
vt 0.745779 0.309339
vt 0.748925 0.680788
vt 0.337600 0.123181
vt 0.355423 0.077362
vt 0.498495 0.154503
vt 0.387063 0.039094
vt 0.335339 0.172065
vt 0.429424 0.012124
vt 0.348861 0.219231
vt 0.481976 -0.001085
vt 0.376843 0.260060
vt 0.532678 0.001406
vt 0.416546 0.290557
vt 0.576614 0.018448
vt 0.377763 0.954176
vt 0.616317 0.048947
vt 0.516627 0.689966
vt 0.644300 0.089774
vt 0.563736 0.296881
vt 0.657821 0.136940
vt 0.606097 0.269912
vt 0.655560 0.185825
vt 0.637737 0.231644
vt 0.650809 0.819302
vt 0.650874 0.868045
vt 0.488985 0.845678
vt 0.635349 0.914422
vt 0.635161 0.772965
vt 0.605755 0.953892
vt 0.605461 0.733569
vt 0.564987 0.982593
vt 0.564617 0.704969
vt 0.377470 0.733851
vt 0.635161 0.772965
vt 0.488985 0.845678
vt 0.488985 0.845678
vt 0.488985 0.845678
vt 0.488985 0.845678
vt 0.488985 0.845678
vt 0.488985 0.845678
vt 0.488985 0.845678
vt 0.488985 0.845678
vt 0.488985 0.845678
vt 0.488985 0.845678
vt 0.488985 0.845678
vt 0.488985 0.845678
vt 0.488985 0.845678
vt 0.488985 0.845678
vt 0.488985 0.845678
vt 0.488985 0.845678
vt 0.488985 0.845678
vt 0.488985 0.845678
vt 0.488985 0.845678
vt 0.605461 0.733569
vt 0.564617 0.704969
vt 0.516627 0.689966
vt 0.466188 0.690029
vt 0.418238 0.705152
vt 0.377470 0.733851
vt 0.347875 0.773323
vt 0.332350 0.819698
vt 0.332416 0.868441
vt 0.348064 0.914779
vt 0.377763 0.954176
vt 0.485520 0.684799
vt 0.423330 0.988547
vt 0.459971 0.682863
vt 0.466553 0.996496
vt 0.430943 0.681893
vt 0.515663 0.997717
vt 0.564987 0.982593
vt 0.605755 0.953892
vt 0.635349 0.914422
vt 0.650874 0.868045
vt 0.650809 0.819302
vt 0.498495 0.154503
vt 0.498495 0.154503
vt 0.498495 0.154503
vt 0.498495 0.154503
vt 0.498495 0.154503
vt 0.496581 0.154503
vt 0.496581 0.154503
vt 0.496581 0.154503
vt 0.498495 0.154503
vt 0.498495 0.154503
vt 0.498495 0.154503
vt 0.498495 0.154503
vt 0.498495 0.154503
vt 0.498495 0.154503
vt 0.498495 0.154503
vt 0.498495 0.154503
vt 0.498495 0.154503
vt 0.498495 0.154503
vt 0.498495 0.154503
vt 0.268834 0.310694
vt 0.387063 0.039094
vt 0.239386 0.310743
vt 0.429424 0.012124
vt 0.481976 -0.001085
vt 0.724698 0.309641
vt 0.532678 0.001406
vt 0.698134 0.310021
vt 0.576614 0.018448
vt 0.668689 0.310443
vt 0.616317 0.048947
vt 0.639243 0.310864
vt 0.644300 0.089774
vt 0.612680 0.311244
vt 0.657821 0.136940
vt 0.591600 0.311545
vt 0.655560 0.185825
vt 0.565037 0.311925
vt 0.637737 0.231644
vt 0.535591 0.312346
vt 0.606097 0.269912
vt 0.506146 0.312767
vt 0.563736 0.296881
vt 0.481690 0.313269
vt 0.481690 0.313269
vt 0.511213 0.309760
vt 0.456119 0.311790
vt 0.456119 0.311790
vt 0.467671 0.307891
vt 0.431387 0.310421
vt 0.416546 0.290557
vt 0.401939 0.310470
vt 0.376843 0.260060
vt 0.372492 0.310519
vt 0.348861 0.219231
vt 0.345927 0.310565
vt 0.335339 0.172065
vt 0.324846 0.310600
vt 0.337600 0.123181
vt 0.298281 0.310644
vt 0.355423 0.077362
vt 0.269202 0.682165
vt 0.239755 0.682214
vt 0.727844 0.681090
vt 0.701281 0.681470
vt 0.671835 0.681891
vt 0.642390 0.682313
vt 0.615826 0.682692
vt 0.594746 0.682994
vt 0.568183 0.683373
vt 0.538737 0.683795
vt 0.509292 0.684216
vt 0.485520 0.684799
vt 0.459971 0.682863
vt 0.430943 0.681893
vt 0.402308 0.681942
vt 0.372861 0.681991
vt 0.346296 0.682036
vt 0.325214 0.682071
vt 0.298650 0.682115
vn 0.951057 0.000000 -0.309016
vn 0.809017 -0.000000 -0.587785
vn 0.809017 -0.000000 -0.587785
vn 0.951057 0.000000 -0.309016
vn 0.587785 -0.000000 -0.809017
vn 0.587785 -0.000000 -0.809017
vn 0.309017 0.000000 -0.951057
vn 0.309017 0.000000 -0.951057
vn -0.000000 0.000000 -1.000000
vn -0.000000 0.000000 -1.000000
vn -0.309017 -0.000000 -0.951057
vn -0.309017 -0.000000 -0.951057
vn -0.587785 -0.000000 -0.809017
vn -0.587786 -0.000000 -0.809017
vn -0.809017 0.000000 -0.587785
vn -0.809017 0.000000 -0.587785
vn -0.951057 0.000000 -0.309017
vn -0.951057 0.000000 -0.309017
vn -1.000000 0.000000 -0.000000
vn -1.000000 0.000000 -0.000000
vn -0.951057 0.000000 0.309017
vn -0.951057 0.000000 0.309017
vn -0.809017 -0.000000 0.587785
vn -0.809017 -0.000000 0.587785
vn -0.587785 0.000000 0.809017
vn -0.587785 0.000000 0.809017
vn -0.309017 0.000000 0.951057
vn -0.309017 0.000000 0.951057
vn 0.000000 0.000000 1.000000
vn 0.000000 0.000000 1.000000
vn 0.309017 -0.000000 0.951057
vn 0.309017 -0.000000 0.951057
vn 0.587785 -0.000000 0.809017
vn 0.587785 -0.000000 0.809017
vn 0.809017 -0.000000 0.587785
vn 0.809017 -0.000000 0.587785
vn 0.951057 -0.000000 0.309017
vn 0.951057 -0.000000 0.309017
vn 1.000000 -0.000000 0.000001
vn 1.000000 -0.000000 0.000001
vn 0.000000 -1.000000 -0.000000
vn 0.000000 -1.000000 0.000000
vn 0.000000 -1.000000 -0.000000
vn 0.000000 -1.000000 -0.000000
vn 0.000000 -1.000000 0.000000
vn 0.000000 -1.000000 0.000000
vn 0.000000 -1.000000 -0.000000
vn 0.000000 -1.000000 -0.000000
vn 0.000000 -1.000000 0.000000
vn 0.000000 -1.000000 0.000000
vn 0.000000 -1.000000 0.000000
vn 0.000000 -1.000000 0.000000
vn 0.000000 -1.000000 0.000000
vn 0.000000 -1.000000 0.000000
vn 0.000000 -1.000000 -0.000000
vn 0.000000 -1.000000 -0.000000
vn 0.000000 -1.000000 -0.000000
vn 0.000000 -1.000000 -0.000000
vn 0.000000 -1.000000 0.000000
vn 0.000000 -1.000000 0.000000
vn 0.000000 -1.000000 0.000000
vn 0.000000 1.000000 0.000000
vn 0.000000 1.000000 0.000000
vn 0.000000 1.000000 0.000000
vn 0.000000 1.000000 0.000000
vn 0.000000 1.000000 0.000000
vn 0.000000 1.000000 0.000000
vn 0.000000 1.000000 -0.000000
vn 0.000000 1.000000 0.000000
vn 0.000000 1.000000 0.000000
vn 0.000000 1.000000 0.000000
vn 0.000000 1.000000 0.000000
vn 0.000000 1.000000 0.000000
vn 0.000000 1.000000 0.000000
vn 0.000000 1.000000 0.000000
vn 0.000000 1.000000 0.000000
vn 0.000000 1.000000 0.000000
vn 0.000000 1.000000 -0.000000
vn 0.000000 1.000000 -0.000000
vn 0.000000 1.000000 0.000000
vn 0.000000 1.000000 0.000000
vn 0.000000 1.000000 0.000000
s 1
g pCylinder1
usemtl lambert3SG
f 1/180/1 2/2/2 22/199/3 21/4/4
f 2/178/2 3/12/5 23/198/6 22/3/3
f 3/176/5 4/15/7 24/197/8 23/13/6
f 4/174/7 5/17/9 25/196/10 24/16/8
f 5/172/9 6/19/11 26/195/12 25/18/10
f 6/170/11 7/167/13 27/194/14 26/115/12
f 7/168/13 8/164/15 28/193/16 27/113/14
f 8/165/15 9/27/17 29/192/18 28/111/16
f 9/162/17 10/29/19 30/191/20 29/28/18
f 10/160/19 11/31/21 31/190/22 30/30/20
f 11/158/21 12/33/23 32/189/24 31/32/22
f 12/156/23 13/36/25 33/188/26 32/34/24
f 13/154/25 14/39/27 34/187/28 33/37/26
f 14/152/27 15/41/29 35/186/30 34/40/28
f 15/150/29 16/43/31 36/185/32 35/42/30
f 16/148/31 17/45/33 37/184/34 36/44/32
f 17/146/33 18/47/35 38/48/36 37/46/34
f 18/9/35 19/7/37 39/183/38 38/10/36
f 19/143/37 20/5/39 40/182/40 39/8/38
f 20/141/39 1/1/1 21/200/4 40/6/40
s 2
f 2/49/41 1/181/42 41/122/43
f 3/53/44 2/179/41 41/123/43
f 4/55/45 3/177/44 41/124/43
f 5/57/46 4/175/45 41/125/43
f 6/59/47 5/173/46 41/126/43
f 7/21/48 6/171/47 41/127/43
f 8/24/49 7/169/48 41/128/43
f 9/65/50 8/166/49 41/129/43
f 10/67/51 9/163/50 41/130/43
f 11/69/52 10/161/51 41/131/43
f 12/68/53 11/159/52 41/132/43
f 13/66/54 12/157/53 41/133/43
f 14/64/55 13/155/54 41/134/43
f 15/62/56 14/153/55 41/135/43
f 16/60/57 15/151/56 41/136/43
f 17/58/58 16/149/57 41/137/43
f 18/56/59 17/147/58 41/138/43
f 19/54/60 18/145/59 41/139/43
f 20/52/61 19/144/60 41/140/43
f 1/50/42 20/142/61 41/51/43
s 3
f 21/70/62 22/120/63 42/98/64
f 22/71/63 23/119/65 42/97/64
f 23/73/65 24/118/66 42/96/64
f 24/75/66 25/117/67 42/95/64
f 25/77/67 26/116/68 42/94/64
f 26/20/68 27/114/69 42/93/64
f 27/22/69 28/112/70 42/92/64
f 28/25/70 29/110/71 42/91/64
f 29/61/71 30/109/72 42/90/64
f 30/26/72 31/108/73 42/89/64
f 31/14/73 32/107/74 42/88/64
f 32/11/74 33/106/75 42/87/64
f 33/23/75 34/105/76 42/86/64
f 34/79/76 35/104/77 42/85/64
f 35/35/77 36/103/78 42/84/64
f 36/38/78 37/102/79 42/83/64
f 37/63/79 38/101/80 42/82/64
f 38/78/80 39/100/81 42/81/64
f 39/76/81 40/80/82 42/72/64
f 40/74/82 21/121/62 42/99/64
