# This file uses centimeters as units for non-parametric coordinates.

mtllib canned_food_5.mtl
g default
v 0.089787 -0.003754 0.591800
v 0.184487 -0.003695 0.538735
v 0.259758 -0.003585 0.456419
v 0.308232 -0.003430 0.352835
v 0.325173 -0.003255 0.238099
v 0.308907 -0.003065 0.123495
v 0.261038 -0.002890 0.020201
v 0.186248 -0.002738 -0.061651
v 0.091859 -0.002631 -0.114069
v -0.012890 -0.002578 -0.131858
v -0.117746 -0.002581 -0.113347
v -0.212445 -0.002640 -0.060300
v -0.287711 -0.002751 0.021969
v -0.336188 -0.002904 0.125586
v -0.353120 -0.003081 0.240306
v -0.336861 -0.003272 0.354899
v -0.288993 -0.003446 0.458149
v -0.214203 -0.003598 0.540015
v -0.119815 -0.003704 0.592418
v -0.015064 -0.003757 0.610212
v 0.089591 0.848237 0.590356
v 0.184290 0.848294 0.537310
v 0.259558 0.848405 0.455043
v 0.308034 0.848559 0.351391
v 0.324966 0.848736 0.236703
v 0.308707 0.848926 0.122112
v 0.260840 0.849102 0.018866
v 0.186049 0.849252 -0.063008
v 0.091660 0.849358 -0.115407
v -0.013090 0.849412 -0.133203
v -0.117942 0.849409 -0.114790
v -0.212641 0.849350 -0.061725
v -0.287911 0.849240 0.020592
v -0.336387 0.849085 0.124178
v -0.353327 0.848909 0.238910
v -0.337061 0.848720 0.353517
v -0.289192 0.848545 0.456809
v -0.214403 0.848393 0.538662
v -0.120014 0.848285 0.591078
v -0.015264 0.848232 0.608867
v -0.013978 -0.003169 0.239203
v -0.014176 0.848824 0.237806
vt 0.910203 0.487587
vt 0.965840 0.487587
vt 0.965840 0.995342
vt 0.910203 0.995342
vt 1.004604 0.487587
vt 1.004604 0.995342
vt 0.005079 0.487587
vt 0.053924 0.487587
vt 0.053924 0.995342
vt 0.005079 0.995342
vt 0.043544 0.487587
vt 0.043544 0.995342
vt 0.097689 0.487587
vt 0.097689 0.995342
vt 0.184669 0.483212
vt 0.184669 0.990967
vt 0.223433 0.483212
vt 0.223433 0.990967
vt 0.226367 0.482493
vt 0.275212 0.482493
vt 0.275212 0.990248
vt 0.226367 0.990248
vt 0.329357 0.482493
vt 0.329357 0.990248
vt 0.383502 0.482493
vt 0.383502 0.990248
vt 0.435743 0.482493
vt 0.435743 0.990248
vt 0.474506 0.482493
vt 0.474506 0.990248
vt 0.474803 0.483921
vt 0.523648 0.483921
vt 0.523648 0.991675
vt 0.474803 0.991675
vt 0.618545 0.480525
vt 0.618545 0.988280
vt 0.677784 0.492411
vt 0.677784 1.000166
vt 0.726629 0.492411
vt 0.726629 1.000166
vt 0.714305 0.487587
vt 0.753069 0.487587
vt 0.753069 0.995342
vt 0.714305 0.995342
vt 0.801914 0.487587
vt 0.801914 0.995342
vt 0.856058 0.487587
vt 0.856058 0.995342
vt 0.071529 0.351885
vt 0.043805 0.300329
vt 0.229440 0.243178
vt 0.114711 0.392801
vt 0.169123 0.419070
vt 0.229440 0.428122
vt 0.289756 0.419070
vt 0.344168 0.392801
vt 0.387350 0.351885
vt 0.415074 0.300329
vt 0.424627 0.243178
vt 0.415074 0.186028
vt 0.387350 0.134471
vt 0.344168 0.093556
vt 0.289756 0.067287
vt 0.229440 0.058235
vt 0.169123 0.067287
vt 0.114711 0.093556
vt 0.071530 0.134471
vt 0.043805 0.186028
vt 0.034252 0.243178
vt 0.912863 0.295113
vt 0.883856 0.349622
vt 0.718634 0.234688
vt 0.838675 0.392881
vt 0.781743 0.420655
vt 0.718634 0.430225
vt 0.655525 0.420655
vt 0.598594 0.392881
vt 0.553413 0.349622
vt 0.524405 0.295112
vt 0.514410 0.234688
vt 0.524405 0.174264
vt 0.553413 0.119755
vt 0.598594 0.076496
vt 0.655525 0.048722
vt 0.718634 0.039151
vt 0.781743 0.048722
vt 0.838675 0.076496
vt 0.883855 0.119755
vt 0.912863 0.174264
vt 0.922859 0.234688
vn 0.337309 0.001639 0.941393
vn 0.622799 0.001447 0.782381
vn 0.623061 0.001447 0.782172
vn 0.337441 0.001639 0.941345
vn 0.622799 0.001447 0.782381
vn 0.832322 0.001107 0.554291
vn 0.832580 0.001106 0.553904
vn 0.623061 0.001447 0.782172
vn 0.832322 0.001107 0.554291
vn 0.957851 0.000701 0.287265
vn 0.958011 0.000701 0.286731
vn 0.832580 0.001106 0.553904
vn 0.957851 0.000701 0.287265
vn 0.999995 0.000246 0.003233
vn 0.999997 0.000245 0.002642
vn 0.958011 0.000701 0.286731
vn 0.999995 0.000246 0.003233
vn 0.959388 -0.000225 -0.282089
vn 0.959218 -0.000226 -0.282666
vn 0.999997 0.000245 0.002642
vn 0.959388 -0.000225 -0.282089
vn 0.833790 -0.000681 -0.552081
vn 0.833477 -0.000681 -0.552553
vn 0.959218 -0.000226 -0.282666
vn 0.833790 -0.000681 -0.552081
vn 0.621856 -0.001093 -0.783131
vn 0.621474 -0.001093 -0.783434
vn 0.833477 -0.000681 -0.552553
vn 0.621856 -0.001093 -0.783131
vn 0.332622 -0.001409 -0.943059
vn 0.332317 -0.001411 -0.943167
vn 0.621474 -0.001093 -0.783434
vn 0.332622 -0.001409 -0.943059
vn -0.003142 -0.001606 -0.999994
vn -0.003244 -0.001606 -0.999994
vn 0.332317 -0.001411 -0.943167
vn -0.003142 -0.001606 -0.999994
vn -0.337444 -0.001640 -0.941344
vn -0.337312 -0.001640 -0.941392
vn -0.003244 -0.001606 -0.999994
vn -0.337444 -0.001640 -0.941344
vn -0.623071 -0.001448 -0.782164
vn -0.622809 -0.001448 -0.782373
vn -0.337312 -0.001640 -0.941392
vn -0.623071 -0.001448 -0.782164
vn -0.832561 -0.001102 -0.553933
vn -0.832303 -0.001104 -0.554320
vn -0.622809 -0.001448 -0.782373
vn -0.832561 -0.001102 -0.553933
vn -0.958009 -0.000696 -0.286739
vn -0.957851 -0.000697 -0.287266
vn -0.832303 -0.001104 -0.554320
vn -0.958009 -0.000696 -0.286739
vn -0.999997 -0.000244 -0.002641
vn -0.999995 -0.000244 -0.003232
vn -0.957851 -0.000697 -0.287266
vn -0.999997 -0.000244 -0.002641
vn -0.959220 0.000226 0.282662
vn -0.959389 0.000226 0.282085
vn -0.999995 -0.000244 -0.003232
vn -0.959220 0.000226 0.282662
vn -0.833474 0.000682 0.552559
vn -0.833787 0.000681 0.552086
vn -0.959389 0.000226 0.282085
vn -0.833474 0.000682 0.552559
vn -0.621466 0.001093 0.783440
vn -0.621848 0.001092 0.783138
vn -0.833787 0.000681 0.552086
vn -0.621466 0.001093 0.783440
vn -0.332317 0.001411 0.943167
vn -0.332622 0.001411 0.943059
vn -0.621848 0.001092 0.783138
vn -0.332317 0.001411 0.943167
vn 0.003249 0.001607 0.999993
vn 0.003148 0.001607 0.999994
vn -0.332622 0.001411 0.943059
vn 0.003249 0.001607 0.999993
vn 0.337309 0.001639 0.941393
vn 0.337441 0.001639 0.941345
vn 0.003148 0.001607 0.999994
vn -0.000266 -0.999999 -0.001582
vn -0.000259 -0.999999 -0.001583
vn -0.000255 -0.999999 -0.001593
vn -0.000254 -0.999999 -0.001595
vn -0.000266 -0.999999 -0.001582
vn -0.000255 -0.999999 -0.001593
vn -0.000250 -0.999999 -0.001589
vn -0.000254 -0.999999 -0.001595
vn -0.000255 -0.999999 -0.001593
vn -0.000257 -0.999999 -0.001594
vn -0.000250 -0.999999 -0.001589
vn -0.000255 -0.999999 -0.001593
vn -0.000251 -0.999999 -0.001600
vn -0.000257 -0.999999 -0.001594
vn -0.000255 -0.999999 -0.001593
vn -0.000256 -0.999999 -0.001597
vn -0.000251 -0.999999 -0.001600
vn -0.000255 -0.999999 -0.001593
vn -0.000257 -0.999999 -0.001602
vn -0.000256 -0.999999 -0.001597
vn -0.000255 -0.999999 -0.001593
vn -0.000243 -0.999999 -0.001596
vn -0.000257 -0.999999 -0.001602
vn -0.000255 -0.999999 -0.001593
vn -0.000239 -0.999999 -0.001594
vn -0.000243 -0.999999 -0.001596
vn -0.000255 -0.999999 -0.001593
vn -0.000259 -0.999999 -0.001589
vn -0.000239 -0.999999 -0.001594
vn -0.000255 -0.999999 -0.001593
vn -0.000272 -0.999999 -0.001587
vn -0.000259 -0.999999 -0.001589
vn -0.000255 -0.999999 -0.001593
vn -0.000263 -0.999999 -0.001596
vn -0.000272 -0.999999 -0.001587
vn -0.000255 -0.999999 -0.001593
vn -0.000260 -0.999999 -0.001594
vn -0.000263 -0.999999 -0.001596
vn -0.000255 -0.999999 -0.001593
vn -0.000264 -0.999999 -0.001603
vn -0.000260 -0.999999 -0.001594
vn -0.000255 -0.999999 -0.001593
vn -0.000256 -0.999999 -0.001601
vn -0.000264 -0.999999 -0.001603
vn -0.000255 -0.999999 -0.001593
vn -0.000258 -0.999999 -0.001593
vn -0.000256 -0.999999 -0.001601
vn -0.000255 -0.999999 -0.001593
vn -0.000251 -0.999999 -0.001593
vn -0.000258 -0.999999 -0.001593
vn -0.000255 -0.999999 -0.001593
vn -0.000241 -0.999999 -0.001585
vn -0.000251 -0.999999 -0.001593
vn -0.000255 -0.999999 -0.001593
vn -0.000245 -0.999999 -0.001585
vn -0.000241 -0.999999 -0.001585
vn -0.000255 -0.999999 -0.001593
vn -0.000259 -0.999999 -0.001583
vn -0.000245 -0.999999 -0.001585
vn -0.000255 -0.999999 -0.001593
vn 0.000259 0.999999 0.001589
vn 0.000272 0.999999 0.001587
vn 0.000256 0.999999 0.001593
vn 0.000272 0.999999 0.001587
vn 0.000262 0.999999 0.001597
vn 0.000256 0.999999 0.001593
vn 0.000262 0.999999 0.001597
vn 0.000260 0.999999 0.001594
vn 0.000256 0.999999 0.001593
vn 0.000260 0.999999 0.001594
vn 0.000264 0.999999 0.001601
vn 0.000256 0.999999 0.001593
vn 0.000264 0.999999 0.001601
vn 0.000257 0.999999 0.001601
vn 0.000256 0.999999 0.001593
vn 0.000257 0.999999 0.001601
vn 0.000258 0.999999 0.001594
vn 0.000256 0.999999 0.001593
vn 0.000258 0.999999 0.001594
vn 0.000251 0.999999 0.001593
vn 0.000256 0.999999 0.001593
vn 0.000251 0.999999 0.001593
vn 0.000240 0.999999 0.001585
vn 0.000256 0.999999 0.001593
vn 0.000240 0.999999 0.001585
vn 0.000245 0.999999 0.001585
vn 0.000256 0.999999 0.001593
vn 0.000245 0.999999 0.001585
vn 0.000259 0.999999 0.001583
vn 0.000256 0.999999 0.001593
vn 0.000259 0.999999 0.001583
vn 0.000267 0.999999 0.001581
vn 0.000256 0.999999 0.001593
vn 0.000267 0.999999 0.001581
vn 0.000256 0.999999 0.001594
vn 0.000256 0.999999 0.001593
vn 0.000256 0.999999 0.001594
vn 0.000251 0.999999 0.001591
vn 0.000256 0.999999 0.001593
vn 0.000251 0.999999 0.001591
vn 0.000257 0.999999 0.001594
vn 0.000256 0.999999 0.001593
vn 0.000257 0.999999 0.001594
vn 0.000252 0.999999 0.001600
vn 0.000256 0.999999 0.001593
vn 0.000252 0.999999 0.001600
vn 0.000256 0.999999 0.001597
vn 0.000256 0.999999 0.001593
vn 0.000256 0.999999 0.001597
vn 0.000258 0.999999 0.001602
vn 0.000256 0.999999 0.001593
vn 0.000258 0.999999 0.001602
vn 0.000244 0.999999 0.001597
vn 0.000256 0.999999 0.001593
vn 0.000244 0.999999 0.001597
vn 0.000239 0.999999 0.001594
vn 0.000256 0.999999 0.001593
vn 0.000239 0.999999 0.001594
vn 0.000259 0.999999 0.001589
vn 0.000256 0.999999 0.001593
s off
g canned_food_5:pCylinder1
usemtl initialShadingGroup
f 1/1/1 2/2/2 22/3/3 21/4/4
f 2/2/5 3/5/6 23/6/7 22/3/8
f 3/7/9 4/8/10 24/9/11 23/10/12
f 4/8/13 5/11/14 25/12/15 24/9/16
f 5/11/17 6/13/18 26/14/19 25/12/20
f 6/13/21 7/15/22 27/16/23 26/14/24
f 7/15/25 8/17/26 28/18/27 27/16/28
f 8/19/29 9/20/30 29/21/31 28/22/32
f 9/20/33 10/23/34 30/24/35 29/21/36
f 10/23/37 11/25/38 31/26/39 30/24/40
f 11/25/41 12/27/42 32/28/43 31/26/44
f 12/27/45 13/29/46 33/30/47 32/28/48
f 13/31/49 14/32/50 34/33/51 33/34/52
f 14/32/53 15/35/54 35/36/55 34/33/56
f 15/35/57 16/37/58 36/38/59 35/36/60
f 16/37/61 17/39/62 37/40/63 36/38/64
f 17/41/65 18/42/66 38/43/67 37/44/68
f 18/42/69 19/45/70 39/46/71 38/43/72
f 19/45/73 20/47/74 40/48/75 39/46/76
f 20/47/77 1/1/78 21/4/79 40/48/80
f 2/49/81 1/50/82 41/51/83
f 3/52/84 2/49/85 41/51/86
f 4/53/87 3/52/88 41/51/89
f 5/54/90 4/53/91 41/51/92
f 6/55/93 5/54/94 41/51/95
f 7/56/96 6/55/97 41/51/98
f 8/57/99 7/56/100 41/51/101
f 9/58/102 8/57/103 41/51/104
f 10/59/105 9/58/106 41/51/107
f 11/60/108 10/59/109 41/51/110
f 12/61/111 11/60/112 41/51/113
f 13/62/114 12/61/115 41/51/116
f 14/63/117 13/62/118 41/51/119
f 15/64/120 14/63/121 41/51/122
f 16/65/123 15/64/124 41/51/125
f 17/66/126 16/65/127 41/51/128
f 18/67/129 17/66/130 41/51/131
f 19/68/132 18/67/133 41/51/134
f 20/69/135 19/68/136 41/51/137
f 1/50/138 20/69/139 41/51/140
f 21/70/141 22/71/142 42/72/143
f 22/71/144 23/73/145 42/72/146
f 23/73/147 24/74/148 42/72/149
f 24/74/150 25/75/151 42/72/152
f 25/75/153 26/76/154 42/72/155
f 26/76/156 27/77/157 42/72/158
f 27/77/159 28/78/160 42/72/161
f 28/78/162 29/79/163 42/72/164
f 29/79/165 30/80/166 42/72/167
f 30/80/168 31/81/169 42/72/170
f 31/81/171 32/82/172 42/72/173
f 32/82/174 33/83/175 42/72/176
f 33/83/177 34/84/178 42/72/179
f 34/84/180 35/85/181 42/72/182
f 35/85/183 36/86/184 42/72/185
f 36/86/186 37/87/187 42/72/188
f 37/87/189 38/88/190 42/72/191
f 38/88/192 39/89/193 42/72/194
f 39/89/195 40/90/196 42/72/197
f 40/90/198 21/70/199 42/72/200
