# This file uses centimeters as units for non-parametric coordinates.

mtllib canned_food_10.mtl
g default
v 0.302456 0.028462 -0.122426
v 0.261755 0.028462 -0.205779
v 0.197289 0.028462 -0.272473
v 0.115369 0.028462 -0.315983
v 0.024012 0.028462 -0.332048
v -0.067837 0.028462 -0.319096
v -0.151189 0.028462 -0.278395
v -0.217884 0.028462 -0.213929
v -0.261394 0.028462 -0.132007
v -0.277457 0.028462 -0.040652
v -0.264507 0.028462 0.051198
v -0.223806 0.028462 0.134549
v -0.159340 0.028462 0.201244
v -0.077418 0.028462 0.244754
v 0.013937 0.028462 0.260819
v 0.105787 0.028462 0.247867
v 0.189138 0.028462 0.207166
v 0.255833 0.028462 0.142700
v 0.299343 0.028462 0.060780
v 0.315408 0.028462 -0.030577
v 0.302456 1.023745 -0.122426
v 0.261755 1.023745 -0.205779
v 0.197289 1.023745 -0.272473
v 0.115369 1.023745 -0.315983
v 0.024012 1.023745 -0.332048
v -0.067837 1.023745 -0.319096
v -0.151189 1.023745 -0.278395
v -0.217884 1.023745 -0.213929
v -0.261394 1.023745 -0.132007
v -0.277457 1.023745 -0.040652
v -0.264507 1.023745 0.051198
v -0.223806 1.023745 0.134549
v -0.159340 1.023745 0.201244
v -0.077418 1.023745 0.244754
v 0.013937 1.023745 0.260819
v 0.105787 1.023745 0.247867
v 0.189138 1.023745 0.207166
v 0.255833 1.023745 0.142700
v 0.299343 1.023745 0.060780
v 0.315408 1.023745 -0.030577
v 0.018975 0.079936 -0.035615
v 0.018975 0.972270 -0.035615
vt 0.240364 0.005544
vt 0.266327 0.005544
vt 0.240364 0.995396
vt 0.266327 0.995396
vt 0.292291 0.005544
vt 0.292291 0.995396
vt 0.318255 0.005544
vt 0.318255 0.995396
vt 0.344218 0.005544
vt 0.344218 0.995396
vt 0.370182 0.005544
vt 0.370182 0.995396
vt 0.396145 0.005544
vt 0.396145 0.995396
vt 0.422109 0.005544
vt 0.422109 0.995396
vt 0.448073 0.005544
vt 0.448073 0.995396
vt 0.474036 0.005544
vt 0.474036 0.995396
vt 0.500000 0.005544
vt 0.500000 0.995396
vt 0.525963 0.005544
vt 0.525963 0.995396
vt 0.551927 0.005544
vt 0.551927 0.995396
vt 0.577891 0.005544
vt 0.577891 0.995396
vt 0.603854 0.005544
vt 0.603854 0.995396
vt 0.629818 0.005544
vt 0.629818 0.995396
vt 0.655782 0.005544
vt 0.655782 0.995396
vt 0.681745 0.005544
vt 0.681745 0.995396
vt 0.707709 0.005544
vt 0.707709 0.995396
vt 0.733672 0.005544
vt 0.733672 0.995396
vt 0.759636 0.005544
vt 0.759636 0.995396
vt 0.980040 0.210051
vt 0.996643 0.347817
vt 0.885473 0.480765
vt 0.954180 0.100718
vt 0.921595 0.030523
vt 0.885473 0.006335
vt 0.849352 0.030523
vt 0.816767 0.100718
vt 0.790907 0.210051
vt 0.774304 0.347817
vt 0.768583 0.500533
vt 0.774304 0.653249
vt 0.790907 0.791015
vt 0.816767 0.900348
vt 0.849352 0.970543
vt 0.885473 0.994731
vt 0.921595 0.970543
vt 0.954180 0.900348
vt 0.980040 0.791015
vt 0.996643 0.653249
vt 1.002364 0.500533
vt 0.233277 0.655646
vt 0.216027 0.793275
vt 0.117780 0.483335
vt 0.189161 0.902498
vt 0.155307 0.972623
vt 0.117780 0.996786
vt 0.080253 0.972623
vt 0.046400 0.902498
vt 0.019533 0.793275
vt 0.002284 0.655646
vt -0.003660 0.503084
vt 0.002284 0.350521
vt 0.019533 0.212892
vt 0.046400 0.103669
vt 0.080253 0.033544
vt 0.117780 0.009381
vt 0.155307 0.033544
vt 0.189161 0.103669
vt 0.216027 0.212892
vt 0.233277 0.350521
vt 0.239220 0.503084
vn 0.956170 0.000000 -0.292812
vn 0.818887 0.000000 -0.573955
vn 0.956170 0.000000 -0.292812
vn 0.956170 0.000000 -0.292812
vn 0.818887 0.000000 -0.573955
vn 0.818887 0.000000 -0.573955
vn 0.818887 0.000000 -0.573955
vn 0.601446 0.000000 -0.798913
vn 0.818887 0.000000 -0.573955
vn 0.818887 0.000000 -0.573955
vn 0.601446 0.000000 -0.798913
vn 0.601446 0.000000 -0.798913
vn 0.601446 0.000000 -0.798913
vn 0.325131 0.000000 -0.945669
vn 0.601446 0.000000 -0.798913
vn 0.601446 0.000000 -0.798913
vn 0.325131 0.000000 -0.945669
vn 0.325131 0.000000 -0.945669
vn 0.325131 0.000000 -0.945669
vn 0.016991 0.000000 -0.999856
vn 0.325131 0.000000 -0.945669
vn 0.325131 0.000000 -0.945669
vn 0.016991 0.000000 -0.999856
vn 0.016991 0.000000 -0.999856
vn 0.016991 0.000000 -0.999856
vn -0.292813 0.000000 -0.956170
vn 0.016991 0.000000 -0.999856
vn 0.016991 0.000000 -0.999856
vn -0.292813 0.000000 -0.956170
vn -0.292813 0.000000 -0.956170
vn -0.292813 0.000000 -0.956170
vn -0.573955 0.000000 -0.818887
vn -0.292813 0.000000 -0.956170
vn -0.292813 0.000000 -0.956170
vn -0.573955 0.000000 -0.818887
vn -0.573955 0.000000 -0.818887
vn -0.573955 0.000000 -0.818887
vn -0.798913 0.000000 -0.601446
vn -0.573955 0.000000 -0.818887
vn -0.573955 0.000000 -0.818887
vn -0.798913 0.000000 -0.601446
vn -0.798913 0.000000 -0.601446
vn -0.798913 0.000000 -0.601446
vn -0.945669 0.000000 -0.325131
vn -0.798913 0.000000 -0.601446
vn -0.798913 0.000000 -0.601446
vn -0.945669 0.000000 -0.325131
vn -0.945669 0.000000 -0.325132
vn -0.945669 0.000000 -0.325131
vn -0.999856 0.000000 -0.016991
vn -0.945669 0.000000 -0.325132
vn -0.945669 0.000000 -0.325132
vn -0.999856 0.000000 -0.016991
vn -0.999856 0.000000 -0.016991
vn -0.999856 0.000000 -0.016991
vn -0.956170 0.000000 0.292813
vn -0.999856 0.000000 -0.016991
vn -0.999856 0.000000 -0.016991
vn -0.956170 0.000000 0.292813
vn -0.956170 0.000000 0.292813
vn -0.956170 0.000000 0.292813
vn -0.818887 0.000000 0.573955
vn -0.956170 0.000000 0.292813
vn -0.956170 0.000000 0.292813
vn -0.818887 0.000000 0.573955
vn -0.818887 0.000000 0.573955
vn -0.818887 0.000000 0.573955
vn -0.601446 0.000000 0.798913
vn -0.818887 0.000000 0.573955
vn -0.818887 0.000000 0.573955
vn -0.601446 0.000000 0.798913
vn -0.601446 0.000000 0.798913
vn -0.601446 0.000000 0.798913
vn -0.325131 0.000000 0.945669
vn -0.601446 0.000000 0.798913
vn -0.601446 0.000000 0.798913
vn -0.325131 0.000000 0.945669
vn -0.325131 0.000000 0.945669
vn -0.325131 0.000000 0.945669
vn -0.016991 0.000000 0.999856
vn -0.325131 0.000000 0.945669
vn -0.325131 0.000000 0.945669
vn -0.016991 0.000000 0.999856
vn -0.016991 0.000000 0.999856
vn -0.016991 0.000000 0.999856
vn 0.292813 0.000000 0.956170
vn -0.016991 0.000000 0.999856
vn -0.016991 0.000000 0.999856
vn 0.292813 0.000000 0.956170
vn 0.292813 0.000000 0.956170
vn 0.292813 0.000000 0.956170
vn 0.573955 0.000000 0.818887
vn 0.292813 0.000000 0.956170
vn 0.292813 0.000000 0.956170
vn 0.573955 0.000000 0.818887
vn 0.573955 0.000000 0.818887
vn 0.573955 0.000000 0.818887
vn 0.798913 0.000000 0.601446
vn 0.573955 0.000000 0.818887
vn 0.573955 0.000000 0.818887
vn 0.798913 0.000000 0.601446
vn 0.798913 0.000000 0.601446
vn 0.798913 0.000000 0.601446
vn 0.945669 0.000000 0.325131
vn 0.798913 0.000000 0.601446
vn 0.798913 0.000000 0.601446
vn 0.945669 0.000000 0.325131
vn 0.945669 0.000000 0.325131
vn 0.945669 0.000000 0.325131
vn 0.999856 0.000000 0.016992
vn 0.945669 0.000000 0.325131
vn 0.945669 0.000000 0.325131
vn 0.999856 0.000000 0.016992
vn 0.999856 0.000000 0.016992
vn 0.999856 0.000000 0.016992
vn 0.956170 0.000000 -0.292812
vn 0.999856 0.000000 0.016992
vn 0.999856 0.000000 0.016992
vn 0.956170 0.000000 -0.292812
vn 0.956170 0.000000 -0.292812
vn -0.140079 -0.985261 0.098181
vn -0.163564 -0.985260 0.050089
vn 0.000000 -1.000000 0.000000
vn -0.102884 -0.985260 0.136663
vn -0.140079 -0.985261 0.098181
vn 0.000000 -1.000000 0.000000
vn -0.055617 -0.985260 0.161768
vn -0.102884 -0.985260 0.136663
vn 0.000000 -1.000000 0.000000
vn -0.002906 -0.985260 0.171036
vn -0.055617 -0.985260 0.161768
vn 0.000000 -1.000000 0.000000
vn 0.050089 -0.985260 0.163564
vn -0.002906 -0.985260 0.171036
vn 0.000000 -1.000000 0.000000
vn 0.098182 -0.985260 0.140079
vn 0.050089 -0.985260 0.163564
vn 0.000000 -1.000000 0.000000
vn 0.136663 -0.985260 0.102884
vn 0.098182 -0.985260 0.140079
vn 0.000000 -1.000000 0.000000
vn 0.161768 -0.985260 0.055617
vn 0.136663 -0.985260 0.102884
vn 0.000000 -1.000000 0.000000
vn 0.171036 -0.985260 0.002906
vn 0.161768 -0.985260 0.055617
vn 0.000000 -1.000000 0.000000
vn 0.163564 -0.985260 -0.050089
vn 0.171036 -0.985260 0.002906
vn 0.000000 -1.000000 0.000000
vn 0.140079 -0.985260 -0.098182
vn 0.163564 -0.985260 -0.050089
vn 0.000000 -1.000000 0.000000
vn 0.102884 -0.985260 -0.136663
vn 0.140079 -0.985260 -0.098182
vn 0.000000 -1.000000 0.000000
vn 0.055617 -0.985260 -0.161768
vn 0.102884 -0.985260 -0.136663
vn 0.000000 -1.000000 0.000000
vn 0.002906 -0.985260 -0.171036
vn 0.055617 -0.985260 -0.161768
vn 0.000000 -1.000000 0.000000
vn -0.050089 -0.985260 -0.163564
vn 0.002906 -0.985260 -0.171036
vn 0.000000 -1.000000 0.000000
vn -0.098182 -0.985260 -0.140081
vn -0.050089 -0.985260 -0.163564
vn 0.000000 -1.000000 0.000000
vn -0.136663 -0.985260 -0.102884
vn -0.098182 -0.985260 -0.140081
vn 0.000000 -1.000000 0.000000
vn -0.161768 -0.985260 -0.055617
vn -0.136663 -0.985260 -0.102884
vn 0.000000 -1.000000 0.000000
vn -0.171036 -0.985260 -0.002906
vn -0.161768 -0.985260 -0.055617
vn 0.000000 -1.000000 0.000000
vn -0.163564 -0.985260 0.050089
vn -0.171036 -0.985260 -0.002906
vn 0.000000 -1.000000 0.000000
vn -0.163564 0.985260 0.050089
vn -0.140079 0.985260 0.098182
vn 0.000000 1.000000 0.000000
vn -0.140079 0.985260 0.098182
vn -0.102884 0.985260 0.136663
vn 0.000000 1.000000 0.000000
vn -0.102884 0.985260 0.136663
vn -0.055617 0.985260 0.161768
vn 0.000000 1.000000 0.000000
vn -0.055617 0.985260 0.161768
vn -0.002906 0.985260 0.171036
vn 0.000000 1.000000 0.000000
vn -0.002906 0.985260 0.171036
vn 0.050089 0.985260 0.163564
vn 0.000000 1.000000 0.000000
vn 0.050089 0.985260 0.163564
vn 0.098182 0.985260 0.140079
vn 0.000000 1.000000 0.000000
vn 0.098182 0.985260 0.140079
vn 0.136663 0.985260 0.102884
vn 0.000000 1.000000 0.000000
vn 0.136663 0.985260 0.102884
vn 0.161768 0.985260 0.055617
vn 0.000000 1.000000 0.000000
vn 0.161768 0.985260 0.055617
vn 0.171036 0.985260 0.002906
vn 0.000000 1.000000 0.000000
vn 0.171036 0.985260 0.002906
vn 0.163564 0.985260 -0.050089
vn 0.000000 1.000000 0.000000
vn 0.163564 0.985260 -0.050089
vn 0.140079 0.985260 -0.098182
vn 0.000000 1.000000 0.000000
vn 0.140079 0.985260 -0.098182
vn 0.102884 0.985260 -0.136665
vn 0.000000 1.000000 0.000000
vn 0.102884 0.985260 -0.136665
vn 0.055617 0.985260 -0.161768
vn 0.000000 1.000000 0.000000
vn 0.055617 0.985260 -0.161768
vn 0.002906 0.985260 -0.171036
vn 0.000000 1.000000 0.000000
vn 0.002906 0.985260 -0.171036
vn -0.050089 0.985260 -0.163564
vn 0.000000 1.000000 0.000000
vn -0.050089 0.985260 -0.163564
vn -0.098182 0.985260 -0.140079
vn 0.000000 1.000000 0.000000
vn -0.098182 0.985260 -0.140079
vn -0.136663 0.985260 -0.102884
vn 0.000000 1.000000 0.000000
vn -0.136663 0.985260 -0.102884
vn -0.161768 0.985260 -0.055617
vn 0.000000 1.000000 0.000000
vn -0.161768 0.985260 -0.055617
vn -0.171036 0.985260 -0.002906
vn 0.000000 1.000000 0.000000
vn -0.171036 0.985260 -0.002906
vn -0.163564 0.985260 0.050089
vn 0.000000 1.000000 0.000000
s off
g canned_food_10:pCylinder2
usemtl initialShadingGroup
f 1/1/1 2/2/2 21/3/3
f 21/3/4 2/2/5 22/4/6
f 2/2/7 3/5/8 22/4/9
f 22/4/10 3/5/11 23/6/12
f 3/5/13 4/7/14 23/6/15
f 23/6/16 4/7/17 24/8/18
f 4/7/19 5/9/20 24/8/21
f 24/8/22 5/9/23 25/10/24
f 5/9/25 6/11/26 25/10/27
f 25/10/28 6/11/29 26/12/30
f 6/11/31 7/13/32 26/12/33
f 26/12/34 7/13/35 27/14/36
f 7/13/37 8/15/38 27/14/39
f 27/14/40 8/15/41 28/16/42
f 8/15/43 9/17/44 28/16/45
f 28/16/46 9/17/47 29/18/48
f 9/17/49 10/19/50 29/18/51
f 29/18/52 10/19/53 30/20/54
f 10/19/55 11/21/56 30/20/57
f 30/20/58 11/21/59 31/22/60
f 11/21/61 12/23/62 31/22/63
f 31/22/64 12/23/65 32/24/66
f 12/23/67 13/25/68 32/24/69
f 32/24/70 13/25/71 33/26/72
f 13/25/73 14/27/74 33/26/75
f 33/26/76 14/27/77 34/28/78
f 14/27/79 15/29/80 34/28/81
f 34/28/82 15/29/83 35/30/84
f 15/29/85 16/31/86 35/30/87
f 35/30/88 16/31/89 36/32/90
f 16/31/91 17/33/92 36/32/93
f 36/32/94 17/33/95 37/34/96
f 17/33/97 18/35/98 37/34/99
f 37/34/100 18/35/101 38/36/102
f 18/35/103 19/37/104 38/36/105
f 38/36/106 19/37/107 39/38/108
f 19/37/109 20/39/110 39/38/111
f 39/38/112 20/39/113 40/40/114
f 20/39/115 1/41/116 40/40/117
f 40/40/118 1/41/119 21/42/120
f 2/43/121 1/44/122 41/45/123
f 3/46/124 2/43/125 41/45/126
f 4/47/127 3/46/128 41/45/129
f 5/48/130 4/47/131 41/45/132
f 6/49/133 5/48/134 41/45/135
f 7/50/136 6/49/137 41/45/138
f 8/51/139 7/50/140 41/45/141
f 9/52/142 8/51/143 41/45/144
f 10/53/145 9/52/146 41/45/147
f 11/54/148 10/53/149 41/45/150
f 12/55/151 11/54/152 41/45/153
f 13/56/154 12/55/155 41/45/156
f 14/57/157 13/56/158 41/45/159
f 15/58/160 14/57/161 41/45/162
f 16/59/163 15/58/164 41/45/165
f 17/60/166 16/59/167 41/45/168
f 18/61/169 17/60/170 41/45/171
f 19/62/172 18/61/173 41/45/174
f 20/63/175 19/62/176 41/45/177
f 1/44/178 20/63/179 41/45/180
f 21/64/181 22/65/182 42/66/183
f 22/65/184 23/67/185 42/66/186
f 23/67/187 24/68/188 42/66/189
f 24/68/190 25/69/191 42/66/192
f 25/69/193 26/70/194 42/66/195
f 26/70/196 27/71/197 42/66/198
f 27/71/199 28/72/200 42/66/201
f 28/72/202 29/73/203 42/66/204
f 29/73/205 30/74/206 42/66/207
f 30/74/208 31/75/209 42/66/210
f 31/75/211 32/76/212 42/66/213
f 32/76/214 33/77/215 42/66/216
f 33/77/217 34/78/218 42/66/219
f 34/78/220 35/79/221 42/66/222
f 35/79/223 36/80/224 42/66/225
f 36/80/226 37/81/227 42/66/228
f 37/81/229 38/82/230 42/66/231
f 38/82/232 39/83/233 42/66/234
f 39/83/235 40/84/236 42/66/237
f 40/84/238 21/64/239 42/66/240
