# This file uses centimeters as units for non-parametric coordinates.

mtllib canned_food_13.mtl
g default
v 0.090691 0.042608 -0.280303
v 0.006616 0.042608 -0.291946
v -0.076942 0.042608 -0.277036
v -0.151804 0.042608 -0.237036
v -0.210641 0.042608 -0.175861
v -0.247694 0.042608 -0.099497
v -0.259335 0.042608 -0.015422
v -0.244427 0.042608 0.068136
v -0.204426 0.042608 0.142997
v -0.143251 0.042608 0.201834
v -0.066887 0.042608 0.238887
v 0.017187 0.042608 0.250529
v 0.100746 0.042608 0.235620
v 0.175606 0.042608 0.195620
v 0.234443 0.042608 0.134445
v 0.271496 0.042608 0.058081
v 0.283139 0.042608 -0.025994
v 0.268230 0.042608 -0.109553
v 0.228230 0.042608 -0.184413
v 0.167055 0.042608 -0.243250
v 0.090691 1.045091 -0.280303
v 0.006616 1.045091 -0.291946
v -0.076942 1.045091 -0.277036
v -0.151804 1.045091 -0.237036
v -0.210641 1.045091 -0.175861
v -0.247694 1.045091 -0.099497
v -0.259335 1.045091 -0.015422
v -0.244427 1.045091 0.068136
v -0.204426 1.045091 0.142997
v -0.143251 1.045091 0.201834
v -0.066887 1.045091 0.238887
v 0.017187 1.045091 0.250529
v 0.100746 1.045091 0.235620
v 0.175606 1.045091 0.195620
v 0.234443 1.045091 0.134445
v 0.271496 1.045091 0.058081
v 0.283139 1.045091 -0.025994
v 0.268230 1.045091 -0.109553
v 0.228230 1.045091 -0.184413
v 0.167055 1.045091 -0.243250
v 0.011902 0.094456 -0.020708
v 0.011902 0.993243 -0.020708
vt -0.002962 0.316775
vt 0.045436 0.316775
vt -0.000375 0.989552
vt 0.048022 0.989552
vt 0.093835 0.316775
vt 0.096422 0.989552
vt 0.142235 0.316775
vt 0.144822 0.989552
vt 0.190633 0.316775
vt 0.193219 0.989552
vt 0.239032 0.316775
vt 0.241619 0.989552
vt 0.287430 0.316775
vt 0.290017 0.989552
vt 0.335829 0.316775
vt 0.338416 0.989552
vt 0.384229 0.316775
vt 0.386816 0.989552
vt 0.432627 0.316775
vt 0.435214 0.989552
vt 0.481026 0.316775
vt 0.483613 0.989552
vt 0.529424 0.316775
vt 0.532011 0.989552
vt 0.577824 0.316775
vt 0.580410 0.989552
vt 0.626224 0.316775
vt 0.628810 0.989552
vt 0.674621 0.316775
vt 0.677208 0.989552
vt 0.723021 0.316775
vt 0.725607 0.989552
vt 0.771420 0.316775
vt 0.774007 0.989552
vt 0.819818 0.316775
vt 0.822405 0.989552
vt 0.868218 0.316775
vt 0.870804 0.989552
vt 0.916616 0.316775
vt 0.919202 0.989552
vt 0.965015 0.316775
vt 0.967602 0.989552
vt 0.431951 0.073655
vt 0.445789 0.113240
vt 0.353135 0.151440
vt 0.410398 0.042239
vt 0.383241 0.022070
vt 0.353135 0.015120
vt 0.323031 0.022070
vt 0.295873 0.042239
vt 0.274320 0.073655
vt 0.260483 0.113240
vt 0.255715 0.157120
vt 0.260483 0.201001
vt 0.274320 0.240586
vt 0.295873 0.272001
vt 0.323031 0.292170
vt 0.353135 0.299120
vt 0.383241 0.292170
vt 0.410398 0.272001
vt 0.431951 0.240586
vt 0.445789 0.201001
vt 0.450557 0.157120
vt 0.216725 0.203299
vt 0.202975 0.243300
vt 0.124662 0.153217
vt 0.181560 0.275045
vt 0.154575 0.295427
vt 0.124662 0.302450
vt 0.094750 0.295427
vt 0.067765 0.275045
vt 0.046350 0.243300
vt 0.032600 0.203299
vt 0.027863 0.158957
vt 0.032600 0.114615
vt 0.046350 0.074614
vt 0.067765 0.042868
vt 0.094750 0.022487
vt 0.124662 0.015464
vt 0.154575 0.022487
vt 0.181560 0.042868
vt 0.202975 0.074614
vt 0.216725 0.114615
vt 0.221462 0.158957
vt 0.221462 0.158957
vt 0.124662 0.153217
vt 0.124662 0.153217
vt 0.124662 0.153217
vt 0.124662 0.153217
vt 0.124662 0.153217
vt 0.124662 0.153217
vt 0.124662 0.153217
vt 0.124662 0.153217
vt 0.124662 0.153217
vt 0.124662 0.153217
vt 0.124662 0.153217
vt 0.124662 0.153217
vt 0.124662 0.153217
vt 0.124662 0.153217
vt 0.124662 0.153217
vt 0.124662 0.153217
vt 0.124662 0.153217
vt 0.124662 0.153217
vt 0.124662 0.153217
vt 0.216725 0.114615
vt 0.202975 0.074614
vt 0.181560 0.042868
vt 0.154575 0.022487
vt 0.124662 0.015464
vt 0.094750 0.022487
vt 0.067765 0.042868
vt 0.046350 0.074614
vt 0.032600 0.114615
vt 0.027863 0.158957
vt 0.032600 0.203299
vt 0.046350 0.243300
vt 0.067765 0.275045
vt 0.094750 0.295427
vt 0.124662 0.302450
vt 0.154575 0.295427
vt 0.181560 0.275045
vt 0.216725 0.203299
vt 0.202975 0.243300
vn 0.290429 0.000000 -0.956897
vn -0.019484 0.000000 -0.999810
vn 0.290429 0.000000 -0.956897
vn 0.290429 0.000000 -0.956897
vn -0.019484 0.000000 -0.999810
vn -0.019484 0.000000 -0.999810
vn -0.019484 0.000000 -0.999810
vn -0.327489 0.000000 -0.944855
vn -0.019484 0.000000 -0.999810
vn -0.019484 0.000000 -0.999810
vn -0.327489 0.000000 -0.944855
vn -0.327489 0.000000 -0.944855
vn -0.327489 0.000000 -0.944855
vn -0.603437 0.000000 -0.797411
vn -0.327489 0.000000 -0.944855
vn -0.327489 0.000000 -0.944855
vn -0.603437 0.000000 -0.797411
vn -0.603437 0.000000 -0.797411
vn -0.603437 0.000000 -0.797411
vn -0.820316 0.000000 -0.571911
vn -0.603437 0.000000 -0.797411
vn -0.603437 0.000000 -0.797411
vn -0.820316 0.000000 -0.571911
vn -0.820316 0.000000 -0.571911
vn -0.820316 0.000000 -0.571911
vn -0.956897 0.000000 -0.290428
vn -0.820316 0.000000 -0.571911
vn -0.820316 0.000000 -0.571911
vn -0.956897 0.000000 -0.290428
vn -0.956897 0.000000 -0.290428
vn -0.956897 0.000000 -0.290428
vn -0.999810 0.000000 0.019485
vn -0.956897 0.000000 -0.290428
vn -0.956897 0.000000 -0.290428
vn -0.999810 0.000000 0.019485
vn -0.999810 0.000000 0.019485
vn -0.999810 0.000000 0.019485
vn -0.944855 0.000000 0.327489
vn -0.999810 0.000000 0.019485
vn -0.999810 0.000000 0.019485
vn -0.944855 0.000000 0.327489
vn -0.944855 0.000000 0.327489
vn -0.944855 0.000000 0.327489
vn -0.797411 0.000000 0.603437
vn -0.944855 0.000000 0.327489
vn -0.944855 0.000000 0.327489
vn -0.797411 0.000000 0.603437
vn -0.797411 0.000000 0.603437
vn -0.797411 0.000000 0.603437
vn -0.571911 0.000000 0.820316
vn -0.797411 0.000000 0.603437
vn -0.797411 0.000000 0.603437
vn -0.571911 0.000000 0.820316
vn -0.571911 0.000000 0.820316
vn -0.571911 0.000000 0.820316
vn -0.290428 0.000000 0.956897
vn -0.571911 0.000000 0.820316
vn -0.571911 0.000000 0.820316
vn -0.290428 0.000000 0.956897
vn -0.290428 0.000000 0.956897
vn -0.290428 0.000000 0.956897
vn 0.019484 0.000000 0.999810
vn -0.290428 0.000000 0.956897
vn -0.290428 0.000000 0.956897
vn 0.019484 0.000000 0.999810
vn 0.019484 0.000000 0.999810
vn 0.019484 0.000000 0.999810
vn 0.327489 0.000000 0.944855
vn 0.019484 0.000000 0.999810
vn 0.019484 0.000000 0.999810
vn 0.327489 0.000000 0.944855
vn 0.327489 0.000000 0.944855
vn 0.327489 0.000000 0.944855
vn 0.603437 0.000000 0.797411
vn 0.327489 0.000000 0.944855
vn 0.327489 0.000000 0.944855
vn 0.603437 0.000000 0.797411
vn 0.603437 0.000000 0.797411
vn 0.603437 0.000000 0.797411
vn 0.820316 0.000000 0.571911
vn 0.603437 0.000000 0.797411
vn 0.603437 0.000000 0.797411
vn 0.820316 0.000000 0.571911
vn 0.820316 0.000000 0.571911
vn 0.820316 0.000000 0.571911
vn 0.956897 0.000000 0.290428
vn 0.820316 0.000000 0.571911
vn 0.820316 0.000000 0.571911
vn 0.956897 0.000000 0.290428
vn 0.956897 0.000000 0.290428
vn 0.956897 0.000000 0.290428
vn 0.999810 0.000000 -0.019484
vn 0.956897 0.000000 0.290428
vn 0.956897 0.000000 0.290428
vn 0.999810 0.000000 -0.019484
vn 0.999810 0.000000 -0.019484
vn 0.999810 0.000000 -0.019484
vn 0.944855 0.000000 -0.327489
vn 0.999810 0.000000 -0.019484
vn 0.999810 0.000000 -0.019484
vn 0.944855 0.000000 -0.327489
vn 0.944855 0.000000 -0.327489
vn 0.944855 0.000000 -0.327489
vn 0.797411 0.000000 -0.603437
vn 0.944855 0.000000 -0.327489
vn 0.944855 0.000000 -0.327489
vn 0.797411 0.000000 -0.603437
vn 0.797411 0.000000 -0.603437
vn 0.797411 0.000000 -0.603437
vn 0.571911 0.000000 -0.820315
vn 0.797411 0.000000 -0.603437
vn 0.797411 0.000000 -0.603437
vn 0.571911 0.000000 -0.820315
vn 0.571911 0.000000 -0.820315
vn 0.571911 0.000000 -0.820315
vn 0.290429 0.000000 -0.956897
vn 0.571911 0.000000 -0.820315
vn 0.571911 0.000000 -0.820315
vn 0.290429 0.000000 -0.956897
vn 0.290429 0.000000 -0.956897
vn 0.003657 -0.982224 0.187679
vn -0.054518 -0.982223 0.179625
vn 0.000000 -1.000000 0.000000
vn 0.061474 -0.982224 0.177364
vn 0.003657 -0.982224 0.187679
vn 0.000000 -1.000000 0.000000
vn 0.113275 -0.982223 0.149686
vn 0.061474 -0.982224 0.177364
vn 0.000000 -1.000000 0.000000
vn 0.153986 -0.982224 0.107356
vn 0.113275 -0.982223 0.149686
vn 0.000000 -1.000000 0.000000
vn 0.179625 -0.982223 0.054518
vn 0.153986 -0.982224 0.107356
vn 0.000000 -1.000000 0.000000
vn 0.187680 -0.982224 -0.003658
vn 0.179625 -0.982223 0.054518
vn 0.000000 -1.000000 0.000000
vn 0.177364 -0.982224 -0.061474
vn 0.187680 -0.982224 -0.003658
vn 0.000000 -1.000000 0.000000
vn 0.149686 -0.982223 -0.113275
vn 0.177364 -0.982224 -0.061474
vn 0.000000 -1.000000 0.000000
vn 0.107356 -0.982224 -0.153986
vn 0.149686 -0.982223 -0.113275
vn 0.000000 -1.000000 0.000000
vn 0.054518 -0.982223 -0.179625
vn 0.107356 -0.982224 -0.153986
vn 0.000000 -1.000000 0.000000
vn -0.003658 -0.982224 -0.187680
vn 0.054518 -0.982223 -0.179625
vn 0.000000 -1.000000 0.000000
vn -0.061474 -0.982224 -0.177364
vn -0.003658 -0.982224 -0.187680
vn 0.000000 -1.000000 0.000000
vn -0.113275 -0.982223 -0.149686
vn -0.061474 -0.982224 -0.177364
vn 0.000000 -1.000000 0.000000
vn -0.153986 -0.982224 -0.107356
vn -0.113275 -0.982223 -0.149686
vn 0.000000 -1.000000 0.000000
vn -0.179625 -0.982223 -0.054518
vn -0.153986 -0.982224 -0.107356
vn 0.000000 -1.000000 0.000000
vn -0.187681 -0.982223 0.003656
vn -0.179625 -0.982223 -0.054518
vn 0.000000 -1.000000 0.000000
vn -0.177364 -0.982224 0.061474
vn -0.187681 -0.982223 0.003656
vn 0.000000 -1.000000 0.000000
vn -0.149686 -0.982223 0.113275
vn -0.177364 -0.982224 0.061474
vn 0.000000 -1.000000 0.000000
vn -0.107356 -0.982224 0.153986
vn -0.149686 -0.982223 0.113275
vn 0.000000 -1.000000 0.000000
vn -0.054518 -0.982223 0.179625
vn -0.107356 -0.982224 0.153986
vn 0.000000 -1.000000 0.000000
vn -0.054518 0.982223 0.179625
vn 0.003658 0.982224 0.187680
vn 0.000000 1.000000 0.000000
vn 0.003658 0.982224 0.187680
vn 0.061474 0.982224 0.177364
vn 0.000000 1.000000 0.000000
vn 0.061474 0.982224 0.177364
vn 0.113275 0.982223 0.149686
vn 0.000000 1.000000 0.000000
vn 0.113275 0.982223 0.149686
vn 0.153986 0.982224 0.107356
vn 0.000000 1.000000 0.000000
vn 0.153986 0.982224 0.107356
vn 0.179625 0.982223 0.054518
vn 0.000000 1.000000 0.000000
vn 0.179625 0.982223 0.054518
vn 0.187680 0.982224 -0.003658
vn 0.000000 1.000000 0.000000
vn 0.187680 0.982224 -0.003658
vn 0.177364 0.982224 -0.061474
vn 0.000000 1.000000 0.000000
vn 0.177364 0.982224 -0.061474
vn 0.149686 0.982223 -0.113275
vn 0.000000 1.000000 0.000000
vn 0.149686 0.982223 -0.113275
vn 0.107356 0.982224 -0.153986
vn 0.000000 1.000000 0.000000
vn 0.107356 0.982224 -0.153986
vn 0.054518 0.982223 -0.179625
vn 0.000000 1.000000 0.000000
vn 0.054518 0.982223 -0.179625
vn -0.003658 0.982224 -0.187680
vn 0.000000 1.000000 0.000000
vn -0.003658 0.982224 -0.187680
vn -0.061476 0.982223 -0.177365
vn 0.000000 1.000000 0.000000
vn -0.061476 0.982223 -0.177365
vn -0.113275 0.982223 -0.149686
vn 0.000000 1.000000 0.000000
vn -0.113275 0.982223 -0.149686
vn -0.153986 0.982224 -0.107356
vn 0.000000 1.000000 0.000000
vn -0.153986 0.982224 -0.107356
vn -0.179625 0.982223 -0.054518
vn 0.000000 1.000000 0.000000
vn -0.179625 0.982223 -0.054518
vn -0.187680 0.982224 0.003658
vn 0.000000 1.000000 0.000000
vn -0.187680 0.982224 0.003658
vn -0.177364 0.982224 0.061474
vn 0.000000 1.000000 0.000000
vn -0.177364 0.982224 0.061474
vn -0.149686 0.982223 0.113275
vn 0.000000 1.000000 0.000000
vn -0.149686 0.982223 0.113275
vn -0.107356 0.982224 0.153986
vn 0.000000 1.000000 0.000000
vn -0.107356 0.982224 0.153986
vn -0.054518 0.982223 0.179625
vn 0.000000 1.000000 0.000000
s off
g canned_food_13:pCylinder2
usemtl initialShadingGroup
f 1/1/1 2/2/2 21/3/3
f 21/3/4 2/2/5 22/4/6
f 2/2/7 3/5/8 22/4/9
f 22/4/10 3/5/11 23/6/12
f 3/5/13 4/7/14 23/6/15
f 23/6/16 4/7/17 24/8/18
f 4/7/19 5/9/20 24/8/21
f 24/8/22 5/9/23 25/10/24
f 5/9/25 6/11/26 25/10/27
f 25/10/28 6/11/29 26/12/30
f 6/11/31 7/13/32 26/12/33
f 26/12/34 7/13/35 27/14/36
f 7/13/37 8/15/38 27/14/39
f 27/14/40 8/15/41 28/16/42
f 8/15/43 9/17/44 28/16/45
f 28/16/46 9/17/47 29/18/48
f 9/17/49 10/19/50 29/18/51
f 29/18/52 10/19/53 30/20/54
f 10/19/55 11/21/56 30/20/57
f 30/20/58 11/21/59 31/22/60
f 11/21/61 12/23/62 31/22/63
f 31/22/64 12/23/65 32/24/66
f 12/23/67 13/25/68 32/24/69
f 32/24/70 13/25/71 33/26/72
f 13/25/73 14/27/74 33/26/75
f 33/26/76 14/27/77 34/28/78
f 14/27/79 15/29/80 34/28/81
f 34/28/82 15/29/83 35/30/84
f 15/29/85 16/31/86 35/30/87
f 35/30/88 16/31/89 36/32/90
f 16/31/91 17/33/92 36/32/93
f 36/32/94 17/33/95 37/34/96
f 17/33/97 18/35/98 37/34/99
f 37/34/100 18/35/101 38/36/102
f 18/35/103 19/37/104 38/36/105
f 38/36/106 19/37/107 39/38/108
f 19/37/109 20/39/110 39/38/111
f 39/38/112 20/39/113 40/40/114
f 20/39/115 1/41/116 40/40/117
f 40/40/118 1/41/119 21/42/120
f 2/43/121 1/44/122 41/45/123
f 3/46/124 2/43/125 41/45/126
f 4/47/127 3/46/128 41/45/129
f 5/48/130 4/47/131 41/45/132
f 6/49/133 5/48/134 41/45/135
f 7/50/136 6/49/137 41/45/138
f 8/51/139 7/50/140 41/45/141
f 9/52/142 8/51/143 41/45/144
f 10/53/145 9/52/146 41/45/147
f 11/54/148 10/53/149 41/45/150
f 12/55/151 11/54/152 41/45/153
f 13/56/154 12/55/155 41/45/156
f 14/57/157 13/56/158 41/45/159
f 15/58/160 14/57/161 41/45/162
f 16/59/163 15/58/164 41/45/165
f 17/60/166 16/59/167 41/45/168
f 18/61/169 17/60/170 41/45/171
f 19/62/172 18/61/173 41/45/174
f 20/63/175 19/62/176 41/45/177
f 1/44/178 20/63/179 41/45/180
f 21/64/181 22/123/182 42/103/183
f 22/65/184 23/121/185 42/102/186
f 23/67/187 24/120/188 42/101/189
f 24/68/190 25/119/191 42/100/192
f 25/69/193 26/118/194 42/99/195
f 26/70/196 27/117/197 42/98/198
f 27/71/199 28/116/200 42/97/201
f 28/72/202 29/115/203 42/96/204
f 29/73/205 30/114/206 42/95/207
f 30/74/208 31/113/209 42/94/210
f 31/75/211 32/112/212 42/93/213
f 32/76/214 33/111/215 42/92/216
f 33/77/217 34/110/218 42/91/219
f 34/78/220 35/109/221 42/90/222
f 35/79/223 36/108/224 42/89/225
f 36/80/226 37/107/227 42/88/228
f 37/81/229 38/106/230 42/87/231
f 38/82/232 39/105/233 42/86/234
f 39/83/235 40/85/236 42/66/237
f 40/84/238 21/122/239 42/104/240
