# This file uses centimeters as units for non-parametric coordinates.

mtllib canned_food_12.mtl
g default
v 0.222136 0.038112 0.135437
v 0.249396 0.038112 0.065614
v 0.253743 0.038112 -0.009215
v 0.234755 0.038112 -0.081726
v 0.194289 0.038112 -0.144820
v 0.136306 0.038112 -0.192321
v 0.066483 0.038112 -0.219578
v -0.008345 0.038112 -0.223927
v -0.080856 0.038112 -0.204938
v -0.143950 0.038112 -0.164472
v -0.191450 0.038112 -0.106489
v -0.218709 0.038112 -0.036667
v -0.223057 0.038112 0.038162
v -0.204068 0.038112 0.110671
v -0.163603 0.038112 0.173765
v -0.105620 0.038112 0.221266
v -0.035797 0.038112 0.248526
v 0.039032 0.038112 0.252874
v 0.111542 0.038112 0.233885
v 0.174636 0.038112 0.193419
v 0.222136 0.934812 0.135437
v 0.249396 0.934812 0.065614
v 0.253743 0.934812 -0.009215
v 0.234754 0.934812 -0.081726
v 0.194289 0.934812 -0.144820
v 0.136306 0.934812 -0.192321
v 0.066483 0.934812 -0.219578
v -0.008345 0.934812 -0.223927
v -0.080856 0.934812 -0.204938
v -0.143950 0.934812 -0.164472
v -0.191450 0.934812 -0.106489
v -0.218709 0.934812 -0.036667
v -0.223057 0.934812 0.038162
v -0.204068 0.934812 0.110671
v -0.163603 0.934812 0.173765
v -0.105620 0.934812 0.221266
v -0.035797 0.934812 0.248526
v 0.039032 0.934812 0.252874
v 0.111542 0.934812 0.233885
v 0.174636 0.934812 0.193419
v 0.015343 0.084489 0.014473
v 0.015343 0.888435 0.014473
vt 0.041643 0.038673
vt 0.086943 0.038673
vt 0.041643 0.612873
vt 0.086943 0.612873
vt 0.132245 0.038673
vt 0.132245 0.612873
vt 0.177548 0.038673
vt 0.177548 0.612873
vt 0.222848 0.038673
vt 0.222848 0.612873
vt 0.268150 0.038673
vt 0.268150 0.612873
vt 0.313450 0.038673
vt 0.313450 0.612873
vt 0.358752 0.038673
vt 0.358752 0.612873
vt 0.404054 0.038673
vt 0.404054 0.612873
vt 0.449354 0.038673
vt 0.449354 0.612873
vt 0.494656 0.038673
vt 0.494656 0.612873
vt 0.539957 0.038673
vt 0.539957 0.612873
vt 0.585259 0.038673
vt 0.585259 0.612873
vt 0.630561 0.038673
vt 0.630561 0.612873
vt 0.675861 0.038673
vt 0.675861 0.612873
vt 0.721163 0.038673
vt 0.721163 0.612873
vt 0.766465 0.038673
vt 0.766465 0.612873
vt 0.811765 0.038673
vt 0.811765 0.612873
vt 0.857067 0.038673
vt 0.857067 0.612873
vt 0.902368 0.038673
vt 0.902368 0.612873
vt 0.947670 0.038673
vt 0.947670 0.612873
vt 0.947945 -0.292234
vt 0.971286 -0.246659
vt 0.815003 -0.202679
vt 0.911591 -0.328403
vt 0.865783 -0.351624
vt 0.815003 -0.359626
vt 0.764224 -0.351624
vt 0.718416 -0.328403
vt 0.682063 -0.292234
vt 0.658722 -0.246659
vt 0.650680 -0.196139
vt 0.658722 -0.145619
vt 0.682063 -0.100044
vt 0.718416 -0.063875
vt 0.764224 -0.040654
vt 0.815003 -0.032652
vt 0.865783 -0.040654
vt 0.911591 -0.063875
vt 0.947945 -0.100044
vt 0.971286 -0.145619
vt 0.979328 -0.196139
vt 0.410115 -0.125085
vt 0.385865 -0.075219
vt 0.247750 -0.187516
vt 0.348097 -0.035646
vt 0.300505 -0.010238
vt 0.247750 -0.001483
vt 0.194995 -0.010238
vt 0.147404 -0.035646
vt 0.109635 -0.075219
vt 0.085386 -0.125085
vt 0.077030 -0.180361
vt 0.085386 -0.235637
vt 0.109635 -0.285503
vt 0.147404 -0.325076
vt 0.194995 -0.350484
vt 0.247750 -0.359239
vt 0.300505 -0.350484
vt 0.348097 -0.325076
vt 0.385865 -0.285503
vt 0.410115 -0.235637
vt 0.418470 -0.180361
vt 0.418470 -0.180361
vt 0.247750 -0.187516
vt 0.247750 -0.187516
vt 0.247750 -0.187516
vt 0.247750 -0.187516
vt 0.247750 -0.187516
vt 0.247750 -0.187516
vt 0.247750 -0.187516
vt 0.247750 -0.187516
vt 0.247750 -0.187516
vt 0.247750 -0.187516
vt 0.247750 -0.187516
vt 0.247750 -0.187516
vt 0.247750 -0.187516
vt 0.247750 -0.187516
vt 0.247750 -0.187516
vt 0.247750 -0.187516
vt 0.247750 -0.187516
vt 0.247750 -0.187516
vt 0.247750 -0.187516
vt 0.410115 -0.235637
vt 0.385865 -0.285503
vt 0.348097 -0.325076
vt 0.300505 -0.350484
vt 0.247750 -0.359239
vt 0.194995 -0.350484
vt 0.147404 -0.325076
vt 0.109635 -0.285503
vt 0.085386 -0.235637
vt 0.077030 -0.180361
vt 0.085386 -0.125085
vt 0.109635 -0.075219
vt 0.147404 -0.035646
vt 0.194995 -0.010238
vt 0.247750 -0.001483
vt 0.300505 -0.010238
vt 0.348097 -0.035646
vt 0.410115 -0.125085
vt 0.385865 -0.075219
vt 0.815003 -0.202679
vt 0.815003 -0.202679
vt 0.815003 -0.202679
vt 0.815003 -0.202679
vt 0.815003 -0.202679
vt 0.815003 -0.202679
vt 0.815003 -0.202679
vt 0.815003 -0.202679
vt 0.815003 -0.202679
vt 0.815003 -0.202679
vt 0.815003 -0.202679
vt 0.815003 -0.202679
vt 0.815003 -0.202679
vt 0.815003 -0.202679
vt 0.815003 -0.202679
vt 0.815003 -0.202679
vt 0.815003 -0.202679
vt 0.815003 -0.202679
vt 0.815003 -0.202679
vt 0.979328 -0.196139
vt 0.971286 -0.145619
vt 0.947945 -0.100044
vt 0.911591 -0.063875
vt 0.865783 -0.040654
vt 0.815003 -0.032652
vt 0.764224 -0.040654
vt 0.718416 -0.063875
vt 0.682063 -0.100044
vt 0.658722 -0.145619
vt 0.650680 -0.196139
vt 0.658722 -0.246659
vt 0.682063 -0.292234
vt 0.718416 -0.328403
vt 0.764224 -0.351624
vt 0.815003 -0.359626
vt 0.865783 -0.351624
vt 0.911591 -0.328403
vt 0.947945 -0.292234
vt 0.971286 -0.246659
vn 0.863171 0.000000 0.504911
vn 0.976951 0.000000 0.213464
vn 0.863171 0.000000 0.504911
vn 0.863171 0.000000 0.504911
vn 0.976951 0.000000 0.213464
vn 0.976951 0.000000 0.213464
vn 0.976951 0.000000 0.213464
vn 0.995099 0.000000 -0.098879
vn 0.976951 0.000000 0.213464
vn 0.976951 0.000000 0.213464
vn 0.995099 0.000000 -0.098879
vn 0.995099 0.000000 -0.098879
vn 0.995099 0.000000 -0.098879
vn 0.915841 0.000000 -0.401542
vn 0.995099 0.000000 -0.098879
vn 0.995099 0.000000 -0.098879
vn 0.915841 0.000000 -0.401542
vn 0.915841 0.000000 -0.401542
vn 0.915841 0.000000 -0.401542
vn 0.746933 0.000000 -0.664899
vn 0.915841 0.000000 -0.401542
vn 0.915841 0.000000 -0.401542
vn 0.746933 0.000000 -0.664899
vn 0.746933 0.000000 -0.664899
vn 0.746933 0.000000 -0.664899
vn 0.504910 0.000000 -0.863172
vn 0.746933 0.000000 -0.664899
vn 0.746933 0.000000 -0.664899
vn 0.504910 0.000000 -0.863172
vn 0.504910 0.000000 -0.863172
vn 0.504910 0.000000 -0.863172
vn 0.213463 0.000000 -0.976951
vn 0.504910 0.000000 -0.863172
vn 0.504910 0.000000 -0.863172
vn 0.213463 0.000000 -0.976951
vn 0.213463 0.000000 -0.976951
vn 0.213463 0.000000 -0.976951
vn -0.098879 0.000000 -0.995099
vn 0.213463 0.000000 -0.976951
vn 0.213463 0.000000 -0.976951
vn -0.098879 0.000000 -0.995099
vn -0.098879 0.000000 -0.995099
vn -0.098879 0.000000 -0.995099
vn -0.401542 0.000000 -0.915841
vn -0.098879 0.000000 -0.995099
vn -0.098879 0.000000 -0.995099
vn -0.401542 0.000000 -0.915841
vn -0.401542 0.000000 -0.915841
vn -0.401542 0.000000 -0.915841
vn -0.664899 0.000000 -0.746933
vn -0.401542 0.000000 -0.915841
vn -0.401542 0.000000 -0.915841
vn -0.664899 0.000000 -0.746933
vn -0.664899 0.000000 -0.746933
vn -0.664899 0.000000 -0.746933
vn -0.863172 0.000000 -0.504910
vn -0.664899 0.000000 -0.746933
vn -0.664899 0.000000 -0.746933
vn -0.863172 0.000000 -0.504910
vn -0.863172 0.000000 -0.504910
vn -0.863172 0.000000 -0.504910
vn -0.976951 0.000000 -0.213464
vn -0.863172 0.000000 -0.504910
vn -0.863172 0.000000 -0.504910
vn -0.976951 0.000000 -0.213464
vn -0.976951 0.000000 -0.213464
vn -0.976951 0.000000 -0.213464
vn -0.995099 0.000000 0.098879
vn -0.976951 0.000000 -0.213464
vn -0.976951 0.000000 -0.213464
vn -0.995099 0.000000 0.098879
vn -0.995099 0.000000 0.098879
vn -0.995099 0.000000 0.098879
vn -0.915841 0.000000 0.401542
vn -0.995099 0.000000 0.098879
vn -0.995099 0.000000 0.098879
vn -0.915841 0.000000 0.401542
vn -0.915841 0.000000 0.401542
vn -0.915841 0.000000 0.401542
vn -0.746933 0.000000 0.664899
vn -0.915841 0.000000 0.401542
vn -0.915841 0.000000 0.401542
vn -0.746933 0.000000 0.664899
vn -0.746933 0.000000 0.664899
vn -0.746933 0.000000 0.664899
vn -0.504910 0.000000 0.863172
vn -0.746933 0.000000 0.664899
vn -0.746933 0.000000 0.664899
vn -0.504910 0.000000 0.863172
vn -0.504910 0.000000 0.863172
vn -0.504910 0.000000 0.863172
vn -0.213464 0.000000 0.976951
vn -0.504910 0.000000 0.863172
vn -0.504910 0.000000 0.863172
vn -0.213464 0.000000 0.976951
vn -0.213464 0.000000 0.976951
vn -0.213464 0.000000 0.976951
vn 0.098879 0.000000 0.995099
vn -0.213464 0.000000 0.976951
vn -0.213464 0.000000 0.976951
vn 0.098879 0.000000 0.995099
vn 0.098879 0.000000 0.995099
vn 0.098879 0.000000 0.995099
vn 0.401542 0.000000 0.915841
vn 0.098879 0.000000 0.995099
vn 0.098879 0.000000 0.995099
vn 0.401542 0.000000 0.915841
vn 0.401542 0.000000 0.915841
vn 0.401542 0.000000 0.915841
vn 0.664899 0.000000 0.746934
vn 0.401542 0.000000 0.915841
vn 0.401542 0.000000 0.915841
vn 0.664899 0.000000 0.746934
vn 0.664899 0.000000 0.746934
vn 0.664899 0.000000 0.746934
vn 0.863171 0.000000 0.504911
vn 0.664899 0.000000 0.746934
vn 0.664899 0.000000 0.746934
vn 0.863171 0.000000 0.504911
vn 0.863171 0.000000 0.504911
vn -0.185667 -0.981775 -0.040569
vn -0.164044 -0.981775 -0.095958
vn 0.000000 -1.000000 0.000000
vn -0.189116 -0.981775 0.018791
vn -0.185667 -0.981775 -0.040569
vn 0.000000 -1.000000 0.000000
vn -0.174054 -0.981775 0.076313
vn -0.189116 -0.981775 0.018791
vn 0.000000 -1.000000 0.000000
vn -0.141953 -0.981775 0.126362
vn -0.174054 -0.981775 0.076313
vn 0.000000 -1.000000 0.000000
vn -0.095958 -0.981775 0.164044
vn -0.141953 -0.981775 0.126362
vn 0.000000 -1.000000 0.000000
vn -0.040568 -0.981775 0.185667
vn -0.095958 -0.981775 0.164044
vn 0.000000 -1.000000 0.000000
vn 0.018791 -0.981775 0.189116
vn -0.040568 -0.981775 0.185667
vn 0.000000 -1.000000 0.000000
vn 0.076313 -0.981775 0.174054
vn 0.018791 -0.981775 0.189116
vn 0.000000 -1.000000 0.000000
vn 0.126362 -0.981775 0.141953
vn 0.076313 -0.981775 0.174054
vn 0.000000 -1.000000 0.000000
vn 0.164044 -0.981775 0.095958
vn 0.126362 -0.981775 0.141953
vn 0.000000 -1.000000 0.000000
vn 0.185667 -0.981775 0.040568
vn 0.164044 -0.981775 0.095958
vn 0.000000 -1.000000 0.000000
vn 0.189116 -0.981775 -0.018791
vn 0.185667 -0.981775 0.040568
vn 0.000000 -1.000000 0.000000
vn 0.174054 -0.981775 -0.076313
vn 0.189116 -0.981775 -0.018791
vn 0.000000 -1.000000 0.000000
vn 0.141953 -0.981775 -0.126362
vn 0.174054 -0.981775 -0.076313
vn 0.000000 -1.000000 0.000000
vn 0.095958 -0.981775 -0.164044
vn 0.141953 -0.981775 -0.126362
vn 0.000000 -1.000000 0.000000
vn 0.040570 -0.981775 -0.185669
vn 0.095958 -0.981775 -0.164044
vn 0.000000 -1.000000 0.000000
vn -0.018791 -0.981775 -0.189116
vn 0.040570 -0.981775 -0.185669
vn 0.000000 -1.000000 0.000000
vn -0.076313 -0.981775 -0.174054
vn -0.018791 -0.981775 -0.189116
vn 0.000000 -1.000000 0.000000
vn -0.126362 -0.981775 -0.141953
vn -0.076313 -0.981775 -0.174054
vn 0.000000 -1.000000 0.000000
vn -0.164044 -0.981775 -0.095958
vn -0.126362 -0.981775 -0.141953
vn 0.000000 -1.000000 0.000000
vn -0.164044 0.981775 -0.095958
vn -0.185667 0.981775 -0.040568
vn 0.000000 1.000000 0.000000
vn -0.185667 0.981775 -0.040568
vn -0.189116 0.981775 0.018791
vn 0.000000 1.000000 0.000000
vn -0.189116 0.981775 0.018791
vn -0.174054 0.981775 0.076313
vn 0.000000 1.000000 0.000000
vn -0.174054 0.981775 0.076313
vn -0.141953 0.981775 0.126362
vn 0.000000 1.000000 0.000000
vn -0.141953 0.981775 0.126362
vn -0.095958 0.981775 0.164044
vn 0.000000 1.000000 0.000000
vn -0.095958 0.981775 0.164044
vn -0.040568 0.981775 0.185667
vn 0.000000 1.000000 0.000000
vn -0.040568 0.981775 0.185667
vn 0.018791 0.981775 0.189116
vn 0.000000 1.000000 0.000000
vn 0.018791 0.981775 0.189116
vn 0.076313 0.981775 0.174054
vn 0.000000 1.000000 0.000000
vn 0.076313 0.981775 0.174054
vn 0.126362 0.981775 0.141953
vn 0.000000 1.000000 0.000000
vn 0.126362 0.981775 0.141953
vn 0.164044 0.981775 0.095958
vn 0.000000 1.000000 0.000000
vn 0.164044 0.981775 0.095958
vn 0.185667 0.981775 0.040568
vn 0.000000 1.000000 0.000000
vn 0.185667 0.981775 0.040568
vn 0.189118 0.981775 -0.018793
vn 0.000000 1.000000 0.000000
vn 0.189118 0.981775 -0.018793
vn 0.174054 0.981775 -0.076313
vn 0.000000 1.000000 0.000000
vn 0.174054 0.981775 -0.076313
vn 0.141953 0.981775 -0.126362
vn 0.000000 1.000000 0.000000
vn 0.141953 0.981775 -0.126362
vn 0.095958 0.981775 -0.164044
vn 0.000000 1.000000 0.000000
vn 0.095958 0.981775 -0.164044
vn 0.040568 0.981775 -0.185667
vn 0.000000 1.000000 0.000000
vn 0.040568 0.981775 -0.185667
vn -0.018791 0.981775 -0.189116
vn 0.000000 1.000000 0.000000
vn -0.018791 0.981775 -0.189116
vn -0.076313 0.981775 -0.174054
vn 0.000000 1.000000 0.000000
vn -0.076313 0.981775 -0.174054
vn -0.126362 0.981775 -0.141953
vn 0.000000 1.000000 0.000000
vn -0.126362 0.981775 -0.141953
vn -0.164044 0.981775 -0.095958
vn 0.000000 1.000000 0.000000
s off
g canned_food_16:pCylinder2
usemtl initialShadingGroup
f 1/1/1 2/2/2 21/3/3
f 21/3/4 2/2/5 22/4/6
f 2/2/7 3/5/8 22/4/9
f 22/4/10 3/5/11 23/6/12
f 3/5/13 4/7/14 23/6/15
f 23/6/16 4/7/17 24/8/18
f 4/7/19 5/9/20 24/8/21
f 24/8/22 5/9/23 25/10/24
f 5/9/25 6/11/26 25/10/27
f 25/10/28 6/11/29 26/12/30
f 6/11/31 7/13/32 26/12/33
f 26/12/34 7/13/35 27/14/36
f 7/13/37 8/15/38 27/14/39
f 27/14/40 8/15/41 28/16/42
f 8/15/43 9/17/44 28/16/45
f 28/16/46 9/17/47 29/18/48
f 9/17/49 10/19/50 29/18/51
f 29/18/52 10/19/53 30/20/54
f 10/19/55 11/21/56 30/20/57
f 30/20/58 11/21/59 31/22/60
f 11/21/61 12/23/62 31/22/63
f 31/22/64 12/23/65 32/24/66
f 12/23/67 13/25/68 32/24/69
f 32/24/70 13/25/71 33/26/72
f 13/25/73 14/27/74 33/26/75
f 33/26/76 14/27/77 34/28/78
f 14/27/79 15/29/80 34/28/81
f 34/28/82 15/29/83 35/30/84
f 15/29/85 16/31/86 35/30/87
f 35/30/88 16/31/89 36/32/90
f 16/31/91 17/33/92 36/32/93
f 36/32/94 17/33/95 37/34/96
f 17/33/97 18/35/98 37/34/99
f 37/34/100 18/35/101 38/36/102
f 18/35/103 19/37/104 38/36/105
f 38/36/106 19/37/107 39/38/108
f 19/37/109 20/39/110 39/38/111
f 39/38/112 20/39/113 40/40/114
f 20/39/115 1/41/116 40/40/117
f 40/40/118 1/41/119 21/42/120
f 2/43/121 1/162/122 41/124/123
f 3/46/124 2/161/125 41/125/126
f 4/47/127 3/160/128 41/126/129
f 5/48/130 4/159/131 41/127/132
f 6/49/133 5/158/134 41/128/135
f 7/50/136 6/157/137 41/129/138
f 8/51/139 7/156/140 41/130/141
f 9/52/142 8/155/143 41/131/144
f 10/53/145 9/154/146 41/132/147
f 11/54/148 10/153/149 41/133/150
f 12/55/151 11/152/152 41/134/153
f 13/56/154 12/151/155 41/135/156
f 14/57/157 13/150/158 41/136/159
f 15/58/160 14/149/161 41/137/162
f 16/59/163 15/148/164 41/138/165
f 17/60/166 16/147/167 41/139/168
f 18/61/169 17/146/170 41/140/171
f 19/62/172 18/145/173 41/141/174
f 20/63/175 19/144/176 41/142/177
f 1/44/178 20/143/179 41/45/180
f 21/64/181 22/123/182 42/103/183
f 22/65/184 23/121/185 42/102/186
f 23/67/187 24/120/188 42/101/189
f 24/68/190 25/119/191 42/100/192
f 25/69/193 26/118/194 42/99/195
f 26/70/196 27/117/197 42/98/198
f 27/71/199 28/116/200 42/97/201
f 28/72/202 29/115/203 42/96/204
f 29/73/205 30/114/206 42/95/207
f 30/74/208 31/113/209 42/94/210
f 31/75/211 32/112/212 42/93/213
f 32/76/214 33/111/215 42/92/216
f 33/77/217 34/110/218 42/91/219
f 34/78/220 35/109/221 42/90/222
f 35/79/223 36/108/224 42/89/225
f 36/80/226 37/107/227 42/88/228
f 37/81/229 38/106/230 42/87/231
f 38/82/232 39/105/233 42/86/234
f 39/83/235 40/85/236 42/66/237
f 40/84/238 21/122/239 42/104/240
