# This file uses centimeters as units for non-parametric coordinates.

mtllib cereal_box_4.mtl
g default
v 0.541230 0.025307 -0.139928
v -0.533970 0.025307 -0.139928
v 0.541230 1.178744 -0.139928
v -0.533970 1.178744 -0.139928
v 0.541230 1.178744 0.129549
v -0.533970 1.178744 0.129549
v 0.541230 0.025307 0.129549
v -0.533970 0.025307 0.129549
vt 0.146690 0.323597
vt 0.517291 0.323596
vt 0.517291 0.788014
vt 0.146690 0.788014
vt 0.517291 0.920747
vt 0.146690 0.920747
vt 0.980775 0.788014
vt 0.610174 0.788014
vt 0.610174 0.323596
vt 0.980775 0.323596
vt 0.146690 0.190864
vt 0.517290 0.190864
vt 0.053806 0.323597
vt 0.053807 0.788015
vn 0.000000 0.000000 -1.000000
vn 0.000000 0.000000 -1.000000
vn 0.000000 0.000000 -1.000000
vn 0.000000 0.000000 -1.000000
vn 0.000000 1.000000 0.000000
vn 0.000000 1.000000 0.000000
vn 0.000000 1.000000 0.000000
vn 0.000000 1.000000 0.000000
vn -0.000000 0.000000 1.000000
vn -0.000000 0.000000 1.000000
vn -0.000000 0.000000 1.000000
vn -0.000000 0.000000 1.000000
vn 0.000000 -1.000000 -0.000000
vn 0.000000 -1.000000 -0.000000
vn 0.000000 -1.000000 -0.000000
vn 0.000000 -1.000000 -0.000000
vn -1.000000 0.000000 -0.000000
vn -1.000000 0.000000 -0.000000
vn -1.000000 0.000000 -0.000000
vn -1.000000 0.000000 -0.000000
vn 1.000000 0.000000 0.000000
vn 1.000000 0.000000 0.000000
vn 1.000000 0.000000 0.000000
vn 1.000000 0.000000 0.000000
s off
g Shelf1:polySurface4 Shelf1:pCube2
usemtl Shelf1:Box1:lambert2SG
f 1/1/1 2/2/2 4/3/3 3/4/4
f 3/4/5 4/3/6 6/5/7 5/6/8
f 5/7/9 6/8/10 8/9/11 7/10/12
f 7/11/13 8/12/14 2/2/15 1/1/16
f 2/2/17 8/9/18 6/8/19 4/3/20
f 7/13/21 1/1/22 3/4/23 5/14/24
