# This file uses centimeters as units for non-parametric coordinates.

mtllib Container.mtl
g Container:default1
v 2.202863 0.006675 3.998474
v 2.189437 0.006675 -4.005841
v 2.202863 0.252527 3.998474
v 2.189437 0.252527 -4.005841
v -2.189437 0.252527 4.005841
v -2.202863 0.252527 -3.998474
v -2.189437 0.006675 4.005841
v -2.202863 0.006675 -3.998474
v -2.202179 0.252527 -3.590928
v -2.202179 0.006675 -3.590928
v 2.190121 0.006675 -3.598295
v 2.190121 0.252527 -3.598295
v -2.190121 0.252527 3.598295
v -2.190121 0.006675 3.598295
v 2.202179 0.006675 3.590928
v 2.202179 0.252527 3.590928
v 1.948940 0.006675 3.998900
v 1.948940 0.252527 3.998900
v 1.948257 0.252527 3.591354
v 1.936198 0.252527 -3.597870
v 1.935514 0.252527 -4.005415
v 1.935514 0.006675 -4.005415
v 1.936198 0.006675 -3.597870
v 1.948257 0.006675 3.591354
v -1.935514 0.006675 4.005415
v -1.935514 0.252527 4.005415
v -1.936198 0.252527 3.597870
v -1.948257 0.252527 -3.591354
v -1.948940 0.252527 -3.998900
v -1.948940 0.006675 -3.998900
v -1.948257 0.006675 -3.591354
v -1.936198 0.006675 3.597870
v -1.935514 3.195891 4.005415
v -1.936198 3.195891 3.597870
v -2.190121 3.195891 3.598295
v -2.189437 3.195891 4.005841
v -1.948257 3.195891 -3.591354
v -2.202179 3.195891 -3.590928
v -1.948940 3.195891 -3.998900
v -2.202863 3.195891 -3.998474
v 2.202863 3.195891 3.998474
v 2.202179 3.195891 3.590928
v 1.948257 3.195891 3.591354
v 1.948940 3.195891 3.998900
v 1.936198 3.195891 -3.597870
v 2.190121 3.195891 -3.598295
v 1.935514 3.195891 -4.005415
v 2.189437 3.195891 -4.005841
v 2.202863 3.020511 3.998474
v 1.948940 3.020511 3.998900
v -1.935514 3.020511 4.005415
v -2.189437 3.020511 4.005841
v -2.190121 3.020511 3.598295
v -2.202179 3.020511 -3.590928
v -2.202863 3.020511 -3.998474
v -1.948940 3.020511 -3.998900
v 1.935514 3.020511 -4.005415
v 2.189437 3.020511 -4.005841
v 2.190121 3.020511 -3.598295
v 2.202179 3.020511 3.590928
v 2.344479 3.020511 4.192537
v 1.949266 3.020511 4.193199
v 2.344479 3.195891 4.192537
v 1.949266 3.195891 4.193199
v -1.935189 3.020511 4.199715
v -1.935189 3.195891 4.199715
v -2.330401 3.020511 4.200378
v -2.330401 3.195891 4.200378
v -2.331411 3.020511 3.598532
v -2.331411 3.195891 3.598532
v -2.343469 3.020511 -3.590691
v -2.343469 3.195891 -3.590691
v -2.344479 3.020511 -4.192537
v -2.344479 3.195891 -4.192537
v -1.949266 3.020511 -4.193199
v -1.949266 3.195891 -4.193199
v 1.935189 3.020511 -4.199715
v 1.935189 3.195891 -4.199715
v 2.330401 3.020511 -4.200378
v 2.330401 3.195891 -4.200378
v 2.331411 3.020511 -3.598532
v 2.331411 3.195891 -3.598532
v 2.343469 3.020511 3.590691
v 2.343469 3.195891 3.590691
v 1.948940 3.321593 3.998900
v 1.948257 3.321593 3.591354
v -1.936198 3.321593 3.597870
v -1.935514 3.321593 4.005415
v -1.942227 3.195891 0.003258
v -1.948257 1.705196 -3.591354
v -1.948257 1.743221 -3.591354
v -1.936198 1.705196 3.597870
v -1.936198 1.743221 3.597870
v -1.942227 0.252527 0.003258
v -1.942227 1.705196 0.003258
v -1.942227 1.743221 0.003258
v 1.937638 1.743239 -0.003250
v 1.943668 1.743239 3.591362
v 1.943668 1.705215 3.591362
v 1.937638 1.705215 -0.003250
v 1.931609 1.705215 -3.597862
v 1.931609 1.743239 -3.597862
vt 0.194566 0.761827
vt 0.223409 0.761827
vt 0.223409 0.774189
vt 0.194566 0.774189
vt 0.120811 0.140027
vt 0.127831 0.140027
vt 0.127831 0.144766
vt 0.120811 0.144766
vt 0.194566 0.774189
vt 0.223409 0.774189
vt 0.223409 0.761827
vt 0.194566 0.761827
vt 0.223409 0.761827
vt 0.194566 0.761827
vt 0.761053 0.761827
vt 0.761053 0.761827
vt 0.761053 0.774189
vt 0.761053 0.774189
vt 0.194566 0.774189
vt 0.732210 0.774189
vt 0.732210 0.761827
vt 0.732210 0.761827
vt 0.732210 0.774189
vt 0.732210 0.761827
vt 0.761053 0.761827
vt 0.761053 0.774189
vt 0.251668 0.144766
vt 0.251668 0.140027
vt 0.258689 0.140027
vt 0.258689 0.144766
vt 0.189750 0.140027
vt 0.194566 0.761827
vt 0.194566 0.774189
vt 0.120811 0.062785
vt 0.127831 0.062785
vt 0.127831 0.067524
vt 0.120811 0.067524
vt 0.251668 0.062785
vt 0.251668 0.067524
vt 0.258689 0.067524
vt 0.258689 0.062785
vt 0.761053 0.761827
vt 0.761053 0.774189
vt 0.732210 0.761827
vt 0.223409 0.761827
vt 0.240709 0.154509
vt 0.399120 0.177982
vt 0.385357 0.214234
vt 0.240709 0.227011
vt 0.732210 0.774189
vt 0.477809 0.774189
vt 0.223409 0.774189
vt 0.223409 0.774189
vt 0.732210 0.774189
vt 0.194566 0.913361
vt 0.223409 0.913361
vt 0.194566 0.913361
vt 0.761053 0.913361
vt 0.761053 0.913361
vt 0.732210 0.913361
vt 0.477809 0.847228
vt 0.223409 0.847228
vt 0.732210 0.847228
vt 0.223409 0.913361
vt 0.194566 0.913361
vt 0.194566 0.913361
vt 0.223409 0.922179
vt 0.732210 0.922179
vt 0.732210 0.913361
vt 0.761053 0.913361
vt 0.761053 0.913361
vt 0.223409 0.849140
vt 0.223409 0.922179
vt 0.732210 0.922179
vt 0.732210 0.849140
vt 0.521002 0.140325
vt 0.521002 0.148187
vt 0.425426 0.148187
vt 0.425426 0.140325
vt 0.521002 0.063050
vt 0.425426 0.063050
vt 0.521002 0.055188
vt 0.425426 0.055188
vt 0.741095 0.140238
vt 0.741095 0.146808
vt 0.645519 0.146808
vt 0.645519 0.140238
vt 0.741095 0.061758
vt 0.645519 0.061758
vt 0.741095 0.055188
vt 0.645519 0.055188
vt 0.535505 0.063050
vt 0.535505 0.055188
vt 0.631081 0.055188
vt 0.631081 0.063050
vt 0.535505 0.140325
vt 0.631081 0.140325
vt 0.535505 0.148187
vt 0.631081 0.148187
vt 0.646782 0.161971
vt 0.646782 0.155401
vt 0.742358 0.155401
vt 0.742358 0.161971
vt 0.646782 0.240451
vt 0.742358 0.240451
vt 0.646782 0.247021
vt 0.742358 0.247021
vt 0.401546 0.161885
vt 0.401546 0.157146
vt 0.404892 0.154509
vt 0.404892 0.161885
vt 0.117464 0.067524
vt 0.117464 0.060148
vt 0.401546 0.234388
vt 0.404892 0.234388
vt 0.117464 0.140027
vt 0.401546 0.239127
vt 0.404892 0.241765
vt 0.117464 0.147404
vt 0.394525 0.239127
vt 0.394525 0.241765
vt 0.127831 0.147404
vt 0.270688 0.239127
vt 0.270688 0.241765
vt 0.251668 0.147404
vt 0.263668 0.239127
vt 0.260321 0.241765
vt 0.262035 0.147404
vt 0.263668 0.234388
vt 0.260321 0.234388
vt 0.262035 0.140027
vt 0.263668 0.161885
vt 0.260321 0.161885
vt 0.262035 0.067524
vt 0.263668 0.157146
vt 0.260321 0.154509
vt 0.262035 0.060148
vt 0.270688 0.157146
vt 0.270688 0.154509
vt 0.251668 0.060148
vt 0.394525 0.157146
vt 0.394525 0.154509
vt 0.127831 0.060148
vt 0.543689 0.156780
vt 0.330017 0.263206
vt 0.543689 0.201456
vt 0.418099 0.263206
vt 0.529805 0.156780
vt 0.529805 0.201456
vt 0.632898 0.156780
vt 0.632898 0.234056
vt 0.564395 0.234056
vt 0.564395 0.156780
vt 0.477809 0.922179
vt 0.477809 0.849140
vt 0.502299 0.700994
vt 0.008190 0.700994
vt 0.008190 0.318102
vt 0.502299 0.318102
vt 0.996408 0.318102
vt 0.996408 0.700994
vt 0.008190 0.700994
vt 0.008190 0.318102
vt 0.502299 0.318102
vt 0.996408 0.318102
vt 0.996408 0.700994
vt 0.506342 0.689881
vt 0.999097 0.689881
vt 0.999097 0.330011
vt 0.506342 0.330011
vt 0.013588 0.330011
vt 0.013588 0.689881
vn 0.999999 0.000000 -0.001677
vn 0.999999 0.000000 -0.001677
vn 0.999999 0.000000 -0.001677
vn 0.999999 0.000000 -0.001677
vn 0.000000 1.000000 -0.000000
vn 0.000000 1.000000 -0.000000
vn 0.000000 1.000000 -0.000000
vn 0.000000 1.000000 -0.000000
vn -0.999999 0.000000 0.001677
vn -0.999999 0.000000 0.001677
vn -0.999999 0.000000 0.001677
vn -0.999999 0.000000 0.001677
vn 0.000000 -1.000000 0.000000
vn 0.000000 -1.000000 0.000000
vn 0.000000 -1.000000 0.000000
vn 0.000000 -1.000000 0.000000
vn -0.001677 0.000000 -0.999999
vn -0.001677 0.000000 -0.999999
vn -0.001677 0.000000 -0.999999
vn -0.001677 0.000000 -0.999999
vn 0.001677 0.000000 0.999999
vn 0.001677 0.000000 0.999999
vn 0.001677 0.000000 0.999999
vn 0.001677 0.000000 0.999999
vn -0.999999 0.000000 0.001677
vn -0.999999 0.000000 0.001677
vn -0.999999 0.000000 0.001677
vn -0.999999 0.000000 0.001677
vn 0.000000 -1.000000 0.000000
vn 0.000000 -1.000000 0.000000
vn 0.000000 -1.000000 0.000000
vn 0.000000 -1.000000 0.000000
vn 0.999999 0.000000 -0.001677
vn 0.999999 0.000000 -0.001677
vn 0.999999 0.000000 -0.001677
vn 0.999999 0.000000 -0.001677
vn 0.000000 1.000000 -0.000000
vn 0.000000 1.000000 -0.000000
vn 0.000000 1.000000 -0.000000
vn 0.000000 1.000000 -0.000000
vn -0.999999 0.000000 0.001677
vn -0.999999 0.000000 0.001677
vn -0.999999 0.000000 0.001677
vn -0.999999 0.000000 0.001677
vn 0.000000 -1.000000 0.000000
vn 0.000000 -1.000000 0.000000
vn 0.000000 -1.000000 0.000000
vn 0.000000 -1.000000 0.000000
vn 0.999999 0.000000 -0.001677
vn 0.999999 0.000000 -0.001677
vn 0.999999 0.000000 -0.001677
vn 0.999999 0.000000 -0.001677
vn 0.000000 1.000000 -0.000000
vn 0.000000 1.000000 -0.000000
vn 0.000000 1.000000 -0.000000
vn 0.000000 1.000000 -0.000000
vn 0.000000 1.000000 -0.000000
vn 0.000000 1.000000 -0.000000
vn 0.000000 1.000000 -0.000000
vn 0.000000 1.000000 -0.000000
vn 0.000000 1.000000 -0.000000
vn 0.001677 0.000000 0.999999
vn 0.001677 0.000000 0.999999
vn 0.001677 0.000000 0.999999
vn 0.001677 0.000000 0.999999
vn 0.000000 1.000000 -0.000000
vn 0.000000 1.000000 -0.000000
vn 0.000000 1.000000 -0.000000
vn 0.000000 1.000000 -0.000000
vn 0.000000 1.000000 -0.000000
vn 0.000000 1.000000 -0.000000
vn 0.000000 1.000000 -0.000000
vn 0.000000 1.000000 -0.000000
vn 0.000000 1.000000 -0.000000
vn 0.000000 1.000000 -0.000000
vn 0.000000 1.000000 -0.000000
vn 0.000000 1.000000 -0.000000
vn 0.000000 1.000000 -0.000000
vn 0.000000 1.000000 -0.000000
vn -0.001677 0.000000 -0.999999
vn -0.001677 0.000000 -0.999999
vn -0.001677 0.000000 -0.999999
vn -0.001677 0.000000 -0.999999
vn 0.000000 -1.000000 0.000000
vn 0.000000 -1.000000 0.000000
vn 0.000000 -1.000000 0.000000
vn 0.000000 -1.000000 0.000000
vn 0.000000 -1.000000 0.000000
vn 0.000000 -1.000000 0.000000
vn 0.000000 -1.000000 0.000000
vn 0.000000 -1.000000 0.000000
vn 0.000000 -1.000000 0.000000
vn 0.000000 -1.000000 0.000000
vn 0.000000 -1.000000 0.000000
vn 0.000000 -1.000000 0.000000
vn 0.001677 0.000000 0.999999
vn 0.001677 0.000000 0.999999
vn 0.001677 0.000000 0.999999
vn 0.001677 0.000000 0.999999
vn 0.000000 1.000000 -0.000000
vn 0.000000 1.000000 -0.000000
vn 0.000000 1.000000 -0.000000
vn 0.000000 1.000000 -0.000000
vn 0.000000 1.000000 -0.000000
vn 0.000000 1.000000 -0.000000
vn 0.000000 1.000000 -0.000000
vn 0.000000 1.000000 -0.000000
vn 0.000000 1.000000 -0.000000
vn 0.000000 1.000000 -0.000000
vn 0.000000 1.000000 -0.000000
vn 0.000000 1.000000 -0.000000
vn 0.000000 1.000000 -0.000000
vn -0.001677 0.000000 -0.999999
vn -0.001677 0.000000 -0.999999
vn -0.001677 0.000000 -0.999999
vn -0.001677 0.000000 -0.999999
vn 0.000000 -1.000000 0.000000
vn 0.000000 -1.000000 0.000000
vn 0.000000 -1.000000 0.000000
vn 0.000000 -1.000000 0.000000
vn 0.000000 -1.000000 0.000000
vn 0.000000 -1.000000 0.000000
vn 0.000000 -1.000000 0.000000
vn 0.000000 -1.000000 0.000000
vn 0.000000 -1.000000 0.000000
vn 0.000000 -1.000000 0.000000
vn 0.000000 -1.000000 0.000000
vn 0.000000 -1.000000 0.000000
vn -0.999999 0.000000 0.001677
vn -0.999999 0.000000 0.001677
vn -0.999999 0.000000 0.001677
vn -0.999999 0.000000 0.001677
vn 0.001677 0.000000 0.999999
vn 0.001677 0.000000 0.999999
vn 0.001677 0.000000 0.999999
vn 0.001677 0.000000 0.999999
vn -0.001677 0.000000 -0.999999
vn -0.001677 0.000000 -0.999999
vn -0.001677 0.000000 -0.999999
vn -0.001677 0.000000 -0.999999
vn -0.999999 0.000000 0.001677
vn -0.999999 0.000000 0.001677
vn -0.999999 0.000000 0.001677
vn -0.999999 0.000000 0.001677
vn 0.999999 -0.000000 -0.001677
vn 0.999999 -0.000000 -0.001677
vn 0.999999 -0.000000 -0.001677
vn 0.999999 -0.000000 -0.001677
vn 0.999999 -0.000000 -0.001677
vn 0.999999 -0.000000 -0.001677
vn -0.999999 0.000000 0.001677
vn -0.999999 0.000000 0.001677
vn -0.999999 0.000000 0.001677
vn -0.999999 0.000000 0.001677
vn -0.999999 0.000000 0.001677
vn -0.999999 0.000000 0.001677
vn 0.999999 0.000000 -0.001677
vn 0.999999 0.000000 -0.001677
vn 0.999999 0.000000 -0.001677
vn 0.999999 0.000000 -0.001677
vn 0.001677 0.000000 0.999999
vn 0.001677 0.000000 0.999999
vn 0.001677 0.000000 0.999999
vn 0.001677 0.000000 0.999999
vn -0.999999 0.000000 0.001677
vn -0.999999 0.000000 0.001677
vn -0.999999 0.000000 0.001677
vn -0.999999 0.000000 0.001677
vn -0.999999 0.000000 0.001677
vn -0.999999 0.000000 0.001677
vn 0.999999 0.000000 -0.001677
vn 0.999999 0.000000 -0.001677
vn 0.999999 0.000000 -0.001677
vn 0.999999 0.000000 -0.001677
vn 0.999999 0.000000 -0.001677
vn 0.999999 0.000000 -0.001677
vn 0.999999 0.000000 -0.001677
vn 0.999999 0.000000 -0.001677
vn 0.999999 0.000000 -0.001677
vn 0.999999 0.000000 -0.001677
vn -0.001677 0.000000 -0.999999
vn -0.001677 0.000000 -0.999999
vn -0.001677 0.000000 -0.999999
vn -0.001677 0.000000 -0.999999
vn -0.001677 0.000000 -0.999999
vn -0.001677 0.000000 -0.999999
vn -0.001677 0.000000 -0.999999
vn -0.001677 0.000000 -0.999999
vn -0.001677 0.000000 -0.999999
vn -0.001677 0.000000 -0.999999
vn -0.001677 0.000000 -0.999999
vn -0.001677 0.000000 -0.999999
vn -0.001677 0.000000 -0.999999
vn -0.001677 0.000000 -0.999999
vn -0.001677 0.000000 -0.999999
vn -0.001677 0.000000 -0.999999
vn 0.001677 0.000000 0.999999
vn 0.001677 0.000000 0.999999
vn 0.001677 0.000000 0.999999
vn 0.001677 0.000000 0.999999
vn 0.001677 0.000000 0.999999
vn 0.001677 0.000000 0.999999
vn 0.001677 0.000000 0.999999
vn 0.001677 0.000000 0.999999
vn 0.001677 0.000000 0.999999
vn 0.001677 0.000000 0.999999
vn 0.001677 0.000000 0.999999
vn 0.001677 0.000000 0.999999
vn 0.001677 0.000000 0.999999
vn 0.001677 0.000000 0.999999
vn 0.001677 0.000000 0.999999
vn 0.001677 0.000000 0.999999
vn 0.001677 0.000000 0.999999
vn 0.001677 0.000000 0.999999
vn -0.001677 0.000000 -0.999999
vn -0.001677 0.000000 -0.999999
vn -0.001677 0.000000 -0.999999
vn -0.001677 0.000000 -0.999999
vn -0.001677 0.000000 -0.999999
vn -0.001677 0.000000 -0.999999
vn 0.001677 0.000000 0.999999
vn 0.001677 0.000000 0.999999
vn 0.001677 0.000000 0.999999
vn 0.001677 0.000000 0.999999
vn 0.001677 0.000000 0.999999
vn 0.001677 0.000000 0.999999
vn 0.001677 0.000000 0.999999
vn 0.001677 0.000000 0.999999
vn 0.001677 0.000000 0.999999
vn 0.001677 0.000000 0.999999
vn 0.001677 0.000000 0.999999
vn 0.001677 0.000000 0.999999
vn -0.999999 0.000000 0.001677
vn -0.999999 0.000000 0.001677
vn -0.999999 0.000000 0.001677
vn -0.999999 0.000000 0.001677
vn -0.999999 0.000000 0.001677
vn -0.999999 0.000000 0.001677
vn -0.999999 0.000000 0.001677
vn -0.999999 0.000000 0.001677
vn -0.999999 0.000000 0.001677
vn -0.999999 0.000000 0.001677
vn -0.999999 0.000000 0.001677
vn -0.999999 0.000000 0.001677
vn -0.001677 0.000000 -0.999999
vn -0.001677 0.000000 -0.999999
vn -0.001677 0.000000 -0.999999
vn -0.001677 0.000000 -0.999999
vn -0.001677 0.000000 -0.999999
vn -0.001677 0.000000 -0.999999
vn -0.001677 0.000000 -0.999999
vn -0.001677 0.000000 -0.999999
vn -0.001677 0.000000 -0.999999
vn -0.001677 0.000000 -0.999999
vn -0.001677 0.000000 -0.999999
vn -0.001677 0.000000 -0.999999
vn 0.999999 0.000000 -0.001677
vn 0.999999 0.000000 -0.001677
vn 0.999999 0.000000 -0.001677
vn 0.999999 0.000000 -0.001677
vn 0.999999 0.000000 -0.001677
vn 0.999999 0.000000 -0.001677
vn 0.999999 0.000000 -0.001677
vn 0.999999 0.000000 -0.001677
vn 0.999999 0.000000 -0.001677
vn 0.999999 0.000000 -0.001677
vn 0.999999 0.000000 -0.001677
vn 0.999999 0.000000 -0.001677
vn 0.000000 -1.000000 0.000000
vn 0.000000 -1.000000 0.000000
vn 0.000000 -1.000000 0.000000
vn 0.000000 -1.000000 0.000000
vn 0.000000 1.000000 -0.000000
vn 0.000000 1.000000 -0.000000
vn 0.000000 1.000000 -0.000000
vn -0.000001 1.000000 0.000000
vn 0.000000 -1.000000 0.000000
vn 0.000000 -1.000000 0.000000
vn 0.000000 -1.000000 0.000000
vn 0.000000 -1.000000 0.000000
vn 0.000000 1.000000 -0.000000
vn 0.000000 1.000000 -0.000000
vn 0.000000 1.000000 -0.000000
vn 0.000000 1.000000 -0.000000
vn 0.000001 -1.000000 -0.000000
vn 0.000000 -1.000000 0.000000
vn 0.000000 -1.000000 0.000000
vn 0.000001 -1.000000 -0.000000
vn 0.000000 1.000000 -0.000000
vn 0.000000 1.000000 -0.000000
vn 0.000000 1.000000 -0.000000
vn 0.000000 1.000000 -0.000000
vn 0.000000 -1.000000 0.000000
vn 0.000001 -1.000000 -0.000000
vn 0.000001 -1.000000 -0.000000
vn 0.000000 -1.000000 0.000000
vn 0.000000 1.000000 -0.000000
vn 0.000000 1.000000 -0.000000
vn -0.000001 1.000000 0.000000
vn 0.000000 1.000000 -0.000000
vn 0.000000 -1.000000 0.000000
vn 0.000000 -1.000000 0.000000
vn 0.000000 -1.000000 0.000000
vn 0.000000 -1.000000 0.000000
vn 0.000000 1.000000 -0.000000
vn 0.000000 1.000000 -0.000000
vn -0.000001 1.000000 0.000000
vn -0.000001 1.000000 0.000000
vn 0.000000 1.000000 -0.000000
vn -0.000001 1.000000 0.000000
vn 0.000000 -1.000000 0.000000
vn 0.000000 -1.000000 0.000000
vn 0.000000 -1.000000 0.000000
vn 0.000000 -1.000000 0.000000
vn 0.000000 1.000000 -0.000000
vn 0.000000 1.000000 -0.000000
vn 0.000000 1.000000 -0.000000
vn -0.000001 1.000000 0.000000
vn 0.000000 -1.000000 0.000000
vn 0.000000 -1.000000 0.000000
vn 0.000000 -1.000000 0.000000
vn 0.000000 -1.000000 0.000000
vn 0.000000 1.000000 -0.000000
vn 0.000000 1.000000 -0.000000
vn 0.000000 1.000000 -0.000000
vn 0.000000 1.000000 -0.000000
vn 0.000000 -1.000000 0.000000
vn 0.000000 -1.000000 0.000000
vn 0.000000 -1.000000 0.000000
vn 0.000000 -1.000000 0.000000
vn 0.000000 1.000000 -0.000000
vn 0.000000 1.000000 -0.000000
vn 0.000000 1.000000 -0.000000
vn 0.000000 1.000000 -0.000000
vn 0.000001 -1.000000 -0.000000
vn 0.000000 -1.000000 0.000000
vn 0.000000 -1.000000 0.000000
vn 0.000001 -1.000000 -0.000000
vn 0.000000 1.000000 -0.000000
vn 0.000000 1.000000 -0.000000
vn 0.000000 1.000000 -0.000000
vn 0.000000 1.000000 -0.000000
vn -0.000002 -1.000000 0.000000
vn 0.000001 -1.000000 -0.000000
vn 0.000001 -1.000000 -0.000000
vn -0.000002 -1.000000 0.000000
vn 0.000000 1.000000 -0.000000
vn 0.000000 1.000000 -0.000000
vn 0.000000 1.000000 -0.000000
vn 0.000000 1.000000 -0.000000
vn -0.000002 -1.000000 0.000000
vn -0.000002 -1.000000 0.000000
vn -0.000002 -1.000000 0.000000
vn -0.000002 -1.000000 0.000000
vn 0.000000 1.000000 -0.000000
vn 0.000000 1.000000 -0.000000
vn 0.000000 1.000000 -0.000000
vn 0.000000 1.000000 -0.000000
vn 0.000000 1.000000 -0.000000
vn 0.000000 1.000000 -0.000000
vn 0.000000 -1.000000 0.000000
vn -0.000002 -1.000000 0.000000
vn -0.000002 -1.000000 0.000000
vn 0.000000 -1.000000 0.000000
vn 0.000000 1.000000 -0.000000
vn 0.000000 1.000000 -0.000000
vn -0.000001 1.000000 0.000000
vn 0.000000 1.000000 -0.000000
vn 0.999999 0.000000 -0.001677
vn 0.999999 0.000000 -0.001677
vn 0.999999 0.000000 -0.001677
vn 0.999999 0.000000 -0.001677
vn -0.999999 0.000000 0.001677
vn -0.999999 0.000000 0.001677
vn -0.999999 0.000000 0.001677
vn -0.999999 0.000000 0.001677
vn 0.001677 0.000001 0.999999
vn 0.001677 0.000001 0.999999
vn 0.001677 0.000001 0.999999
vn 0.001677 0.000001 0.999999
vn -0.001677 0.000000 -0.999999
vn -0.001677 0.000000 -0.999999
vn -0.001677 -0.000001 -0.999999
vn -0.001677 -0.000001 -0.999999
vn 0.999999 0.000000 -0.001677
vn 0.999999 0.000000 -0.001677
vn 0.999999 0.000000 -0.001677
vn 0.999999 0.000000 -0.001677
vn 0.999999 0.000000 -0.001677
vn 0.999999 0.000000 -0.001677
vn 0.999999 0.000000 -0.001677
vn 0.999999 0.000000 -0.001677
vn 0.999999 0.000000 -0.001677
vn 0.999999 0.000000 -0.001677
vn 0.999999 0.000000 -0.001677
vn 0.999999 0.000000 -0.001677
vn 0.999999 0.000005 -0.001677
vn 0.999999 0.000005 -0.001677
vn 0.999999 0.000005 -0.001677
vn 0.999999 0.000005 -0.001677
vn 0.999999 0.000005 -0.001677
vn 0.999999 0.000005 -0.001677
vn 0.001677 0.000000 0.999999
vn 0.001677 0.000000 0.999999
vn 0.001677 0.000000 0.999999
vn 0.001677 0.000000 0.999999
vn 0.000005 -1.000000 -0.000000
vn 0.000005 -1.000000 -0.000000
vn 0.000005 -1.000000 -0.000000
vn 0.000005 -1.000000 -0.000000
vn 0.000005 -1.000000 -0.000000
vn 0.000005 -1.000000 -0.000000
vn 0.000005 -1.000000 -0.000000
vn 0.000005 -1.000000 -0.000000
vn -0.001677 -0.000007 -0.999999
vn -0.001677 -0.000007 -0.999999
vn -0.001677 -0.000007 -0.999999
vn -0.001677 -0.000007 -0.999999
vn -0.000005 1.000000 0.000000
vn -0.000005 1.000000 0.000000
vn -0.000005 1.000000 0.000000
vn -0.000005 1.000000 0.000000
vn -0.000005 1.000000 0.000000
vn -0.000005 1.000000 0.000000
vn -0.000005 1.000000 0.000000
vn -0.000005 1.000000 0.000000
vn -0.000005 1.000000 0.000000
vn -0.000005 1.000000 0.000000
vn -0.000005 1.000000 0.000000
vn -0.000005 1.000000 0.000000
s off
g Container:initialShadingGroup Container:initialShadingGroup1 Container:pCube1 Container:polySurface2 Container:polySurface1
usemtl initialShadingGroup
f 1/1/1 15/2/2 16/3/3 3/4/4
f 33/5/5 34/6/6 35/7/7 36/8/8
f 5/9/9 13/10/10 14/11/11 7/12/12
f 7/12/13 14/11/14 32/13/15 25/14/16
f 30/15/17 8/16/18 6/17/19 29/18/20
f 7/12/21 25/14/22 26/19/23 5/9/24
f 9/20/25 6/17/26 8/16/27 10/21/28
f 31/22/29 10/21/30 8/16/31 30/15/32
f 12/23/33 11/24/34 2/25/35 4/26/36
f 38/27/37 37/28/38 39/29/39 40/30/40
f 13/10/41 9/20/42 10/21/43 14/11/44
f 32/13/45 14/11/46 10/21/47 31/22/48
f 16/3/49 15/2/50 11/24/51 12/23/52
f 35/7/53 34/6/54 38/27/55
f 34/6/56 89/31/57 38/27/58
f 89/31/59 37/28/60 38/27/61
f 17/32/62 1/1/63 3/4/64 18/33/65
f 41/34/66 42/35/67 43/36/68 44/37/69
f 43/36/70 42/35/71 45/39/72
f 45/39/73 42/35/74 46/38/75
f 47/40/76 45/39/77 46/38/78 48/41/79
f 2/25/80 22/42/81 21/43/82 4/26/83
f 11/24/84 23/44/85 22/42/86 2/25/87
f 15/2/88 24/45/89 23/44/90 11/24/91
f 17/32/92 24/45/93 15/2/94 1/1/95
f 25/14/96 17/32/97 18/33/98 26/19/99
f 85/46/100 86/47/101 87/48/102 88/49/103
f 28/50/104 94/51/105 27/52/106 19/53/107 20/54/108
f 39/29/109 37/28/110 45/39/111 47/40/112
f 22/42/113 30/15/114 29/18/115 21/43/116
f 23/44/117 31/22/118 30/15/119 22/42/120
f 24/45/121 32/13/122 31/22/123 23/44/124
f 25/14/125 32/13/126 24/45/127 17/32/128
f 13/10/129 5/9/130 52/55/131 53/56/132
f 5/9/133 26/19/134 51/57/135 52/55/136
f 29/18/137 6/17/138 55/58/139 56/59/140
f 6/17/141 9/20/142 54/60/143 55/58/144
f 95/61/145 92/62/146 27/52/147 94/51/148 28/50/149 90/63/150
f 9/20/151 13/10/152 54/60/153
f 54/60/154 13/10/155 53/56/156
f 3/4/157 16/3/158 60/64/159 49/65/160
f 18/33/161 3/4/162 49/65/163 50/66/164
f 20/54/165 19/53/166 45/68/167
f 45/68/168 19/53/169 43/67/170
f 16/3/171 12/23/172 60/64/173
f 60/64/174 12/23/175 59/69/176
f 12/23/177 4/26/178 58/70/179 59/69/180
f 4/26/181 21/43/182 57/71/183 58/70/184
f 19/53/185 27/52/186 43/67/187
f 27/52/188 92/62/189 43/67/190
f 92/62/191 93/72/192 43/67/193
f 93/72/194 34/73/195 43/67/196
f 26/19/197 18/33/198 51/57/199
f 51/57/200 18/33/201 50/66/202
f 28/50/203 20/54/204 90/63/205
f 20/54/206 45/68/207 90/63/208
f 90/63/209 45/68/210 91/75/211
f 45/68/212 37/74/213 91/75/214
f 21/43/215 29/18/216 57/71/217
f 57/71/218 29/18/219 56/59/220
f 62/76/221 61/77/222 63/78/223 64/79/224
f 65/80/225 62/76/226 64/79/227 66/81/228
f 67/82/229 65/80/230 66/81/231 68/83/232
f 69/84/233 67/85/234 68/86/235 70/87/236
f 71/88/237 69/84/238 70/87/239 72/89/240
f 73/90/241 71/88/242 72/89/243 74/91/244
f 75/92/245 73/93/246 74/94/247 76/95/248
f 77/96/249 75/92/250 76/95/251 78/97/252
f 79/98/253 77/96/254 78/97/255 80/99/256
f 81/100/257 79/101/258 80/102/259 82/103/260
f 83/104/261 81/100/262 82/103/263 84/105/264
f 61/106/265 83/104/266 84/105/267 63/107/268
f 50/108/269 49/109/270 61/110/271 62/111/272
f 41/34/273 44/37/274 64/112/275 63/113/276
f 51/114/277 50/108/278 62/111/279 65/115/280
f 44/37/281 33/5/282 66/116/283 64/112/284
f 52/117/285 51/114/286 65/115/287 67/118/288
f 33/5/289 36/8/290 68/119/291 66/116/292
f 53/120/293 52/117/294 67/118/295 69/121/296
f 36/8/297 35/7/298 70/122/299 68/119/300
f 54/123/301 53/120/302 69/121/303 71/124/304
f 35/7/305 38/27/306 70/122/307
f 70/122/308 38/27/309 72/125/310
f 55/126/311 54/123/312 71/124/313 73/127/314
f 38/27/315 40/30/316 74/128/317 72/125/318
f 56/129/319 55/126/320 73/127/321 75/130/322
f 40/30/323 39/29/324 76/131/325 74/128/326
f 57/132/327 56/129/328 75/130/329 77/133/330
f 39/29/331 47/40/332 78/134/333 76/131/334
f 58/135/335 57/132/336 77/133/337 79/136/338
f 47/40/339 48/41/340 80/137/341 78/134/342
f 59/138/343 58/135/344 79/136/345 81/139/346
f 48/41/347 46/38/348 82/140/349 80/137/350
f 60/141/351 59/138/352 81/139/353 83/142/354
f 46/38/355 42/35/356 82/140/357
f 82/140/358 42/35/359 84/143/360
f 49/109/361 60/141/362 83/142/363 61/110/364
f 42/35/365 41/34/366 63/113/367 84/143/368
f 44/144/369 43/145/370 86/47/371 85/146/372
f 34/147/373 33/148/374 88/149/375 87/48/376
f 33/150/377 44/151/378 85/152/379 88/153/380
f 43/145/381 34/147/382 87/48/383 86/47/384
f 34/73/385 93/72/386 89/154/387
f 93/72/388 96/155/389 89/154/390
f 89/154/391 96/155/392 37/74/393
f 96/155/394 91/75/395 37/74/396
f 97/156/397 98/157/398 99/158/399 100/159/400 101/160/401 102/161/402
f 93/162/403 92/163/404 99/158/405 98/157/406
f 92/163/407 95/164/408 100/159/409 99/158/410
f 95/164/411 90/165/412 101/160/413 100/159/414
f 90/165/415 91/166/416 102/161/417 101/160/418
f 102/168/419 91/169/420 97/167/421
f 91/169/422 96/170/423 97/167/424
f 97/167/425 96/170/426 98/172/427
f 96/170/428 93/171/429 98/172/430
