# This file uses centimeters as units for non-parametric coordinates.

mtllib EasterEgg1.mtl
g default
v 0.133553 0.001626 0.423394
v 0.254033 0.001626 0.360160
v 0.349646 0.001626 0.261672
v 0.411034 0.001626 0.137569
v 0.432187 0.001626 0.000000
v 0.411034 0.001626 -0.137569
v 0.349646 0.001626 -0.261672
v 0.254033 0.001626 -0.360160
v 0.133553 0.001626 -0.423394
v 0.000000 0.001626 -0.445183
v -0.133553 0.001626 -0.423394
v -0.254033 0.001626 -0.360160
v -0.349646 0.001626 -0.261672
v -0.411034 0.001626 -0.137569
v -0.432186 0.001626 -0.000000
v -0.411034 0.001626 0.137569
v -0.349646 0.001626 0.261672
v -0.254033 0.001626 0.360160
v -0.133553 0.001626 0.423394
v -0.000000 0.001626 0.445183
v 0.133553 0.998374 0.423394
v 0.254033 0.998374 0.360160
v 0.349646 0.998374 0.261672
v 0.411034 0.998374 0.137569
v 0.432187 0.998374 0.000000
v 0.411034 0.998374 -0.137569
v 0.349646 0.998374 -0.261672
v 0.254033 0.998374 -0.360160
v 0.133553 0.998374 -0.423394
v 0.000000 0.998374 -0.445183
v -0.133553 0.998374 -0.423394
v -0.254033 0.998374 -0.360160
v -0.349646 0.998374 -0.261672
v -0.411034 0.998374 -0.137569
v -0.432186 0.998374 -0.000000
v -0.411034 0.998374 0.137569
v -0.349646 0.998374 0.261672
v -0.254033 0.998374 0.360160
v -0.133553 0.998374 0.423394
v -0.000000 0.998374 0.445183
v 0.000000 0.001626 0.000000
v 0.000000 0.998374 0.000000
vt 0.212503 0.055962
vt 0.261095 0.055962
vt 0.261095 0.455547
vt 0.212503 0.455547
vt 0.299659 0.055962
vt 0.299659 0.455547
vt 0.348252 0.055962
vt 0.348251 0.455547
vt 0.402117 0.055962
vt 0.402117 0.455547
vt 0.455982 0.055962
vt 0.455982 0.455547
vt 0.504575 0.055962
vt 0.504575 0.455547
vt 0.543139 0.055962
vt 0.543138 0.455547
vt 0.591731 0.055962
vt 0.591731 0.455547
vt 0.645597 0.055962
vt 0.645596 0.455547
vt 0.699462 0.055962
vt 0.699462 0.455547
vt 0.748055 0.055962
vt 0.748054 0.455547
vt 0.786618 0.055962
vt 0.786618 0.455547
vt 0.835210 0.055962
vt 0.835211 0.455547
vt 0.889076 0.055962
vt 0.889076 0.455547
vt 0.942941 0.055962
vt 0.942941 0.455547
vt 0.991534 0.055962
vt 0.991534 0.455547
vt 0.017616 0.055962
vt 0.056179 0.055962
vt 0.056179 0.455547
vt 0.017616 0.455547
vt 0.104772 0.055962
vt 0.104772 0.455547
vt 0.158637 0.055962
vt 0.158637 0.455547
vt 0.127929 0.850028
vt 0.102626 0.800975
vt 0.272045 0.746599
vt 0.167339 0.888958
vt 0.216998 0.913951
vt 0.272045 0.922564
vt 0.327093 0.913951
vt 0.376752 0.888958
vt 0.416162 0.850028
vt 0.441464 0.800975
vt 0.450183 0.746599
vt 0.441464 0.692223
vt 0.416162 0.643169
vt 0.376752 0.604240
vt 0.327093 0.579246
vt 0.272045 0.570634
vt 0.216998 0.579246
vt 0.167339 0.604240
vt 0.127929 0.643169
vt 0.102626 0.692223
vt 0.093908 0.746599
vt 0.443281 0.801523
vt 0.417787 0.851558
vt 0.272579 0.746058
vt 0.378078 0.891266
vt 0.328043 0.916760
vt 0.272579 0.925545
vt 0.217114 0.916760
vt 0.167079 0.891266
vt 0.127371 0.851558
vt 0.101877 0.801523
vt 0.093092 0.746058
vt 0.101877 0.690594
vt 0.127371 0.640559
vt 0.167079 0.600851
vt 0.217114 0.575357
vt 0.272579 0.566572
vt 0.328043 0.575357
vt 0.378078 0.600851
vt 0.417786 0.640559
vt 0.443281 0.690594
vt 0.452065 0.746058
vn 0.317385 0.000000 0.948297
vn 0.599175 0.000000 0.800618
vn 0.599175 0.000000 0.800618
vn 0.317385 0.000000 0.948297
vn 0.599175 0.000000 0.800618
vn 0.817180 0.000000 0.576383
vn 0.817180 0.000000 0.576383
vn 0.599175 0.000000 0.800618
vn 0.817180 0.000000 0.576383
vn 0.953680 0.000000 0.300823
vn 0.953680 0.000000 0.300823
vn 0.817180 0.000000 0.576383
vn 0.953680 0.000000 0.300823
vn 1.000000 0.000000 0.000000
vn 1.000000 0.000000 0.000000
vn 0.953680 0.000000 0.300823
vn 1.000000 0.000000 0.000000
vn 0.953680 0.000000 -0.300824
vn 0.953680 0.000000 -0.300824
vn 1.000000 0.000000 0.000000
vn 0.953680 0.000000 -0.300824
vn 0.817179 0.000000 -0.576384
vn 0.817179 0.000000 -0.576384
vn 0.953680 0.000000 -0.300824
vn 0.817179 0.000000 -0.576384
vn 0.599175 0.000000 -0.800618
vn 0.599175 0.000000 -0.800618
vn 0.817179 0.000000 -0.576384
vn 0.599175 0.000000 -0.800618
vn 0.317385 0.000000 -0.948297
vn 0.317385 0.000000 -0.948297
vn 0.599175 0.000000 -0.800618
vn 0.317385 0.000000 -0.948297
vn 0.000000 0.000000 -1.000000
vn 0.000000 0.000000 -1.000000
vn 0.317385 0.000000 -0.948297
vn 0.000000 0.000000 -1.000000
vn -0.317386 0.000000 -0.948296
vn -0.317386 0.000000 -0.948296
vn 0.000000 0.000000 -1.000000
vn -0.317386 0.000000 -0.948296
vn -0.599175 0.000000 -0.800618
vn -0.599175 0.000000 -0.800618
vn -0.317386 0.000000 -0.948296
vn -0.599175 0.000000 -0.800618
vn -0.817180 0.000000 -0.576383
vn -0.817180 0.000000 -0.576383
vn -0.599175 0.000000 -0.800618
vn -0.817180 0.000000 -0.576383
vn -0.953680 0.000000 -0.300823
vn -0.953680 0.000000 -0.300823
vn -0.817180 0.000000 -0.576383
vn -0.953680 0.000000 -0.300823
vn -1.000000 0.000000 -0.000000
vn -1.000000 0.000000 -0.000000
vn -0.953680 0.000000 -0.300823
vn -1.000000 0.000000 -0.000000
vn -0.953680 0.000000 0.300823
vn -0.953680 0.000000 0.300823
vn -1.000000 0.000000 -0.000000
vn -0.953680 0.000000 0.300823
vn -0.817180 0.000000 0.576383
vn -0.817180 0.000000 0.576383
vn -0.953680 0.000000 0.300823
vn -0.817180 0.000000 0.576383
vn -0.599175 0.000000 0.800618
vn -0.599175 0.000000 0.800618
vn -0.817180 0.000000 0.576383
vn -0.599175 0.000000 0.800618
vn -0.317386 0.000000 0.948296
vn -0.317386 0.000000 0.948296
vn -0.599175 0.000000 0.800618
vn -0.317386 0.000000 0.948296
vn -0.000001 0.000000 1.000000
vn -0.000001 0.000000 1.000000
vn -0.317386 0.000000 0.948296
vn -0.000001 0.000000 1.000000
vn 0.317385 0.000000 0.948297
vn 0.317385 0.000000 0.948297
vn -0.000001 0.000000 1.000000
vn 0.000000 -1.000000 0.000000
vn 0.000000 -1.000000 0.000000
vn 0.000000 -1.000000 0.000000
vn 0.000000 -1.000000 0.000000
vn 0.000000 -1.000000 0.000000
vn 0.000000 -1.000000 0.000000
vn 0.000000 -1.000000 0.000000
vn 0.000000 -1.000000 0.000000
vn 0.000000 -1.000000 0.000000
vn 0.000000 -1.000000 0.000000
vn 0.000000 -1.000000 0.000000
vn 0.000000 -1.000000 0.000000
vn 0.000000 -1.000000 0.000000
vn 0.000000 -1.000000 0.000000
vn 0.000000 -1.000000 0.000000
vn 0.000000 -1.000000 0.000000
vn 0.000000 -1.000000 0.000000
vn 0.000000 -1.000000 0.000000
vn 0.000000 -1.000000 0.000000
vn 0.000000 -1.000000 0.000000
vn 0.000000 -1.000000 0.000000
vn 0.000000 -1.000000 0.000000
vn 0.000000 -1.000000 0.000000
vn 0.000000 -1.000000 0.000000
vn 0.000000 -1.000000 0.000000
vn 0.000000 -1.000000 0.000000
vn 0.000000 -1.000000 0.000000
vn 0.000000 -1.000000 0.000000
vn 0.000000 -1.000000 0.000000
vn 0.000000 -1.000000 0.000000
vn 0.000000 -1.000000 0.000000
vn 0.000000 -1.000000 0.000000
vn 0.000000 -1.000000 0.000000
vn 0.000000 -1.000000 0.000000
vn 0.000000 -1.000000 0.000000
vn 0.000000 -1.000000 0.000000
vn 0.000000 -1.000000 0.000000
vn 0.000000 -1.000000 0.000000
vn 0.000000 -1.000000 0.000000
vn 0.000000 -1.000000 0.000000
vn 0.000000 -1.000000 0.000000
vn 0.000000 -1.000000 0.000000
vn 0.000000 -1.000000 0.000000
vn 0.000000 -1.000000 0.000000
vn 0.000000 -1.000000 0.000000
vn 0.000000 -1.000000 0.000000
vn 0.000000 -1.000000 0.000000
vn 0.000000 -1.000000 0.000000
vn 0.000000 -1.000000 0.000000
vn 0.000000 -1.000000 0.000000
vn 0.000000 -1.000000 0.000000
vn 0.000000 -1.000000 0.000000
vn 0.000000 -1.000000 0.000000
vn 0.000000 -1.000000 0.000000
vn 0.000000 -1.000000 0.000000
vn 0.000000 -1.000000 0.000000
vn 0.000000 -1.000000 0.000000
vn 0.000000 -1.000000 0.000000
vn 0.000000 -1.000000 0.000000
vn 0.000000 -1.000000 0.000000
vn 0.000000 1.000000 -0.000000
vn 0.000000 1.000000 -0.000000
vn 0.000000 1.000000 -0.000000
vn 0.000000 1.000000 -0.000000
vn 0.000000 1.000000 -0.000000
vn 0.000000 1.000000 -0.000000
vn 0.000000 1.000000 -0.000000
vn 0.000000 1.000000 -0.000000
vn 0.000000 1.000000 -0.000000
vn 0.000000 1.000000 -0.000000
vn 0.000000 1.000000 -0.000000
vn 0.000000 1.000000 -0.000000
vn 0.000000 1.000000 -0.000000
vn 0.000000 1.000000 -0.000000
vn 0.000000 1.000000 -0.000000
vn 0.000000 1.000000 -0.000000
vn 0.000000 1.000000 -0.000000
vn 0.000000 1.000000 -0.000000
vn 0.000000 1.000000 -0.000000
vn 0.000000 1.000000 -0.000000
vn 0.000000 1.000000 -0.000000
vn 0.000000 1.000000 -0.000000
vn 0.000000 1.000000 -0.000000
vn 0.000000 1.000000 -0.000000
vn 0.000000 1.000000 -0.000000
vn 0.000000 1.000000 -0.000000
vn 0.000000 1.000000 -0.000000
vn 0.000000 1.000000 -0.000000
vn 0.000000 1.000000 -0.000000
vn 0.000000 1.000000 -0.000000
vn 0.000000 1.000000 -0.000000
vn 0.000000 1.000000 -0.000000
vn 0.000000 1.000000 -0.000000
vn 0.000000 1.000000 -0.000000
vn 0.000000 1.000000 -0.000000
vn 0.000000 1.000000 -0.000000
vn 0.000000 1.000000 -0.000000
vn 0.000000 1.000000 -0.000000
vn 0.000000 1.000000 -0.000000
vn 0.000000 1.000000 -0.000000
vn 0.000000 1.000000 -0.000000
vn 0.000000 1.000000 -0.000000
vn 0.000000 1.000000 -0.000000
vn 0.000000 1.000000 -0.000000
vn 0.000000 1.000000 -0.000000
vn 0.000000 1.000000 -0.000000
vn 0.000000 1.000000 -0.000000
vn 0.000000 1.000000 -0.000000
vn 0.000000 1.000000 -0.000000
vn 0.000000 1.000000 -0.000000
vn 0.000000 1.000000 -0.000000
vn 0.000000 1.000000 -0.000000
vn 0.000000 1.000000 -0.000000
vn 0.000000 1.000000 -0.000000
vn 0.000000 1.000000 -0.000000
vn 0.000000 1.000000 -0.000000
vn 0.000000 1.000000 -0.000000
vn 0.000000 1.000000 -0.000000
vn 0.000000 1.000000 -0.000000
vn 0.000000 1.000000 -0.000000
s off
g pCylinder1
usemtl initialShadingGroup
f 1/1/1 2/2/2 22/3/3 21/4/4
f 2/2/5 3/5/6 23/6/7 22/3/8
f 3/5/9 4/7/10 24/8/11 23/6/12
f 4/7/13 5/9/14 25/10/15 24/8/16
f 5/9/17 6/11/18 26/12/19 25/10/20
f 6/11/21 7/13/22 27/14/23 26/12/24
f 7/13/25 8/15/26 28/16/27 27/14/28
f 8/15/29 9/17/30 29/18/31 28/16/32
f 9/17/33 10/19/34 30/20/35 29/18/36
f 10/19/37 11/21/38 31/22/39 30/20/40
f 11/21/41 12/23/42 32/24/43 31/22/44
f 12/23/45 13/25/46 33/26/47 32/24/48
f 13/25/49 14/27/50 34/28/51 33/26/52
f 14/27/53 15/29/54 35/30/55 34/28/56
f 15/29/57 16/31/58 36/32/59 35/30/60
f 16/31/61 17/33/62 37/34/63 36/32/64
f 17/35/65 18/36/66 38/37/67 37/38/68
f 18/36/69 19/39/70 39/40/71 38/37/72
f 19/39/73 20/41/74 40/42/75 39/40/76
f 20/41/77 1/1/78 21/4/79 40/42/80
f 2/43/81 1/44/82 41/45/83
f 3/46/84 2/43/85 41/45/86
f 4/47/87 3/46/88 41/45/89
f 5/48/90 4/47/91 41/45/92
f 6/49/93 5/48/94 41/45/95
f 7/50/96 6/49/97 41/45/98
f 8/51/99 7/50/100 41/45/101
f 9/52/102 8/51/103 41/45/104
f 10/53/105 9/52/106 41/45/107
f 11/54/108 10/53/109 41/45/110
f 12/55/111 11/54/112 41/45/113
f 13/56/114 12/55/115 41/45/116
f 14/57/117 13/56/118 41/45/119
f 15/58/120 14/57/121 41/45/122
f 16/59/123 15/58/124 41/45/125
f 17/60/126 16/59/127 41/45/128
f 18/61/129 17/60/130 41/45/131
f 19/62/132 18/61/133 41/45/134
f 20/63/135 19/62/136 41/45/137
f 1/44/138 20/63/139 41/45/140
f 21/64/141 22/65/142 42/66/143
f 22/65/144 23/67/145 42/66/146
f 23/67/147 24/68/148 42/66/149
f 24/68/150 25/69/151 42/66/152
f 25/69/153 26/70/154 42/66/155
f 26/70/156 27/71/157 42/66/158
f 27/71/159 28/72/160 42/66/161
f 28/72/162 29/73/163 42/66/164
f 29/73/165 30/74/166 42/66/167
f 30/74/168 31/75/169 42/66/170
f 31/75/171 32/76/172 42/66/173
f 32/76/174 33/77/175 42/66/176
f 33/77/177 34/78/178 42/66/179
f 34/78/180 35/79/181 42/66/182
f 35/79/183 36/80/184 42/66/185
f 36/80/186 37/81/187 42/66/188
f 37/81/189 38/82/190 42/66/191
f 38/82/192 39/83/193 42/66/194
f 39/83/195 40/84/196 42/66/197
f 40/84/198 21/64/199 42/66/200
