# This file uses centimeters as units for non-parametric coordinates.

mtllib Elevator.mtl
g default
v -3.984793 0.078925 4.000000
v 3.984793 0.078925 4.000000
v -3.984793 10.121076 4.000000
v 3.984793 10.121076 4.000000
v -3.984793 10.121076 -3.963018
v 3.984793 10.121076 -3.963018
v -3.984793 0.078925 -3.963018
v 3.984793 0.078925 -3.963018
v 3.984793 0.459379 4.012327
v 3.984793 9.740621 4.012327
v -3.984793 0.459379 4.012327
v -3.984793 9.740621 4.012327
v -3.510804 10.121077 4.012327
v 3.510803 10.121077 4.012327
v -3.510804 0.078925 4.012327
v 3.510803 0.078925 4.012327
v 3.510803 0.459379 4.018491
v 3.510803 9.740620 4.018491
v -3.510804 0.459379 4.018491
v -3.510804 9.740620 4.018491
v 3.984793 9.740620 -3.963018
v 3.984793 0.459379 -3.963018
v -3.984793 9.740620 -3.963018
v -3.984793 0.459379 -3.963018
v -3.510804 0.078925 -3.963018
v 3.510803 0.078925 -3.963018
v -3.510804 10.121076 -3.963018
v 3.510803 10.121076 -3.963018
v 3.510803 9.740620 -3.963018
v 3.510803 0.459379 -3.963018
v -3.510804 9.740620 -3.963018
v -3.510804 0.459379 -3.963018
vt 0.375000 0.500000
vt 0.375000 0.583333
vt 0.458333 0.583333
vt 0.458333 0.500000
vt 0.458333 0.250000
vt 0.458333 0.166667
vt 0.375000 0.166667
vt 0.375000 0.250000
vt 0.541667 0.750000
vt 0.625000 0.750000
vt 0.625000 0.666667
vt 0.541667 0.666667
vt 0.625000 0.583333
vt 0.625000 0.500000
vt 0.541667 0.500000
vt 0.541667 0.583333
vt 0.625000 0.666667
vt 0.625000 0.583333
vt 0.541667 0.583333
vt 0.541667 0.666667
vt 0.458333 0.750000
vt 0.541667 0.750000
vt 0.458333 0.666667
vt 0.541667 0.500000
vt 0.458333 0.500000
vt 0.458333 0.583333
vt 0.541667 0.666667
vt 0.541667 0.583333
vt 0.458333 0.583333
vt 0.458333 0.666667
vt 0.375000 0.666667
vt 0.375000 0.750000
vt 0.458333 0.750000
vt 0.458333 0.666667
vt 0.375000 0.583333
vt 0.375000 0.666667
vt 0.625000 0.583333
vt 0.625000 0.666667
vt 0.541667 0.750000
vt 0.458333 0.750000
vt 0.458333 0.500000
vt 0.541667 0.500000
vt 0.375000 0.666667
vt 0.375000 0.583333
vt 0.375000 0.500000
vt 0.625000 0.750000
vt 0.625000 0.500000
vt 0.375000 0.750000
vn -0.012235 0.385067 0.922808
vn -0.203428 0.250957 0.946381
vn -0.475358 0.014701 0.879670
vn -0.019496 0.024289 0.999515
vn 0.475358 -0.014701 0.879670
vn 0.019496 -0.024289 0.999515
vn 0.012236 -0.385067 0.922808
vn 0.203427 -0.250957 0.946382
vn 0.012236 0.385067 0.922808
vn 0.019496 0.024289 0.999515
vn 0.475358 0.014701 0.879670
vn 0.203428 0.250957 0.946381
vn 0.012236 -0.385067 0.922808
vn 0.012236 0.385067 0.922808
vn 0.203428 0.250957 0.946381
vn 0.203427 -0.250957 0.946382
vn -0.475358 -0.014701 0.879670
vn 0.475358 -0.014701 0.879670
vn 0.203427 -0.250957 0.946382
vn -0.203427 -0.250957 0.946382
vn 0.203428 0.250957 0.946381
vn 0.475358 0.014701 0.879670
vn -0.475358 0.014701 0.879670
vn -0.203428 0.250957 0.946381
vn 0.000000 0.000000 1.000000
vn 0.000000 0.000000 1.000000
vn 0.000000 0.000000 1.000000
vn 0.000000 0.000000 1.000000
vn -0.012236 -0.385067 0.922807
vn -0.019496 -0.024289 0.999515
vn -0.475358 -0.014701 0.879670
vn -0.203427 -0.250957 0.946382
vn -0.012235 0.385067 0.922808
vn -0.012236 -0.385067 0.922807
vn -0.203427 -0.250957 0.946382
vn -0.203428 0.250957 0.946381
vn -1.000000 0.000000 -0.000000
vn -1.000000 0.000000 -0.000000
vn -1.000000 0.000000 -0.000000
vn -1.000000 0.000000 -0.000000
vn 1.000000 0.000000 0.000000
vn 1.000000 0.000000 0.000000
vn 1.000000 0.000000 0.000000
vn 1.000000 0.000000 0.000000
vn 0.000000 1.000000 0.000000
vn 0.000000 1.000000 0.000000
vn 0.000000 1.000000 0.000000
vn 0.000000 1.000000 0.000000
vn 0.000000 -1.000000 0.000000
vn 0.000000 -1.000000 0.000000
vn 0.000000 -1.000000 0.000000
vn 0.000000 -1.000000 0.000000
vn 0.000000 -1.000000 0.000000
vn 0.000000 -1.000000 0.000000
vn 0.000000 -1.000000 0.000000
vn 0.000000 -1.000000 0.000000
vn 0.000000 1.000000 0.000000
vn 0.000000 1.000000 0.000000
vn 0.000000 1.000000 0.000000
vn 0.000000 1.000000 0.000000
vn 1.000000 0.000000 0.000000
vn 1.000000 0.000000 0.000000
vn 1.000000 0.000000 0.000000
vn 1.000000 0.000000 0.000000
vn -1.000000 0.000000 0.000000
vn -1.000000 0.000000 0.000000
vn -1.000000 0.000000 0.000000
vn -1.000000 0.000000 0.000000
vn -0.000001 1.000000 -0.000000
vn -0.000001 1.000000 -0.000000
vn -0.000001 1.000000 -0.000000
vn -0.000001 1.000000 -0.000000
vn -1.000000 0.000000 0.000000
vn -1.000000 0.000000 0.000000
vn -0.203428 0.250957 0.946381
vn -0.475358 0.014701 0.879670
vn 0.000000 1.000000 0.000000
vn 0.000000 1.000000 0.000000
vn -0.012235 0.385067 0.922808
vn -0.203428 0.250957 0.946381
vn -1.000000 0.000000 0.000000
vn -1.000000 0.000000 0.000000
vn -1.000000 0.000000 0.000000
vn -1.000000 0.000000 0.000000
vn 1.000000 0.000000 0.000000
vn 1.000000 0.000000 0.000000
vn 0.203427 -0.250957 0.946382
vn 0.475358 -0.014701 0.879670
vn 0.000000 -1.000000 0.000000
vn 0.000000 -1.000000 0.000000
vn 0.012236 -0.385067 0.922808
vn 0.203427 -0.250957 0.946382
vn 1.000000 0.000000 0.000000
vn 1.000000 0.000000 0.000000
vn 1.000000 0.000000 0.000000
vn 1.000000 0.000000 0.000000
vn 0.000000 -1.000000 0.000000
vn 0.000000 -1.000000 0.000000
vn 0.000000 -1.000000 0.000000
vn 0.000000 -1.000000 0.000000
vn -0.000000 1.000000 -0.000000
vn -0.000000 1.000000 -0.000000
vn 0.203428 0.250957 0.946381
vn 0.012236 0.385067 0.922808
vn 1.000000 0.000000 0.000000
vn 1.000000 0.000000 0.000000
vn 0.475358 0.014701 0.879670
vn 0.203428 0.250957 0.946381
vn 0.000001 1.000000 0.000000
vn 0.000001 1.000000 0.000000
vn 0.000001 1.000000 0.000000
vn 0.000001 1.000000 0.000000
vn 1.000000 0.000000 0.000000
vn 1.000000 0.000000 0.000000
vn 1.000000 0.000000 0.000000
vn 1.000000 0.000000 0.000000
vn 0.000000 -1.000000 0.000000
vn 0.000000 -1.000000 0.000000
vn -0.203427 -0.250957 0.946382
vn -0.012236 -0.385067 0.922807
vn -1.000000 0.000000 0.000000
vn -1.000000 0.000000 0.000000
vn -0.475358 -0.014701 0.879670
vn -0.203427 -0.250957 0.946382
vn 0.000000 -1.000000 0.000000
vn 0.000000 -1.000000 0.000000
vn 0.000000 -1.000000 0.000000
vn 0.000000 -1.000000 0.000000
vn -1.000000 0.000000 0.000000
vn -1.000000 0.000000 0.000000
vn -1.000000 0.000000 0.000000
vn -1.000000 0.000000 0.000000
s off
g Elevator:pCube1
usemtl initialShadingGroup
f 12/7/1 20/6/2 13/5/3 3/8/4
f 16/9/5 2/10/6 9/11/7 17/12/8
f 10/13/9 4/14/10 14/15/11 18/16/12
f 9/17/13 10/18/14 18/19/15 17/20/16
f 15/21/17 16/22/18 17/20/19 19/23/20
f 18/19/21 14/24/22 13/25/23 20/26/24
f 30/27/25 29/28/26 31/29/27 32/30/28
f 11/31/29 1/32/30 15/33/31 19/34/32
f 12/35/33 11/36/34 19/23/35 20/26/36
f 30/27/37 17/20/38 18/19/39 29/28/40
f 21/37/41 10/18/42 9/17/43 22/38/44
f 32/30/45 19/23/46 17/20/47 30/27/48
f 26/39/49 16/22/50 15/21/51 25/40/52
f 29/28/53 18/19/54 20/26/55 31/29/56
f 27/41/57 13/25/58 14/24/59 28/42/60
f 31/29/61 20/26/62 19/23/63 32/30/64
f 24/43/65 11/36/66 12/35/67 23/44/68
f 5/45/69 3/1/70 13/4/71 27/41/72
f 27/41/73 31/29/74 20/3/75 13/4/76
f 31/29/77 23/44/78 12/2/79 20/3/80
f 23/44/81 12/2/82 3/1/83 5/45/84
f 26/39/85 30/27/86 17/12/87 16/9/88
f 30/27/89 22/38/90 9/11/91 17/12/92
f 22/38/93 9/11/94 2/10/95 8/46/96
f 8/46/97 2/10/98 16/9/99 26/39/100
f 21/37/101 29/28/102 18/16/103 10/13/104
f 29/28/105 28/42/106 14/15/107 18/16/108
f 28/42/109 14/15/110 4/14/111 6/47/112
f 6/47/113 4/14/114 10/13/115 21/37/116
f 24/43/117 32/30/118 19/34/119 11/31/120
f 32/30/121 25/40/122 15/33/123 19/34/124
f 25/40/125 15/33/126 1/32/127 7/48/128
f 7/48/129 1/32/130 11/31/131 24/43/132
