# This file uses centimeters as units for non-parametric coordinates.

mtllib Elevator.mtl
g default
v -3.984793 0.078925 4.000000
v 3.984793 0.078925 4.000000
v -3.984793 10.121076 4.000000
v 3.984793 10.121076 4.000000
v -3.984793 10.121076 -3.963018
v 3.984793 10.121076 -3.963018
v -3.984793 0.078925 -3.963018
v 3.984793 0.078925 -3.963018
v 3.984793 0.459379 4.012327
v 3.984793 9.740621 4.012327
v -3.984793 0.459379 4.012327
v -3.984793 9.740621 4.012327
v -3.510804 10.121077 4.012327
v 3.510803 10.121077 4.012327
v -3.510804 0.078925 4.012327
v 3.510803 0.078925 4.012327
v 3.510803 0.459379 4.018491
v 3.510803 9.740620 4.018491
v -3.510804 0.459379 4.018491
v -3.510804 9.740620 4.018491
v 3.984793 9.740620 -3.963018
v 3.984793 0.459379 -3.963018
v -3.984793 9.740620 -3.963018
v -3.984793 0.459379 -3.963018
v -3.510804 0.078925 -3.963018
v 3.510803 0.078925 -3.963018
v -3.510804 10.121076 -3.963018
v 3.510803 10.121076 -3.963018
v 3.510803 9.740620 -3.963018
v 3.510803 0.459379 -3.963018
v -3.510804 9.740620 -3.963018
v -3.510804 0.459379 -3.963018
vt 0.375000 0.000000
vt 0.625000 0.000000
vt 0.375000 0.250000
vt 0.625000 0.250000
vt 0.375000 0.500000
vt 0.625000 0.500000
vt 0.375000 0.750000
vt 0.625000 0.750000
vt 0.625000 0.083333
vt 0.625000 0.166667
vt 0.375000 0.083333
vt 0.375000 0.166667
vt 0.458333 0.250000
vt 0.541667 0.250000
vt 0.458333 0.000000
vt 0.541667 0.000000
vt 0.541667 0.083333
vt 0.541667 0.166667
vt 0.458333 0.083333
vt 0.458333 0.166667
vt 0.625000 0.583333
vt 0.625000 0.666667
vt 0.375000 0.583333
vt 0.375000 0.666667
vt 0.458333 0.750000
vt 0.541667 0.750000
vt 0.458333 0.500000
vt 0.541667 0.500000
vt 0.541667 0.583333
vt 0.541667 0.666667
vt 0.458333 0.583333
vt 0.458333 0.666667
vt 0.625000 0.666667
vt 0.541667 0.666667
vt 0.541667 0.583333
vt 0.625000 0.583333
vt 0.458333 0.750000
vt 0.458333 0.666667
vt 0.541667 0.750000
vt 0.458333 0.583333
vt 0.458333 0.500000
vt 0.541667 0.500000
vt 0.375000 0.583333
vt 0.375000 0.666667
vt 0.375000 0.500000
vt 0.458333 0.500000
vt 0.458333 0.583333
vt 0.375000 0.583333
vt 0.541667 0.750000
vt 0.541667 0.666667
vt 0.625000 0.666667
vt 0.625000 0.750000
vt 0.625000 0.583333
vt 0.541667 0.583333
vt 0.541667 0.500000
vt 0.625000 0.500000
vt 0.375000 0.666667
vt 0.458333 0.666667
vt 0.458333 0.750000
vt 0.375000 0.750000
vn -0.019496 -0.024289 0.999515
vn -0.475358 -0.014701 0.879670
vn -0.203427 -0.250957 0.946381
vn -0.012236 -0.385067 0.922807
vn -0.019496 0.024289 0.999515
vn -0.012235 0.385067 0.922808
vn -0.203428 0.250957 0.946381
vn -0.475358 0.014701 0.879670
vn 0.475358 0.014701 0.879670
vn 0.203428 0.250957 0.946381
vn 0.012236 0.385067 0.922808
vn 0.019496 0.024289 0.999515
vn 0.012236 -0.385067 0.922808
vn 0.203427 -0.250957 0.946381
vn 0.475358 -0.014701 0.879669
vn 0.019496 -0.024289 0.999515
vn -0.019496 0.024289 0.999515
vn 0.019496 -0.024289 0.999515
vn 0.019496 0.024289 0.999515
vn 0.000000 0.000000 1.000000
vn 0.000000 0.000000 1.000000
vn 0.000000 0.000000 1.000000
vn 0.000000 0.000000 1.000000
vn -0.019496 -0.024289 0.999515
vn -1.000000 0.000000 -0.000000
vn -1.000000 0.000000 -0.000000
vn -1.000000 0.000000 -0.000000
vn -1.000000 0.000000 -0.000000
vn 1.000000 0.000000 0.000000
vn 1.000000 0.000000 0.000000
vn 1.000000 0.000000 0.000000
vn 1.000000 0.000000 0.000000
vn 0.000000 1.000000 -0.000000
vn 0.000000 1.000000 -0.000000
vn 0.000000 1.000000 -0.000000
vn 0.000000 1.000000 -0.000000
vn 0.000000 -1.000000 0.000000
vn 0.000000 -1.000000 0.000000
vn 0.000000 -1.000000 0.000000
vn 0.000000 -1.000000 0.000000
vn 0.000000 -1.000000 0.000000
vn 0.000000 -1.000000 0.000000
vn 0.000000 -1.000000 0.000000
vn 0.000000 -1.000000 0.000000
vn 0.000000 1.000000 -0.000000
vn 0.000000 1.000000 -0.000000
vn 0.000000 1.000000 -0.000000
vn 0.000000 1.000000 -0.000000
vn 1.000000 0.000000 0.000000
vn 1.000000 0.000000 0.000000
vn 1.000000 0.000000 0.000000
vn 1.000000 0.000000 0.000000
vn -1.000000 0.000000 0.000000
vn -1.000000 0.000000 0.000000
vn -1.000000 0.000000 0.000000
vn -1.000000 0.000000 0.000000
vn -0.000001 1.000000 -0.000000
vn -0.000001 1.000000 -0.000000
vn -0.000001 1.000000 -0.000000
vn -0.000001 1.000000 -0.000000
vn -1.000000 0.000000 0.000000
vn -1.000000 0.000000 0.000000
vn 0.000000 1.000000 -0.000000
vn 0.000000 1.000000 -0.000000
vn -1.000000 0.000000 0.000000
vn -1.000000 0.000000 0.000000
vn -1.000000 0.000000 0.000000
vn -1.000000 0.000000 0.000000
vn 1.000000 0.000000 0.000000
vn 1.000000 0.000000 0.000000
vn 0.000000 -1.000000 0.000000
vn 0.000000 -1.000000 0.000000
vn 1.000000 0.000000 0.000000
vn 1.000000 0.000000 0.000000
vn 1.000000 0.000000 0.000000
vn 1.000000 0.000000 0.000000
vn 0.000000 -1.000000 -0.000000
vn 0.000000 -1.000000 -0.000000
vn 0.000000 -1.000000 -0.000000
vn 0.000000 -1.000000 -0.000000
vn -0.000000 1.000000 -0.000000
vn -0.000000 1.000000 -0.000000
vn 1.000000 0.000000 0.000000
vn 1.000000 0.000000 0.000000
vn 0.000001 1.000000 -0.000000
vn 0.000001 1.000000 -0.000000
vn 0.000001 1.000000 -0.000000
vn 0.000001 1.000000 -0.000000
vn 1.000000 0.000000 0.000000
vn 1.000000 0.000000 0.000000
vn 1.000000 0.000000 0.000000
vn 1.000000 0.000000 0.000000
vn 0.000000 -1.000000 0.000000
vn 0.000000 -1.000000 0.000000
vn -1.000000 0.000000 0.000000
vn -1.000000 0.000000 0.000000
vn -0.000000 -1.000000 -0.000000
vn -0.000000 -1.000000 -0.000000
vn -0.000000 -1.000000 -0.000000
vn -0.000000 -1.000000 -0.000000
vn -1.000000 0.000000 0.000000
vn -1.000000 0.000000 0.000000
vn -1.000000 0.000000 0.000000
vn -1.000000 0.000000 0.000000
s 1
g Elevator_shaft:pCube1
usemtl initialShadingGroup
f 1/1/1 15/15/2 19/19/3 11/11/4
s 2
f 3/45/5 12/48/6 20/47/7 13/46/8
s 3
f 14/14/9 18/18/10 10/10/11 4/4/12
s 4
f 9/9/13 17/17/14 16/16/15 2/2/16
s off
f 10/10/11 18/18/10 17/17/14 9/9/13
f 13/13/8 20/20/7 18/18/10 14/14/9
f 17/17/14 19/19/3 15/15/2 16/16/15
f 12/12/6 20/20/7 13/13/8 3/3/17
f 11/11/4 19/19/3 20/20/7 12/12/6
f 16/49/15 2/52/18 9/51/13 17/50/14
f 10/53/11 4/56/19 14/55/9 18/54/10
f 9/33/13 10/36/11 18/35/10 17/34/14
f 15/37/2 16/39/15 17/34/14 19/38/3
f 18/35/10 14/42/9 13/41/8 20/40/7
f 30/30/20 29/29/21 31/31/22 32/32/23
f 11/57/4 1/60/24 15/59/2 19/58/3
f 12/43/6 11/44/4 19/38/3 20/40/7
f 30/30/25 17/34/26 18/35/27 29/29/28
f 21/21/29 10/36/30 9/33/31 22/22/32
f 32/32/33 19/38/34 17/34/35 30/30/36
f 26/26/37 16/39/38 15/37/39 25/25/40
f 29/29/41 18/35/42 20/40/43 31/31/44
f 27/27/45 13/41/46 14/42/47 28/28/48
f 31/31/49 20/40/50 19/38/51 32/32/52
f 24/24/53 11/44/54 12/43/55 23/23/56
f 5/5/57 3/45/58 13/46/59 27/27/60
s 2
f 27/27/61 31/31/62 20/47/7 13/46/8
f 31/31/63 23/23/64 12/48/6 20/47/7
s off
f 23/23/65 12/48/66 3/45/67 5/5/68
s 4
f 26/26/69 30/30/70 17/50/14 16/49/15
f 30/30/71 22/22/72 9/51/13 17/50/14
s off
f 22/22/73 9/51/74 2/52/75 8/8/76
f 8/8/77 2/52/78 16/49/79 26/26/80
s 3
f 21/21/81 29/29/82 18/54/10 10/53/11
f 29/29/83 28/28/84 14/55/9 18/54/10
s off
f 28/28/85 14/55/86 4/56/87 6/6/88
f 6/6/89 4/56/90 10/53/91 21/21/92
s 1
f 24/24/93 32/32/94 19/58/3 11/57/4
f 32/32/95 25/25/96 15/59/2 19/58/3
s off
f 25/25/97 15/59/98 1/60/99 7/7/100
f 7/7/101 1/60/102 11/57/103 24/24/104
