# This file uses centimeters as units for non-parametric coordinates.

mtllib FoodShelf.mtl
g default
v -3.000000 0.022471 3.000000
v 3.000000 0.022471 3.000000
v -3.000000 1.522471 3.000000
v 3.000000 1.522471 3.000000
v -3.000000 1.522471 -3.000000
v 3.000000 1.522471 -3.000000
v -3.000000 0.022471 -3.000000
v 3.000000 0.022471 -3.000000
v -0.500000 0.137391 0.500000
v 0.500000 0.137391 0.500000
v -0.500000 3.609651 0.500000
v 0.500000 3.609651 0.500000
v -0.500000 3.609651 -0.500000
v 0.500000 3.609651 -0.500000
v -0.500000 0.137391 -0.500000
v 0.500000 0.137391 -0.500000
v -1.905416 3.447978 1.905416
v 1.905416 3.447978 1.905416
v -1.905416 3.647284 1.905416
v 1.905416 3.647284 1.905416
v -1.905416 3.647284 -1.905416
v 1.905416 3.647284 -1.905416
v -1.905416 3.447978 -1.905416
v 1.905416 3.447978 -1.905416
vt 0.013078 0.001259
vt 1.010679 -0.001001
vt 1.008418 0.271134
vt 0.013078 0.271134
vt 0.010013 0.999044
vt 1.009977 1.000435
vt 1.010032 0.274226
vt 0.011886 0.274374
vt 1.007471 0.267234
vt 0.014604 0.267234
vt 0.014604 -0.002876
vt 1.007471 -0.002875
vt 0.931950 0.534595
vt 0.948934 0.534595
vt 0.948934 0.534595
vt 0.931950 0.534595
vt 0.012880 -0.002088
vt 1.011037 -0.003014
vt 1.009022 0.269503
vt 0.010302 0.269503
vt 0.008538 0.000357
vt 1.008011 0.002028
vt 1.006689 0.270947
vt 0.014360 0.270947
vt 0.939027 0.539953
vt 0.941858 0.539953
vt 0.941858 0.701840
vt 0.939027 0.701840
vt 0.941858 0.701840
vt 0.939027 0.701840
vt 0.941858 0.539953
vt 0.939027 0.539953
vt 0.933677 0.693120
vt 0.947208 0.693120
vt 0.947208 0.704776
vt 0.933677 0.704776
vt 1.010064 0.999511
vt 0.010790 0.999812
vt 0.011415 0.274588
vt 1.010613 0.275526
vt 0.933677 0.704776
vt 0.947208 0.704776
vt 0.947208 0.693120
vt 0.933677 0.693120
vn 0.000000 0.000000 1.000000
vn 0.000000 0.000000 1.000000
vn 0.000000 0.000000 1.000000
vn 0.000000 0.000000 1.000000
vn 0.000000 1.000000 0.000000
vn 0.000000 1.000000 0.000000
vn 0.000000 1.000000 0.000000
vn 0.000000 1.000000 0.000000
vn 0.000000 0.000000 -1.000000
vn 0.000000 0.000000 -1.000000
vn 0.000000 0.000000 -1.000000
vn 0.000000 0.000000 -1.000000
vn 0.000000 -1.000000 0.000000
vn 0.000000 -1.000000 0.000000
vn 0.000000 -1.000000 0.000000
vn 0.000000 -1.000000 0.000000
vn 1.000000 0.000000 0.000000
vn 1.000000 0.000000 0.000000
vn 1.000000 0.000000 0.000000
vn 1.000000 0.000000 0.000000
vn -1.000000 0.000000 0.000000
vn -1.000000 0.000000 0.000000
vn -1.000000 0.000000 0.000000
vn -1.000000 0.000000 0.000000
vn 0.000000 0.000000 1.000000
vn 0.000000 0.000000 1.000000
vn 0.000000 0.000000 1.000000
vn 0.000000 0.000000 1.000000
vn 0.000000 1.000000 0.000000
vn 0.000000 1.000000 0.000000
vn 0.000000 1.000000 0.000000
vn 0.000000 1.000000 0.000000
vn 0.000000 0.000000 -1.000000
vn 0.000000 0.000000 -1.000000
vn 0.000000 0.000000 -1.000000
vn 0.000000 0.000000 -1.000000
vn 0.000000 -1.000000 0.000000
vn 0.000000 -1.000000 0.000000
vn 0.000000 -1.000000 0.000000
vn 0.000000 -1.000000 0.000000
vn 1.000000 0.000000 0.000000
vn 1.000000 0.000000 0.000000
vn 1.000000 0.000000 0.000000
vn 1.000000 0.000000 0.000000
vn -1.000000 0.000000 0.000000
vn -1.000000 0.000000 0.000000
vn -1.000000 0.000000 0.000000
vn -1.000000 0.000000 0.000000
vn 0.000000 0.000000 1.000000
vn 0.000000 0.000000 1.000000
vn 0.000000 0.000000 1.000000
vn 0.000000 0.000000 1.000000
vn 0.000000 1.000000 0.000000
vn 0.000000 1.000000 0.000000
vn 0.000000 1.000000 0.000000
vn 0.000000 1.000000 0.000000
vn 0.000000 0.000000 -1.000000
vn 0.000000 0.000000 -1.000000
vn 0.000000 0.000000 -1.000000
vn 0.000000 0.000000 -1.000000
vn 0.000000 -1.000000 0.000000
vn 0.000000 -1.000000 0.000000
vn 0.000000 -1.000000 0.000000
vn 0.000000 -1.000000 0.000000
vn 1.000000 0.000000 0.000000
vn 1.000000 0.000000 0.000000
vn 1.000000 0.000000 0.000000
vn 1.000000 0.000000 0.000000
vn -1.000000 0.000000 0.000000
vn -1.000000 0.000000 0.000000
vn -1.000000 0.000000 0.000000
vn -1.000000 0.000000 0.000000
s off
g pCube4
usemtl initialShadingGroup
f 1/1/1 2/2/2 4/3/3 3/4/4
f 3/5/5 4/6/6 6/7/7 5/8/8
f 5/9/9 6/10/10 8/11/11 7/12/12
f 7/13/13 8/14/14 2/15/15 1/16/16
f 2/17/17 8/18/18 6/19/19 4/20/20
f 7/21/21 1/22/22 3/23/23 5/24/24
f 9/25/25 10/26/26 12/27/27 11/28/28
f 11/28/29 12/27/30 14/29/31 13/30/32
f 13/30/33 14/29/34 16/31/35 15/32/36
f 15/32/37 16/31/38 10/26/39 9/25/40
f 10/26/41 16/31/42 14/29/43 12/27/44
f 15/32/45 9/25/46 11/28/47 13/30/48
f 17/33/49 18/34/50 20/35/51 19/36/52
f 19/37/53 20/38/54 22/39/55 21/40/56
f 21/41/57 22/42/58 24/43/59 23/44/60
f 23/44/61 24/43/62 18/34/63 17/33/64
f 18/34/65 24/43/66 22/42/67 20/35/68
f 23/44/69 17/33/70 19/36/71 21/41/72
