# This file uses centimeters as units for non-parametric coordinates.

mtllib sample_stand.mtl
g default
v 2.219062 -0.026105 -0.982198
v -2.219062 -0.026132 -0.982198
v 2.219062 3.620203 -0.982198
v -2.219062 3.620173 -0.982198
v 2.219062 3.620208 0.982202
v -2.219062 3.620182 0.982202
v 2.219062 -0.026104 0.982202
v -2.219062 -0.026132 0.982202
v -2.219062 3.620173 -0.812773
v -2.219062 3.620182 0.812782
v 2.219062 3.620203 -0.812773
v 2.219062 3.620208 0.812782
v 2.003260 3.620208 0.982202
v -2.003265 3.620183 0.982202
v 2.003260 3.620203 -0.982198
v -2.003265 3.620182 -0.982198
v -2.003265 3.620182 -0.812773
v -2.003265 3.620183 0.812782
v 2.003260 3.620203 -0.812773
v 2.003260 3.620208 0.812782
v -2.003265 7.560544 0.812782
v -2.003265 7.560544 0.982202
v -2.219062 7.560544 0.812782
v -2.219062 7.560544 0.982202
v 2.003260 7.560567 0.812782
v 2.219062 7.560567 0.812782
v 2.003260 7.560567 0.982202
v 2.219062 7.560567 0.982202
v 2.003260 6.293784 0.982202
v 2.003260 6.293784 0.812782
v -2.003265 6.293761 0.982202
v -2.003265 6.293761 0.812782
vt 0.771228 0.503543
vt 0.771228 0.999836
vt 0.004009 0.999836
vt 0.004009 0.503543
vt 0.575765 0.781165
vt 0.575766 0.990980
vt 0.005288 0.990980
vt 0.005288 0.781165
vt 0.830209 0.555850
vt 0.924273 0.555850
vt 0.924272 0.964914
vt 0.830208 0.964914
vt 0.830208 0.833404
vt 0.833697 0.961862
vt 0.992240 0.961862
vt 0.992240 0.548062
vt 0.833697 0.548062
vt 0.825703 0.516025
vt 0.825703 0.997615
vt 0.996768 0.997615
vt 0.996768 0.516025
vt 0.992240 0.961862
vt 0.992240 0.548062
vt 0.833697 0.548062
vt 0.833697 0.961862
vt 0.992240 0.961862
vt 0.992240 0.548062
vt 0.004442 0.990702
vt 0.004442 0.782139
vt 0.578014 0.782139
vt 0.578013 0.990702
vt 0.827570 0.522332
vt 0.928485 0.522332
vt 0.928485 0.963982
vt 0.827570 0.963982
vt 0.827570 0.664318
vt 0.827570 0.532693
vt 0.928485 0.532693
vt 0.928485 0.953621
vt 0.827570 0.953621
vt 0.827570 0.818297
vt 0.824880 0.954605
vt 0.824880 0.554366
vt 0.926258 0.554366
vt 0.926258 0.954605
vt 0.824880 0.554366
vt 0.926258 0.554366
vt 0.926258 0.954605
vt 0.824880 0.954605
vt 0.833697 0.548062
vt 0.833697 0.961862
vt 0.992240 0.548062
vt 0.833697 0.548062
vt 0.829618 0.539891
vt 0.935737 0.539891
vt 0.935737 0.961918
vt 0.829618 0.961918
vt 0.829618 0.539892
vt 0.935737 0.539892
vt 0.935737 0.961918
vt 0.829618 0.961918
vt 0.833697 0.548062
vt 0.992240 0.548062
vt 0.992240 0.961862
vt 0.833697 0.961862
vt 0.992240 0.961862
vt 0.833697 0.961862
vt 0.349659 0.415235
vt 0.349659 0.001252
vt 0.826319 0.001249
vt 0.826319 0.415232
vt 0.803142 0.415233
vt 0.372837 0.415235
vt 0.215906 0.001004
vt 0.215906 0.414987
vt 0.000280 0.414987
vt 0.000280 0.001004
vt 0.977008 0.003857
vt 0.977008 0.417841
vt 0.816752 0.417840
vt 0.816752 0.003857
vt 0.000627 -0.002163
vt 0.999372 -0.002164
vt 0.999373 0.413212
vt 0.000627 0.413214
vt 0.313510 0.418450
vt 0.313510 0.511314
vt 0.001683 0.511314
vt 0.001682 0.418450
vt 0.933506 0.954726
vt 0.829938 0.954726
vt 0.829939 0.532537
vt 0.933507 0.532537
vt 0.933506 0.818997
vt 0.826517 0.973271
vt 0.950661 0.973271
vt 0.950661 0.997034
vt 0.826517 0.997034
vt 0.950661 0.508322
vt 0.950661 0.532086
vt 0.826517 0.532086
vt 0.826517 0.508322
vt 0.951093 0.531837
vt 0.951093 0.996673
vt 0.830206 0.996673
vt 0.830206 0.531837
vn 0.000000 1.000000 -0.000000
vn 0.000000 1.000000 -0.000000
vn 0.000000 1.000000 -0.000000
vn 0.000000 1.000000 -0.000000
vn 0.000006 -1.000000 0.000000
vn 0.000006 -1.000000 0.000000
vn 0.000006 -1.000000 0.000000
vn 0.000006 -1.000000 0.000000
vn 0.000000 1.000000 -0.000000
vn 0.000000 1.000000 -0.000000
vn 0.000000 1.000000 -0.000000
vn 0.000000 1.000000 -0.000000
vn -0.000042 1.000000 -0.000000
vn -0.000042 1.000000 -0.000000
vn -0.000042 1.000000 -0.000000
vn -0.000042 1.000000 -0.000000
vn -0.000022 1.000000 -0.000003
vn -0.000022 1.000000 -0.000003
vn -0.000022 1.000000 -0.000003
vn -0.000022 1.000000 -0.000003
vn -0.000006 1.000000 -0.000000
vn -0.000006 1.000000 -0.000000
vn -0.000006 1.000000 -0.000000
vn -0.000006 1.000000 -0.000000
vn -0.000005 1.000000 -0.000000
vn -0.000005 1.000000 -0.000000
vn -0.000005 1.000000 -0.000000
vn -0.000005 1.000000 -0.000000
vn -0.000006 1.000000 -0.000002
vn -0.000006 1.000000 -0.000002
vn -0.000006 1.000000 -0.000002
vn -0.000006 1.000000 -0.000002
vn 0.000000 1.000000 -0.000000
vn 0.000000 1.000000 -0.000000
vn 0.000000 1.000000 -0.000000
vn 0.000000 1.000000 -0.000000
vn 0.000000 1.000000 -0.000003
vn 0.000000 1.000000 -0.000003
vn 0.000000 1.000000 -0.000003
vn 0.000000 1.000000 -0.000003
vn 1.000000 0.000000 0.000000
vn 1.000000 0.000000 0.000000
vn 1.000000 0.000000 0.000000
vn 1.000000 0.000000 0.000000
vn 0.000000 0.000000 -1.000000
vn 0.000000 0.000000 -1.000000
vn 0.000000 0.000000 -1.000000
vn 0.000000 0.000000 -1.000000
vn 0.000000 0.000000 -1.000000
vn -1.000000 0.000000 -0.000000
vn -1.000000 0.000000 -0.000000
vn -1.000000 0.000000 -0.000000
vn -1.000000 0.000000 -0.000000
vn -1.000000 0.000000 -0.000000
vn -1.000000 0.000000 -0.000000
vn -1.000000 0.000000 -0.000000
vn -1.000000 0.000000 -0.000000
vn -0.000000 0.000000 1.000000
vn -0.000000 0.000000 1.000000
vn -0.000000 0.000000 1.000000
vn -0.000000 0.000000 1.000000
vn -0.000000 0.000000 1.000000
vn 0.000000 0.000000 1.000000
vn 0.000000 0.000000 1.000000
vn 0.000000 0.000000 1.000000
vn 0.000000 0.000000 1.000000
vn -0.000000 0.000000 -1.000000
vn -0.000000 0.000000 -1.000000
vn -0.000000 0.000000 -1.000000
vn -0.000000 0.000000 -1.000000
vn -0.000006 1.000000 -0.000000
vn -0.000006 1.000000 -0.000000
vn -0.000006 1.000000 -0.000000
vn -0.000006 1.000000 -0.000000
vn 0.000006 -1.000000 0.000000
vn 0.000006 -1.000000 0.000000
vn 0.000006 -1.000000 0.000000
vn 0.000006 -1.000000 0.000000
vn 0.000000 0.000000 -1.000000
vn 0.000000 0.000000 -1.000000
vn 0.000000 0.000000 -1.000000
vn 0.000000 0.000000 -1.000000
vn 0.000000 0.000000 -1.000000
vn 0.000000 0.000000 -1.000000
vn 0.000000 0.000000 1.000000
vn 0.000000 0.000000 1.000000
vn 0.000000 0.000000 1.000000
vn 0.000000 0.000000 1.000000
vn 1.000000 0.000000 0.000000
vn 1.000000 0.000000 0.000000
vn 1.000000 0.000000 0.000000
vn 1.000000 0.000000 0.000000
vn -1.000000 0.000000 -0.000000
vn -1.000000 0.000000 -0.000000
vn -1.000000 0.000000 -0.000000
vn -1.000000 0.000000 -0.000000
vn 1.000000 0.000000 0.000000
vn 1.000000 0.000000 0.000000
vn 1.000000 0.000000 0.000000
vn 1.000000 0.000000 0.000000
vn 0.000000 0.000000 -1.000000
vn 0.000000 0.000000 -1.000000
vn 0.000000 0.000000 -1.000000
vn 0.000000 0.000000 -1.000000
vn 0.000000 0.000000 -1.000000
vn -0.000001 0.000000 1.000000
vn -0.000001 0.000000 1.000000
vn -0.000001 0.000000 1.000000
vn -0.000001 0.000000 1.000000
vn -0.000001 0.000000 1.000000
s off
g DM2114_EX08_Stand2:pCube140
usemtl DM2114_EX08_Stand2:lambert6SG
f 3/21/1 15/20/2 19/19/3 11/18/4
f 7/86/5 8/87/6 2/88/7 1/89/8
f 22/95/9 21/96/10 23/97/11 24/98/12
f 9/51/13 17/50/14 16/27/15 4/26/16
f 10/66/17 18/67/18 17/53/19 9/52/20
f 13/62/21 20/63/22 18/64/23 14/65/24
f 17/25/25 19/24/26 15/23/27 16/22/28
f 18/82/29 20/83/30 19/84/31 17/85/32
f 26/99/33 25/100/34 27/101/35 28/102/36
f 11/17/37 19/16/38 20/15/39 12/14/40
f 14/54/41 18/55/42 32/56/43 31/57/44
f 18/37/45 10/38/46 23/39/47 21/40/48 32/41/49
f 10/46/50 6/47/51 24/48/52 23/49/53
f 20/58/54 13/59/55 29/60/56 30/61/57
f 13/9/58 5/10/59 28/11/60 27/12/61 29/13/62
f 29/5/63 27/6/64 22/7/65 31/8/66
f 25/28/67 30/29/68 32/30/69 21/31/70
f 22/95/71 27/101/72 25/100/73 21/96/74
f 29/103/75 31/104/76 32/105/77 30/106/78
f 3/68/79 1/69/80 2/70/81 4/71/82 16/72/83 15/73/84
f 7/1/85 5/2/86 6/3/87 8/4/88
f 1/74/89 3/75/90 5/76/91 7/77/92
f 8/78/93 6/79/94 4/80/95 2/81/96
f 28/42/97 5/43/98 12/44/99 26/45/100
f 25/32/101 26/33/102 12/34/103 20/35/104 30/36/105
f 22/90/106 24/91/107 6/92/108 14/93/109 31/94/110
