# This file uses centimeters as units for non-parametric coordinates.

mtllib shelf.mtl
g default
v -3.018778 0.008514 1.114279
v 3.018778 0.008514 1.114279
v -3.018778 1.443474 1.121864
v 3.018778 1.443474 1.121864
v -3.018778 1.443474 1.036793
v 3.018778 1.443474 1.036793
v -3.018778 0.008514 1.029209
v 3.018778 0.008514 1.029209
v -3.018778 1.443474 -0.956260
v -3.018778 1.443474 -1.120582
v 3.018778 1.443474 -0.956260
v 3.018778 1.443474 -1.120582
v 3.018778 0.008514 -0.956260
v 3.018778 0.008514 -1.120582
v -3.018778 0.008514 -0.956260
v -3.018778 0.008514 -1.120582
v -3.018778 2.825615 -0.956260
v -3.018778 3.000539 -0.956260
v -3.018778 4.904629 -0.956260
v -3.018778 5.095487 -0.956260
v -3.018778 6.937353 -0.956260
v 3.018778 2.825615 -0.956260
v 3.018778 3.000539 -0.956260
v 3.018778 4.904629 -0.956260
v 3.018778 5.095487 -0.956260
v 3.018778 6.937353 -0.956260
v 3.018778 2.825615 -1.120582
v 3.018778 3.000539 -1.120582
v 3.018778 4.904629 -1.120582
v 3.018778 5.095487 -1.120582
v 3.018778 6.937353 -1.120582
v -3.018778 2.825615 -1.120582
v -3.018778 3.000539 -1.120582
v -3.018778 4.904629 -1.120582
v -3.018778 5.095487 -1.120582
v -3.018778 6.937353 -1.120582
v -3.018778 2.825615 1.036861
v -3.018778 2.825615 1.121200
v 3.018778 2.825615 1.036861
v 3.018778 2.825615 1.121200
v 3.018778 3.000539 1.044445
v 3.018778 3.000539 1.128784
v -3.018778 3.000539 1.044445
v -3.018778 3.000539 1.128784
v -3.018778 4.904629 1.036861
v -3.018778 4.904629 1.121200
v 3.018778 4.904629 1.036861
v 3.018778 4.904629 1.121200
v 3.018778 5.095487 1.044445
v 3.018778 5.095487 1.128784
v -3.018778 5.095487 1.044445
v -3.018778 5.095487 1.128784
v -3.018778 5.319343 1.044445
v 3.018778 5.319343 1.044445
v -3.018778 5.319343 1.128784
v 3.018778 5.319343 1.128784
v -3.018778 3.224395 1.044445
v 3.018778 3.224395 1.044445
v -3.018778 3.224395 1.128784
v 3.018778 3.224395 1.128784
v -3.018778 1.667328 1.121864
v 3.018778 1.667328 1.121864
v 3.018778 1.667328 1.036793
v -3.018778 1.667328 1.036793
vt 0.296066 0.020578
vt 0.730243 0.020578
vt 0.730243 0.067858
vt 0.296066 0.067858
vt 0.296101 0.921918
vt 0.730278 0.921912
vt 0.730285 0.969192
vt 0.296108 0.969197
vt 0.296066 0.195336
vt 0.730243 0.195336
vt 0.730243 0.198941
vt 0.296066 0.198941
vt 0.978961 0.969185
vt 0.969495 0.969185
vt 0.970330 0.921905
vt 0.979796 0.921905
vt 0.056899 0.969204
vt 0.047433 0.969204
vt 0.046581 0.921924
vt 0.056047 0.921924
vt 0.296066 0.086214
vt 0.730243 0.086213
vt 0.730243 0.170665
vt 0.296067 0.170665
vt 0.296087 0.733940
vt 0.730263 0.733934
vt 0.730264 0.740897
vt 0.296088 0.740903
vt 0.748571 0.969191
vt 0.748560 0.921912
vt 0.296066 0.111206
vt 0.730243 0.111206
vt 0.296066 0.104243
vt 0.730243 0.104243
vt 0.277816 0.921918
vt 0.277825 0.969198
vt 0.730244 0.216204
vt 0.296068 0.216205
vt 0.296069 0.304233
vt 0.730245 0.304232
vt 0.730245 0.309995
vt 0.296069 0.309996
vt 0.296071 0.413097
vt 0.730247 0.413096
vt 0.730249 0.475832
vt 0.296073 0.475834
vt 0.296076 0.563862
vt 0.730253 0.563860
vt 0.730253 0.570149
vt 0.296077 0.570150
vt 0.296082 0.673253
vt 0.730259 0.673248
vt 0.730266 0.876373
vt 0.748551 0.876372
vt 0.730266 0.870609
vt 0.748550 0.870609
vt 0.730253 0.807872
vt 0.748537 0.807872
vt 0.730251 0.801584
vt 0.748536 0.801583
vt 0.730239 0.740897
vt 0.748523 0.740897
vt 0.296098 0.876378
vt 0.730275 0.876373
vt 0.296098 0.870614
vt 0.730275 0.870609
vt 0.296094 0.807877
vt 0.730270 0.807872
vt 0.296093 0.801589
vt 0.730269 0.801584
vt 0.277807 0.876378
vt 0.296092 0.876378
vt 0.277806 0.870615
vt 0.296090 0.870614
vt 0.277794 0.807878
vt 0.296079 0.807877
vt 0.277793 0.801589
vt 0.296077 0.801589
vt 0.277781 0.740903
vt 0.296066 0.740903
vt 0.730245 0.300658
vt 0.296068 0.300659
vt 0.971171 0.870602
vt 0.970328 0.876365
vt 0.980555 0.870602
vt 0.979712 0.876365
vt 0.296069 0.328321
vt 0.730246 0.328320
vt 0.056030 0.876385
vt 0.055185 0.870621
vt 0.046646 0.876385
vt 0.045801 0.870621
vt 0.730253 0.560286
vt 0.296076 0.560288
vt 0.971156 0.801577
vt 0.970314 0.807865
vt 0.980540 0.801576
vt 0.979698 0.807865
vt 0.296077 0.588477
vt 0.730253 0.588473
vt 0.056017 0.807884
vt 0.055172 0.801596
vt 0.046633 0.807884
vt 0.045788 0.801596
vt 0.730253 0.581097
vt 0.296077 0.581101
vt 0.296077 0.577526
vt 0.730253 0.577524
vt 0.730245 0.320945
vt 0.296069 0.320946
vt 0.296069 0.317372
vt 0.730245 0.317371
vt 0.296066 0.075233
vt 0.730242 0.075233
vt 0.730243 0.078838
vt 0.296066 0.078838
vt 0.045787 0.794220
vt 0.055171 0.794220
vt 0.971155 0.794201
vt 0.980539 0.794201
vt 0.045799 0.863246
vt 0.055184 0.863245
vt 0.971169 0.863226
vt 0.980553 0.863226
vt 0.970328 0.914529
vt 0.979794 0.914529
vt 0.046579 0.914549
vt 0.056045 0.914548
vn 0.000000 -0.005285 0.999986
vn 0.000000 -0.005285 0.999986
vn 0.000000 -0.004572 0.999990
vn 0.000000 -0.004572 0.999990
vn 0.000000 0.000000 -1.000000
vn 0.000000 0.000000 -1.000000
vn 0.000000 0.000000 -1.000000
vn 0.000000 0.000000 -1.000000
vn 0.000000 -1.000000 0.000000
vn 0.000000 -1.000000 0.000000
vn 0.000000 -1.000000 0.000000
vn 0.000000 -1.000000 0.000000
vn 1.000000 0.000000 0.000000
vn 1.000000 -0.000000 0.000000
vn 1.000000 -0.000000 0.000000
vn 1.000000 0.000000 0.000000
vn -1.000000 0.000000 0.000000
vn -1.000000 0.000000 0.000000
vn -1.000000 0.000000 0.000000
vn -1.000000 0.000000 0.000000
vn 0.000000 1.000000 0.000000
vn 0.000000 1.000000 0.000000
vn 0.000000 1.000000 0.000000
vn 0.000000 1.000000 0.000000
vn 0.000000 1.000000 0.000000
vn 0.000000 1.000000 0.000000
vn 0.000000 1.000000 0.000000
vn 0.000000 1.000000 0.000000
vn 1.000000 -0.000000 0.000000
vn 1.000000 -0.000000 0.000000
vn 1.000000 -0.000000 0.000000
vn 1.000000 -0.000000 0.000000
vn 1.000000 -0.000000 0.000000
vn 1.000000 -0.000000 0.000000
vn 1.000000 0.000000 0.000000
vn 1.000000 0.000000 0.000000
vn 0.000000 -1.000000 0.000000
vn 0.000000 -1.000000 0.000000
vn 0.000000 -1.000000 0.000000
vn 0.000000 -1.000000 0.000000
vn 0.000000 -1.000000 0.000000
vn 0.000000 -1.000000 0.000000
vn 0.000000 -1.000000 0.000000
vn 0.000000 -1.000000 0.000000
vn -1.000000 0.000000 0.000000
vn -1.000000 0.000000 0.000000
vn -1.000000 0.000000 0.000000
vn -1.000000 0.000000 0.000000
vn -1.000000 0.000000 0.000000
vn -1.000000 0.000000 0.000000
vn -1.000000 0.000000 0.000000
vn -1.000000 0.000000 0.000000
vn 0.000000 0.000000 1.000000
vn 0.000000 0.000000 1.000000
vn 0.000000 0.000000 1.000000
vn 0.000000 0.000000 1.000000
vn 0.000000 -0.043315 0.999062
vn 0.000000 -0.043315 0.999062
vn 0.000000 -0.019015 0.999819
vn 0.000000 -0.019015 0.999819
vn 0.000000 0.000000 1.000000
vn 0.000000 0.000000 1.000000
vn 0.000000 0.000000 1.000000
vn 0.000000 0.000000 1.000000
vn 0.000000 -0.039705 0.999211
vn 0.000000 -0.039705 0.999211
vn 0.000000 -0.018285 0.999833
vn 0.000000 -0.018285 0.999833
vn 0.000000 0.000000 1.000000
vn 0.000000 0.000000 1.000000
vn 0.000000 0.000000 1.000000
vn 0.000000 0.000000 1.000000
vn 1.000000 -0.000000 0.000000
vn 1.000000 0.000000 0.000000
vn 1.000000 0.000000 0.000000
vn 1.000000 0.000000 0.000000
vn 1.000000 0.000000 0.000000
vn 1.000000 0.000000 0.000000
vn 1.000000 0.000000 0.000000
vn 1.000000 0.000000 0.000000
vn 1.000000 0.000000 0.000000
vn 1.000000 0.000000 0.000000
vn 1.000000 0.000000 0.000000
vn 1.000000 0.000000 0.000000
vn 1.000000 0.000000 0.000000
vn 1.000000 0.000000 0.000000
vn 1.000000 0.000000 0.000000
vn 1.000000 0.000000 0.000000
vn 1.000000 0.000000 0.000000
vn 1.000000 0.000000 0.000000
vn 1.000000 0.000000 0.000000
vn 1.000000 0.000000 0.000000
vn 0.000000 0.000000 -1.000000
vn 0.000000 0.000000 -1.000000
vn 0.000000 0.000000 -1.000000
vn 0.000000 0.000000 -1.000000
vn 0.000000 0.000000 -1.000000
vn 0.000000 0.000000 -1.000000
vn 0.000000 0.000000 -1.000000
vn 0.000000 0.000000 -1.000000
vn 0.000000 0.000000 -1.000000
vn 0.000000 0.000000 -1.000000
vn 0.000000 0.000000 -1.000000
vn 0.000000 0.000000 -1.000000
vn 0.000000 0.000000 -1.000000
vn 0.000000 0.000000 -1.000000
vn 0.000000 0.000000 -1.000000
vn 0.000000 0.000000 -1.000000
vn 0.000000 0.000000 -1.000000
vn 0.000000 0.000000 -1.000000
vn 0.000000 0.000000 -1.000000
vn 0.000000 0.000000 -1.000000
vn -1.000000 0.000000 0.000000
vn -1.000000 0.000000 0.000000
vn -1.000000 0.000000 0.000000
vn -1.000000 0.000000 0.000000
vn -1.000000 0.000000 0.000000
vn -1.000000 0.000000 0.000000
vn -1.000000 0.000000 0.000000
vn -1.000000 0.000000 0.000000
vn -1.000000 0.000000 0.000000
vn -1.000000 0.000000 0.000000
vn -1.000000 0.000000 0.000000
vn -1.000000 0.000000 0.000000
vn -1.000000 0.000000 0.000000
vn -1.000000 0.000000 0.000000
vn -1.000000 0.000000 0.000000
vn -1.000000 0.000000 0.000000
vn -1.000000 0.000000 0.000000
vn -1.000000 0.000000 0.000000
vn -1.000000 0.000000 0.000000
vn -1.000000 0.000000 0.000000
vn 0.000000 -1.000000 0.000000
vn 0.000000 -1.000000 0.000000
vn 0.000000 -1.000000 0.000000
vn 0.000000 -1.000000 0.000000
vn 0.000000 -1.000000 0.000000
vn 0.000000 -1.000000 0.000000
vn 0.000000 -1.000000 0.000000
vn 0.000000 -1.000000 0.000000
vn 1.000000 0.000000 0.000000
vn 1.000000 0.000000 0.000000
vn 1.000000 0.000000 0.000000
vn 1.000000 0.000000 0.000000
vn 1.000000 0.000000 0.000000
vn 1.000000 0.000000 0.000000
vn 1.000000 0.000000 0.000000
vn 1.000000 0.000000 0.000000
vn 0.000000 1.000000 0.000000
vn 0.000000 1.000000 0.000000
vn 0.000000 1.000000 0.000000
vn 0.000000 1.000000 0.000000
vn -1.000000 0.000000 0.000000
vn -1.000000 0.000000 0.000000
vn -1.000000 0.000000 0.000000
vn -1.000000 0.000000 0.000000
vn -1.000000 0.000000 0.000000
vn -1.000000 0.000000 0.000000
vn -1.000000 0.000000 0.000000
vn -1.000000 0.000000 0.000000
vn 0.000000 -1.000000 0.000000
vn 0.000000 -1.000000 0.000000
vn 0.000000 -1.000000 0.000000
vn 0.000000 -1.000000 0.000000
vn 0.000000 -1.000000 0.000000
vn 0.000000 -1.000000 0.000000
vn 0.000000 -1.000000 0.000000
vn 0.000000 -1.000000 0.000000
vn 1.000000 0.000000 0.000000
vn 1.000000 0.000000 0.000000
vn 1.000000 0.000000 0.000000
vn 1.000000 0.000000 0.000000
vn 1.000000 0.000000 0.000000
vn 1.000000 0.000000 0.000000
vn 1.000000 0.000000 0.000000
vn 1.000000 0.000000 0.000000
vn 0.000000 1.000000 0.000000
vn 0.000000 1.000000 0.000000
vn 0.000000 1.000000 0.000000
vn 0.000000 1.000000 0.000000
vn -1.000000 0.000000 0.000000
vn -1.000000 0.000000 0.000000
vn -1.000000 0.000000 0.000000
vn -1.000000 0.000000 0.000000
vn -1.000000 0.000000 0.000000
vn -1.000000 0.000000 0.000000
vn -1.000000 0.000000 0.000000
vn -1.000000 0.000000 0.000000
vn 0.000000 1.000000 0.000000
vn 0.000000 1.000000 0.000000
vn 0.000000 1.000000 0.000000
vn 0.000000 1.000000 0.000000
vn 0.000000 1.000000 0.000000
vn 0.000000 1.000000 0.000000
vn 0.000000 1.000000 0.000000
vn 0.000000 1.000000 0.000000
vn 0.000000 1.000000 0.000000
vn 0.000000 1.000000 0.000000
vn 0.000000 1.000000 0.000000
vn 0.000000 1.000000 0.000000
vn 0.000000 0.000000 -1.000000
vn 0.000000 0.000000 -1.000000
vn 0.000000 0.000000 -1.000000
vn 0.000000 0.000000 -1.000000
vn -1.000000 0.000000 0.000000
vn -1.000000 0.000000 0.000000
vn -1.000000 0.000000 0.000000
vn -1.000000 0.000000 0.000000
vn 0.000000 -0.018285 0.999833
vn 0.000000 -0.018285 0.999833
vn 0.000000 0.000000 1.000000
vn 0.000000 0.000000 1.000000
vn 1.000000 0.000000 0.000000
vn 1.000000 0.000000 0.000000
vn 1.000000 0.000000 0.000000
vn 1.000000 0.000000 0.000000
vn 0.000000 0.000000 -1.000000
vn 0.000000 0.000000 -1.000000
vn 0.000000 0.000000 -1.000000
vn 0.000000 0.000000 -1.000000
vn -1.000000 0.000000 0.000000
vn -1.000000 0.000000 0.000000
vn -1.000000 0.000000 0.000000
vn -1.000000 0.000000 0.000000
vn 0.000000 -0.019015 0.999819
vn 0.000000 -0.019015 0.999819
vn 0.000000 0.000000 1.000000
vn 0.000000 0.000000 1.000000
vn 1.000000 0.000000 0.000000
vn 1.000000 0.000000 0.000000
vn 1.000000 0.000000 0.000000
vn 1.000000 0.000000 0.000000
vn 0.000000 -0.004572 0.999990
vn 0.000000 -0.004572 0.999990
vn 0.000000 0.000000 1.000000
vn 0.000000 0.000000 1.000000
vn 1.000000 0.000000 0.000000
vn 1.000000 -0.000000 0.000000
vn 1.000000 0.000000 0.000000
vn 1.000000 0.000000 0.000000
vn 0.000000 0.000000 -1.000000
vn 0.000000 0.000000 -1.000000
vn 0.000000 0.000000 -1.000000
vn 0.000000 0.000000 -1.000000
vn -1.000000 0.000000 0.000000
vn -1.000000 0.000000 0.000000
vn -1.000000 0.000000 0.000000
vn -1.000000 0.000000 0.000000
s off
g shelf:Shelf
usemtl initialShadingGroup
f 1/1/1 2/2/2 4/3/3 3/4/4
f 10/5/5 12/6/6 14/7/7 16/8/8
f 7/9/9 8/10/10 2/11/11 1/12/12
f 2/13/13 8/14/14 6/15/15 4/16/16
f 7/17/17 1/18/18 3/19/19 5/20/20
f 5/21/21 6/22/22 11/23/23 9/24/24
f 21/25/25 26/26/26 31/27/27 36/28/28
f 6/15/29 8/14/30 13/29/31 11/30/32
f 11/30/33 13/29/34 14/7/35 12/6/36
f 8/10/37 7/9/38 15/31/39 13/32/40
f 13/32/41 15/31/42 16/33/43 14/34/44
f 7/17/45 5/20/46 9/35/47 15/36/48
f 15/36/49 9/35/50 10/5/51 16/8/52
f 9/24/53 11/23/54 22/37/55 17/38/56
f 38/39/57 40/40/58 42/41/59 44/42/60
f 18/43/61 23/44/62 24/45/63 19/46/64
f 46/47/65 48/48/66 50/49/67 52/50/68
f 20/51/69 25/52/70 26/26/71 21/25/72
f 11/30/73 12/6/74 27/53/75 22/54/76
f 22/54/77 27/53/78 28/55/79 23/56/80
f 23/56/81 28/55/82 29/57/83 24/58/84
f 24/58/85 29/57/86 30/59/87 25/60/88
f 25/60/89 30/59/90 31/61/91 26/62/92
f 12/6/93 10/5/94 32/63/95 27/64/96
f 27/64/97 32/63/98 33/65/99 28/66/100
f 28/66/101 33/65/102 34/67/103 29/68/104
f 29/68/105 34/67/106 35/69/107 30/70/108
f 30/70/109 35/69/110 36/28/111 31/27/112
f 10/5/113 9/35/114 17/71/115 32/72/116
f 32/72/117 17/71/118 18/73/119 33/74/120
f 33/74/121 18/73/122 19/75/123 34/76/124
f 34/76/125 19/75/126 20/77/127 35/78/128
f 35/78/129 20/77/130 21/79/131 36/80/132
f 17/38/133 22/37/134 39/81/135 37/82/136
f 37/82/137 39/81/138 40/40/139 38/39/140
f 22/54/141 23/56/142 41/83/143 39/84/144
f 39/84/145 41/83/146 42/85/147 40/86/148
f 23/44/149 18/43/150 43/87/151 41/88/152
f 18/73/153 17/71/154 37/89/155 43/90/156
f 43/90/157 37/89/158 38/91/159 44/92/160
f 19/46/161 24/45/162 47/93/163 45/94/164
f 45/94/165 47/93/166 48/48/167 46/47/168
f 24/58/169 25/60/170 49/95/171 47/96/172
f 47/96/173 49/95/174 50/97/175 48/98/176
f 25/52/177 20/51/178 51/99/179 49/100/180
f 20/77/181 19/75/182 45/101/183 51/102/184
f 51/102/185 45/101/186 46/103/187 52/104/188
f 54/105/189 53/106/190 55/107/191 56/108/192
f 58/109/193 57/110/194 59/111/195 60/112/196
f 61/113/197 62/114/198 63/115/199 64/116/200
f 49/100/201 51/99/202 53/106/203 54/105/204
f 51/102/205 52/104/206 55/117/207 53/118/208
f 52/50/209 50/49/210 56/108/211 55/107/212
f 50/97/213 49/95/214 54/119/215 56/120/216
f 41/88/217 43/87/218 57/110/219 58/109/220
f 43/90/221 44/92/222 59/121/223 57/122/224
f 44/42/225 42/41/226 60/112/227 59/111/228
f 42/85/229 41/83/230 58/123/231 60/124/232
f 3/4/233 4/3/234 62/114/235 61/113/236
f 4/16/237 6/15/238 63/125/239 62/126/240
f 6/22/241 5/21/242 64/116/243 63/115/244
f 5/20/245 3/19/246 61/127/247 64/128/248
