# This file uses centimeters as units for non-parametric coordinates.

mtllib supermarket_test_6.mtl
g default
v -21.792596 18.434446 16.430155
v 21.792596 18.434446 16.430155
v -21.792596 19.328671 16.430155
v 21.792596 19.328671 16.430155
v -21.792596 19.328671 -16.430155
v 21.792596 19.328671 -16.430155
v -21.792596 18.434446 -16.430155
v 21.792596 18.434446 -16.430155
vt 0.119797 0.533222
vt 0.161102 0.533222
vt 0.119797 0.583222
vt 0.161102 0.583222
vt 0.119797 0.633222
vt 0.161102 0.633222
vt 0.032455 0.026041
vt 0.161102 0.683222
vt 0.032455 0.276041
vt 0.282455 0.276041
vt 0.202406 0.533222
vt 0.202406 0.583222
vt 0.078493 0.533222
vt 0.078493 0.583222
vt 0.282455 0.026041
vt 0.119797 0.683222
vt 0.161102 0.533222
vt 0.119797 0.533222
vt 0.161102 0.633222
vt 0.119797 0.633222
vt 0.161102 0.583222
vt 0.161102 0.583222
vt 0.119797 0.583222
vt 0.119797 0.583222
vn 0.000000 0.000000 1.000000
vn 0.000000 0.000000 1.000000
vn 0.000000 0.000000 1.000000
vn 0.000000 0.000000 1.000000
vn 0.000000 1.000000 0.000000
vn 0.000000 1.000000 0.000000
vn 0.000000 1.000000 0.000000
vn 0.000000 1.000000 0.000000
vn 0.000000 0.000000 -1.000000
vn 0.000000 0.000000 -1.000000
vn 0.000000 0.000000 -1.000000
vn 0.000000 0.000000 -1.000000
vn 0.000000 -1.000000 0.000000
vn 0.000000 -1.000000 0.000000
vn 0.000000 -1.000000 0.000000
vn 0.000000 -1.000000 0.000000
vn 1.000000 0.000000 0.000000
vn 1.000000 0.000000 0.000000
vn 1.000000 0.000000 0.000000
vn 1.000000 0.000000 0.000000
vn -1.000000 0.000000 0.000000
vn -1.000000 0.000000 0.000000
vn -1.000000 0.000000 0.000000
vn -1.000000 0.000000 0.000000
s off
g pCube1
usemtl lambert2SG
f 1/18/1 2/2/2 4/21/3 3/23/4
f 3/3/5 4/22/6 6/6/7 5/20/8
f 5/5/9 6/19/10 8/8/11 7/16/12
f 7/7/13 8/15/14 2/10/15 1/9/16
f 2/17/17 8/11/18 6/12/19 4/4/20
f 7/13/21 1/1/22 3/24/23 5/14/24
g default
v 22.214173 0.593829 16.802900
v -22.214173 0.593829 16.802900
v 22.214173 0.593829 -16.802898
v -22.214173 0.593829 -16.802898
v 21.375037 0.604643 -16.168175
v -21.375037 0.604643 -16.168175
v -21.375037 0.604643 16.168175
v 21.375037 0.604643 16.168175
v 22.214173 10.051634 -16.802890
v -22.214173 10.051634 -16.802898
v -21.375037 10.051634 -16.168167
v 21.375037 10.051634 -16.168175
v -22.214173 10.051634 16.802892
v -21.375037 10.051634 16.168175
v 22.214173 10.051634 16.802900
v 21.375037 10.051634 16.168167
v 19.034734 0.593829 -16.802896
v 4.225286 0.593829 -16.802898
v 7.404723 10.051634 -16.802892
v -7.404725 10.051634 -16.802894
v -3.448714 0.604642 16.168175
v -18.520176 0.604642 16.168175
v 7.125011 10.051634 16.168169
v -7.125013 10.051634 16.168173
v 19.031487 0.604643 -16.168175
v 4.228532 0.604643 -16.168175
v 7.125011 10.051634 -16.168173
v -7.125013 10.051634 -16.168169
v -3.579720 0.593827 16.802900
v -18.389168 0.593827 16.802900
v 7.404723 10.051634 16.802896
v -7.404725 10.051634 16.802894
v 19.034734 8.335051 -16.802894
v 4.225286 8.335051 -16.802896
v -3.448714 8.425146 16.168173
v -18.520176 8.425146 16.168173
v 19.031487 8.340458 -16.168173
v 4.228532 8.340458 -16.168173
v -3.579720 8.419739 16.802898
v -18.389168 8.419739 16.802896
vt 0.955625 0.340476
vt 0.287314 0.320704
vt 0.022738 0.271637
vt 0.272738 0.271637
vt 0.994040 0.341969
vt 0.705625 0.340476
vt 0.375000 0.021182
vt 0.625000 0.021182
vt 0.194737 0.945243
vt 0.375000 0.271182
vt 0.375000 0.750000
vt 0.625000 0.750000
vt 0.625000 0.750000
vt 0.375000 0.021182
vt 0.744040 0.465882
vt 0.625000 0.271182
vt 0.037314 0.472570
vt 0.375000 1.000000
vt 0.106071 0.271637
vt 0.137491 0.816258
vt 0.152230 0.481568
vt 0.541667 0.750000
vt 0.123077 0.444143
vt 0.206410 0.444143
vt 0.458333 1.000000
vt 0.541667 0.271182
vt 0.458333 0.460298
vt 0.541667 0.460298
vt 0.458333 0.021182
vt 0.541667 0.750000
vt 0.080244 0.751765
vt 0.189405 0.021637
vt 0.458333 1.000000
vt 0.203981 0.472570
vt 0.458333 0.399066
vt 0.541667 0.399066
vt 0.123077 0.444143
vt 0.541667 0.271182
vt 0.458333 0.021182
vt 0.541667 0.460298
vt 0.123077 0.403925
vt 0.206410 0.403925
vt 0.744040 0.465882
vt 0.625000 1.000000
vt 0.994040 0.341969
vt 0.744040 0.424577
vt 0.744040 0.341969
vt 0.955625 0.340476
vt 0.022738 0.021637
vt 0.955625 0.431553
vt 0.955625 0.431553
vt 0.955625 0.477092
vt 0.137491 0.945243
vt 0.137491 0.945243
vt 0.137491 0.945243
vt 0.137491 0.945243
vt 0.123077 0.363708
vt 0.080244 0.751765
vt 0.541667 0.337834
vt 0.137491 0.816258
vt 0.080244 0.880751
vt 0.080244 0.880751
vt 0.080244 0.880751
vt 0.080244 0.880751
vt 0.080244 0.945243
vt 0.080244 0.945243
vt 0.080244 0.945243
vt 0.137491 0.880751
vt 0.137491 0.880751
vt 0.137491 0.880751
vt 0.137491 0.880751
vt 0.137491 0.880751
vt 0.137491 0.880751
vt 0.022998 0.945243
vt 0.022998 0.945243
vt 0.022998 0.945243
vt 0.625000 0.271182
vt 0.194737 0.945243
vt 0.137491 0.751765
vt 0.080244 0.816258
vt 0.194737 0.880751
vt 0.022998 0.880751
vt 0.120648 0.396637
vt 0.120648 0.396637
vt 0.120648 0.396637
vt 0.203981 0.472570
vt 0.541667 1.000000
vt 0.203981 0.472570
vt 0.120648 0.472570
vt 0.120648 0.472570
vt 0.120648 0.472570
vt 0.120648 0.320704
vt 0.120648 0.320704
vt 0.120648 0.320704
vt 0.106071 0.021637
vt 0.037314 0.472570
vt 0.375000 1.000000
vt 0.287314 0.320704
vt 0.272738 0.021637
vt 0.203981 0.396637
vt 0.203981 0.396637
vt 0.203981 0.396637
vt 0.203981 0.396637
vt 0.287314 0.472570
vt 0.287314 0.472570
vt 0.203981 0.320704
vt 0.206410 0.363708
vt 0.037314 0.320704
vt 0.235563 0.401496
vt 0.235563 0.401496
vt 0.235563 0.401496
vt 0.235563 0.401496
vt 0.152230 0.481568
vt 0.458333 0.750000
vt 0.152230 0.481568
vt 0.068896 0.321423
vt 0.068896 0.321423
vt 0.152230 0.401496
vt 0.152230 0.401496
vt 0.152230 0.401496
vt 0.152230 0.401496
vt 0.068896 0.481568
vt 0.068896 0.481568
vt 0.235563 0.481568
vt 0.235563 0.481568
vt 0.235563 0.481568
vt 0.318896 0.321423
vt 0.318896 0.321423
vt 0.318896 0.321423
vt 0.152230 0.321423
vt 0.458333 0.337834
vt 0.235563 0.321423
vt 0.189405 0.271637
vt 0.318896 0.481568
vt 0.458333 0.750000
vt 0.458333 0.021182
vt 0.458333 0.021182
vt 0.541667 0.021182
vt 0.541667 0.021182
vt 0.541667 0.021182
vt 0.541667 0.021182
vt 0.458333 0.271182
vt 0.458333 0.271182
vt 0.458333 0.271182
vt 0.541667 1.000000
vt 0.541667 0.271182
vt 0.541667 0.271182
vt 0.375000 0.271182
vt 0.375000 0.271182
vt 0.375000 0.021182
vt 0.375000 0.021182
vt 0.375000 0.750000
vt 0.375000 0.021182
vt 0.625000 0.021182
vt 0.625000 0.021182
vt 0.625000 0.021182
vt 0.625000 0.021182
vt 0.625000 0.271182
vt 0.625000 0.271182
vt 0.625000 1.000000
vt 0.625000 0.271182
vt 0.458333 0.460298
vt 0.458333 0.021182
vt 0.458333 0.021182
vt 0.458333 0.021182
vt 0.375000 0.021182
vt 0.375000 0.021182
vt 0.541667 0.021182
vt 0.541667 0.021182
vt 0.541667 0.021182
vt 0.206410 0.444143
vt 0.541667 0.271182
vt 0.541667 0.271182
vt 0.541667 0.271182
vt 0.625000 0.271182
vt 0.625000 0.271182
vt 0.458333 0.271182
vt 0.458333 0.271182
vt 0.458333 0.271182
vt 0.458333 0.271182
vt 0.458333 0.271182
vt 0.458333 0.271182
vt 0.375000 0.271182
vt 0.375000 0.271182
vt 0.375000 0.271182
vt 0.541667 0.021182
vt 0.458333 0.021182
vt 0.625000 0.021182
vt 0.625000 0.021182
vt 0.541667 0.271182
vt 0.272738 0.271637
vt 0.272738 0.271637
vt 0.189405 0.021637
vt 0.106071 0.021637
vt 0.106071 0.021637
vt 0.106071 0.021637
vt 0.106071 0.021637
vt 0.189405 0.271637
vt 0.106071 0.271637
vt 0.022738 0.271637
vt 0.123077 0.444143
vt 0.123077 0.403925
vt 0.123077 0.403925
vt 0.206410 0.403925
vt 0.206410 0.403925
vt 0.206410 0.403925
vt 0.206410 0.444143
vt 0.123077 0.444143
vt 0.123077 0.444143
vt 0.206410 0.444143
vt 0.541667 0.399066
vt 0.541667 0.399066
vt 0.541667 0.460298
vt 0.458333 0.399066
vt 0.458333 0.399066
vt 0.458333 0.399066
vt 0.541667 0.460298
vt 0.541667 0.460298
vt 0.458333 0.460298
vt 0.458333 0.460298
vn 0.000000 -1.000000 0.000000
vn 0.000000 -1.000000 -0.000000
vn 0.000000 -1.000000 -0.000000
vn -0.000000 -1.000000 -0.000000
vn 0.000000 -1.000000 -0.000000
vn -0.000000 -1.000000 -0.000000
vn -0.000000 -1.000000 0.000000
vn -0.000000 -1.000000 -0.000000
vn 0.000000 1.000000 0.000000
vn 0.000000 1.000000 -0.000278
vn -0.000000 1.000000 0.000000
vn 0.000000 1.000000 0.000000
vn 0.000000 1.000000 0.000000
vn -0.000000 1.000000 -0.000123
vn 0.000000 1.000000 0.000312
vn -0.000000 1.000000 0.000117
vn 1.000000 -0.000000 0.000000
vn 1.000000 0.000000 0.000000
vn 1.000000 0.000000 0.000000
vn 1.000000 0.000000 0.000000
vn 0.000000 1.000000 0.000000
vn 0.000000 1.000000 -0.000000
vn 0.000000 1.000000 0.000000
vn 0.000000 1.000000 0.000000
vn 0.000000 1.000000 0.000001
vn 0.000000 1.000000 0.000001
vn 0.000000 1.000000 0.000000
vn 0.000000 1.000000 0.000000
vn 0.000000 1.000000 -0.000000
vn 0.000000 1.000000 -0.000000
vn 0.000000 1.000000 -0.000001
vn 0.000000 1.000000 -0.000001
vn 0.000000 1.000000 -0.000001
vn 0.000000 1.000000 -0.000000
vn 0.000000 1.000000 0.000001
vn 0.000000 1.000000 0.000001
vn 0.000000 0.000000 1.000000
vn 0.000000 0.000000 1.000000
vn 0.000000 0.000001 1.000000
vn -0.000000 -0.000000 1.000000
vn -0.000000 -0.000000 1.000000
vn -1.000000 0.000000 0.000000
vn -1.000000 0.000000 0.000000
vn -1.000000 0.000000 0.000000
vn -1.000000 0.000000 0.000000
vn 1.000000 -0.000000 0.000000
vn 1.000000 -0.000000 0.000000
vn 1.000000 -0.000000 0.000000
vn 1.000000 -0.000000 0.000000
vn -0.000000 -0.000001 -1.000000
vn -0.000000 -0.000001 -1.000000
vn -0.000000 -0.000001 -1.000000
vn -0.000000 -0.000000 -1.000000
vn -0.000000 -0.000000 -1.000000
vn -1.000000 0.000000 0.000000
vn -1.000000 0.000000 0.000000
vn -1.000000 0.000000 0.000000
vn -1.000000 0.000000 0.000000
vn 0.000000 -0.000000 1.000000
vn -0.000000 0.000001 1.000000
vn 0.000000 0.000000 1.000000
vn -0.000000 0.000001 1.000000
vn -0.000000 0.000001 1.000000
vn 0.000000 0.000002 -1.000000
vn 0.000000 0.000002 -1.000000
vn 0.000001 0.000001 -1.000000
vn -0.000001 0.000000 -1.000000
vn -0.000001 0.000000 -1.000000
vn 0.000000 0.000000 -1.000000
vn -0.000000 0.000000 -1.000000
vn -0.000000 0.000001 -1.000000
vn 0.000000 -0.000000 -1.000000
vn 0.000000 0.000000 -1.000000
vn -0.000000 0.000000 -1.000000
vn -0.000000 0.000000 -1.000000
vn -0.000000 0.000001 -1.000000
vn -0.000000 -0.000000 -1.000000
vn -0.000000 -0.000000 -1.000000
vn -0.000000 -0.000000 1.000000
vn 0.000000 -0.000001 1.000000
vn 0.000000 -0.000000 1.000000
vn 0.000000 -0.000001 1.000000
vn 0.000000 -0.000001 1.000000
vn -0.000000 0.000002 1.000000
vn -0.000000 0.000002 1.000000
vn -0.000001 0.000001 1.000000
vn 0.000000 0.000001 1.000000
vn 0.000000 0.000001 1.000000
vn 0.000000 0.999855 -0.017035
vn 0.000000 0.999855 -0.017035
vn -0.999987 0.000000 -0.005115
vn -0.999987 0.000000 -0.005115
vn -0.999987 0.000000 -0.005115
vn -0.999987 0.000000 -0.005115
vn -0.000000 -0.999964 0.008520
vn -0.000000 -0.999964 0.008518
vn -0.000000 -0.999964 0.008520
vn -0.000000 -0.999964 0.008518
vn 0.999987 -0.000000 -0.005115
vn 0.999987 0.000000 -0.005115
vn 0.999987 -0.000000 -0.005115
vn 0.999987 0.000000 -0.005115
vn 0.000000 0.999855 0.017035
vn 0.000000 0.999855 0.017035
vn -0.000000 -0.999964 -0.008515
vn -0.000000 -0.999964 -0.008518
vn -0.000000 -0.999964 -0.008515
vn -0.000000 -0.999964 -0.008518
vn 0.979357 -0.000000 -0.202140
vn 0.979357 -0.000000 -0.202140
vn 0.979357 -0.000000 -0.202139
vn 0.979357 -0.000000 -0.202139
vn -0.979357 -0.000000 -0.202137
vn -0.979357 -0.000000 -0.202138
vn -0.979357 -0.000000 -0.202137
vn -0.979357 -0.000000 -0.202138
s 1
g pasted__pasted__pCube1 pasted__group1 group
usemtl lambert2SG
f 9/73/25 37/119/26 11/27/27
f 11/224/27 37/218/26 25/43/28
f 25/223/28 37/219/26 26/222/29
f 26/157/29 37/220/26 12/216/30
f 10/123/31 12/28/30 38/56/32
f 37/221/26 38/217/32 12/215/30
s 2
f 13/106/33 33/85/34 16/100/35
f 14/105/36 15/102/37 34/97/38
f 33/86/34 34/93/38 16/99/35
f 15/33/37 30/77/39 34/96/38
f 30/78/39 29/90/40 34/95/38
f 34/94/38 29/91/40 16/98/35
s 4
f 23/76/41 9/25/42 17/75/43
f 17/74/43 9/72/42 11/30/44
s 5
f 17/35/45 27/138/46 20/176/47
f 20/176/47 27/138/46 35/159/48
f 18/36/49 19/37/50 28/46/51
f 19/37/50 36/54/52 28/46/51
f 27/138/46 28/46/51 35/159/48
f 28/46/51 36/54/52 35/159/48
f 18/36/49 21/68/53 19/37/50
f 19/37/50 21/68/53 22/184/54
f 21/68/53 40/111/55 22/184/54
f 22/184/54 40/111/55 32/169/56
f 23/121/57 24/42/58 39/57/59
f 24/42/58 31/49/60 39/57/59
f 40/111/55 39/57/59 32/169/56
f 39/57/59 31/49/60 32/169/56
f 23/121/57 17/35/45 24/42/58
f 24/42/58 17/35/45 20/176/47
s 8
f 35/160/61 45/188/62 20/175/63
f 20/174/63 45/189/62 13/31/64
f 13/191/64 45/63/62 33/211/65
s 9
f 10/71/66 21/39/67 12/29/68
f 12/69/68 21/67/67 18/70/69
s 10
f 15/200/70 14/181/71 22/40/72
f 22/185/72 14/32/71 19/213/73
s 11
f 16/172/74 29/201/75 24/208/76
f 24/207/76 29/202/75 31/206/77
f 29/203/75 43/166/78 31/205/77
s 12
f 13/190/79 16/173/80 20/38/81
f 20/177/81 16/34/80 24/209/82
s 13
f 9/132/83 23/41/84 37/118/85
f 23/120/84 39/113/86 37/117/85
f 39/114/86 47/109/87 37/116/85
s 14
f 27/137/88 17/146/89 41/144/90
f 17/147/89 11/140/91 41/143/90
f 11/141/91 25/154/92 41/142/90
f 26/156/93 12/151/94 42/136/95
f 18/158/96 28/148/97 12/153/94
f 28/149/97 42/135/95 12/152/94
f 41/145/90 42/133/95 27/45/88
f 27/139/88 42/134/95 28/150/97
s 11
f 32/170/98 44/197/99 22/183/100
f 22/182/100 44/198/99 15/199/101
f 44/62/99 30/214/102 15/101/101
f 31/204/77 43/167/78 32/50/98
f 32/171/98 43/168/78 44/196/99
s 8
f 34/210/103 46/162/104 14/180/105
f 19/212/106 14/178/105 36/194/107
f 46/163/104 36/193/107 14/179/105
s 13
f 40/110/108 21/128/109 48/126/110
f 21/129/109 10/26/111 48/125/110
f 38/130/112 48/124/110 10/122/111
s 8
f 45/187/62 35/161/61 46/165/104
f 46/164/104 35/53/61 36/192/107
s 13
f 48/127/110 47/107/87 40/58/108
f 40/112/108 47/108/87 39/115/86
s 2
f 25/104/113 26/84/114 33/88/34
f 33/87/34 26/44/114 34/92/38
s 19
f 25/155/115 33/243/116 41/239/117
f 41/238/117 33/51/116 45/186/118
s 20
f 42/235/119 41/240/120 46/64/121
f 46/242/121 41/59/120 45/244/122
s 21
f 26/83/123 42/236/124 34/52/125
f 34/237/125 42/60/124 46/241/126
s 2
f 29/89/40 30/79/39 37/55/127
f 37/82/127 30/80/39 38/103/128
s 22
f 44/234/129 43/233/130 48/229/131
f 48/228/131 43/61/130 47/226/132
s 23
f 44/195/133 48/230/134 30/48/135
f 30/231/135 48/66/134 38/131/136
s 24
f 43/232/137 29/225/138 47/65/139
f 47/227/139 29/47/138 37/81/140
g default
v 22.214173 9.896104 16.802902
v -22.214173 9.896104 16.802898
v 22.214173 9.896104 -16.802898
v -22.214173 9.896104 -16.802898
v 21.375037 9.906918 -16.168175
v -21.375037 9.906918 -16.168175
v -21.375037 9.906918 16.168175
v 21.375037 9.906918 16.168175
v 22.214173 19.353907 -16.802890
v -22.214173 19.353907 -16.802898
v -21.375037 19.353907 -16.168167
v 21.375037 19.353907 -16.168175
v -22.214173 19.353907 16.802890
v -21.375037 19.353907 16.168175
v 22.214173 19.353907 16.802902
v 21.375037 19.353907 16.168167
vt 0.201808 0.517250
vt 0.138624 0.512515
vt 0.015450 0.261919
vt 0.951743 0.509031
vt 0.311235 0.532609
vt 0.015576 0.517250
vt 0.030026 0.047905
vt 0.270308 0.750000
vt 0.280026 0.297905
vt 0.020308 1.000000
vt 0.136525 0.732944
vt 0.222952 0.524368
vt 0.280026 0.047905
vt 0.062807 0.524368
vt 0.061235 0.717391
vt 0.222952 0.710600
vt 0.954176 0.732080
vt 0.030026 0.297905
vt 0.136525 0.509031
vt 0.265450 0.261919
vt 0.201808 0.646235
vt 0.951743 0.732944
vt 0.015450 0.011919
vt 0.954176 0.512515
vt 0.265450 0.011919
vt 0.061235 0.532609
vt 0.062807 0.710600
vt 0.138624 0.732080
vt 0.062807 0.524368
vt 0.201808 0.710728
vt 0.061235 0.655797
vt 0.222952 0.710600
vt 0.030026 0.047905
vt 0.020308 0.750000
vt 0.280026 0.047905
vt 0.280026 0.047905
vt 0.030026 0.047905
vt 0.030026 0.047905
vt 0.280026 0.047905
vt 0.222952 0.524368
vt 0.030026 0.297905
vt 0.030026 0.297905
vt 0.280026 0.297905
vt 0.270308 1.000000
vt 0.030026 0.297905
vt 0.062807 0.710600
vt 0.280026 0.297905
vt 0.280026 0.297905
vt 0.062807 0.524368
vt 0.222952 0.524368
vt 0.062807 0.524368
vt 0.222952 0.524368
vt 0.062807 0.710600
vt 0.222952 0.710600
vt 0.062807 0.710600
vt 0.222952 0.710600
vn -0.000000 -1.000000 0.000000
vn -0.000000 -1.000000 0.000000
vn -0.000000 -1.000000 0.000000
vn -0.000000 -1.000000 0.000000
vn 0.000000 1.000000 0.000000
vn 0.000000 1.000000 0.000000
vn 0.000000 1.000000 0.000000
vn 0.000000 1.000000 0.000000
vn 1.000000 -0.000000 0.000000
vn 1.000000 -0.000000 0.000000
vn 1.000000 -0.000000 0.000000
vn 1.000000 -0.000000 0.000000
vn 0.000000 1.000000 -0.000000
vn 0.000000 1.000000 -0.000000
vn 0.000000 1.000000 -0.000000
vn 0.000000 1.000000 -0.000000
vn 0.000000 1.000000 0.000000
vn 0.000000 1.000000 0.000000
vn 0.000000 1.000000 0.000000
vn 0.000000 1.000000 0.000000
vn 0.000000 -0.000000 1.000000
vn 0.000000 -0.000000 1.000000
vn 0.000000 -0.000000 1.000000
vn 0.000000 -0.000000 1.000000
vn -1.000000 0.000000 0.000000
vn -1.000000 0.000000 0.000000
vn -1.000000 0.000000 0.000000
vn -1.000000 0.000000 0.000000
vn 1.000000 -0.000000 0.000000
vn 1.000000 -0.000000 0.000000
vn 1.000000 -0.000000 0.000000
vn 1.000000 -0.000000 0.000000
vn -0.000000 -0.000000 -1.000000
vn -0.000000 -0.000000 -1.000000
vn -0.000000 -0.000000 -1.000000
vn -0.000000 -0.000000 -1.000000
vn -1.000000 0.000000 0.000000
vn -1.000000 0.000000 0.000000
vn -1.000000 0.000000 0.000000
vn -1.000000 0.000000 0.000000
vn -0.000000 0.000000 1.000000
vn -0.000000 0.000000 1.000000
vn -0.000000 0.000000 1.000000
vn -0.000000 0.000000 1.000000
vn 0.000000 0.000000 -1.000000
vn 0.000000 0.000000 -1.000000
vn 0.000000 0.000000 -1.000000
vn 0.000000 0.000000 -1.000000
s off
g pasted__pasted__pCube1 pasted__group1 group2
usemtl lambert2SG
f 49/267/141 50/269/142 52/264/143 51/247/144
f 53/278/145 54/252/146 55/288/147 56/254/148
f 63/274/149 49/245/150 51/250/151 57/265/152
s 1
f 57/293/153 58/256/154 59/296/155 60/258/156
f 58/294/154 61/276/157 62/298/158 59/284/155
f 61/300/157 63/271/159 64/297/160 62/260/158
f 63/299/159 57/273/153 60/295/156 64/290/160
s off
f 53/251/161 60/282/162 59/257/163 54/280/164
f 50/270/165 61/259/166 58/275/167 52/249/168
f 55/287/169 54/279/170 59/283/171 62/291/172
f 56/286/173 55/253/174 62/292/175 64/262/176
f 53/277/177 56/285/178 64/289/179 60/281/180
f 49/268/181 63/261/182 61/272/183 50/246/184
f 51/263/185 52/248/186 58/266/187 57/255/188
